<svg xmlns="http://www.w3.org/2000/svg" viewBox="0 0 83 83">
  <defs>
    <style>
      .cls-1 {
        fill: #f8daa8;
      }

      .cls-2 {
        fill: #f3ca96;
      }

      .cls-20, .cls-21, .cls-3, .cls-32, .cls-33, .cls-34, .cls-47, .cls-56, .cls-61, .cls-62, .cls-69, .cls-70 {
        fill: none;
      }

      .cls-3 {
        stroke: #c7a96a;
        stroke-linecap: round;
        stroke-width: 0.01px;
      }

      .cls-20, .cls-21, .cls-3, .cls-32, .cls-33, .cls-34, .cls-38, .cls-39, .cls-56, .cls-61, .cls-62, .cls-68, .cls-69, .cls-70 {
        stroke-miterlimit: 10;
      }

      .cls-4 {
        fill: #f9fcff;
      }

      .cls-5 {
        fill: #c8dfe8;
      }

      .cls-6 {
        fill: #feec6c;
      }

      .cls-7 {
        fill: #fedf6a;
      }

      .cls-8 {
        fill: #bac655;
      }

      .cls-9 {
        fill: #b5b66a;
      }

      .cls-10 {
        fill: #dbe16f;
      }

      .cls-11 {
        fill: #eac386;
      }

      .cls-12 {
        fill: #fcef86;
      }

      .cls-13 {
        fill: #95954b;
      }

      .cls-14 {
        fill: #d8881d;
      }

      .cls-15 {
        fill: #f59e21;
      }

      .cls-16 {
        fill: #f7d6a7;
      }

      .cls-17 {
        fill: #cd9d46;
      }

      .cls-18 {
        fill: #c1cd5d;
      }

      .cls-19 {
        fill: #adb356;
      }

      .cls-20 {
        stroke: #542410;
      }

      .cls-20, .cls-21 {
        stroke-width: 0.1px;
      }

      .cls-21 {
        stroke: #915337;
      }

      .cls-22 {
        fill: #f4bd82;
      }

      .cls-23 {
        fill: #2f2820;
      }

      .cls-24 {
        fill: #cccbc2;
      }

      .cls-25 {
        fill: #bcbbb3;
      }

      .cls-26 {
        fill: #c67f5f;
      }

      .cls-27 {
        fill: #ba765b;
      }

      .cls-28 {
        fill: #cf8567;
      }

      .cls-29 {
        fill: #ba785d;
      }

      .cls-30 {
        fill: #dc655c;
      }

      .cls-31, .cls-38, .cls-39 {
        fill: #cd5956;
      }

      .cls-32 {
        stroke: #cecdc2;
      }

      .cls-32, .cls-33, .cls-34 {
        stroke-width: 0.04px;
      }

      .cls-33 {
        stroke: #bfbdb8;
      }

      .cls-34 {
        stroke: #e2e0d5;
      }

      .cls-35 {
        fill: #cecdc2;
      }

      .cls-36 {
        fill: #601d1f;
      }

      .cls-37 {
        fill: #51191e;
      }

      .cls-38, .cls-39 {
        stroke: #cd5956;
      }

      .cls-38 {
        stroke-width: 0px;
      }

      .cls-39 {
        stroke-width: 0px;
      }

      .cls-40 {
        fill: #e0dfce;
      }

      .cls-41 {
        fill: #e2e1d7;
      }

      .cls-42 {
        fill: #d5d2b4;
      }

      .cls-43 {
        fill: #d45959;
      }

      .cls-44 {
        fill: #ee7273;
      }

      .cls-45 {
        fill: #ccc9b4;
      }

      .cls-46 {
        fill: #c7c3a2;
      }

      .cls-48 {
        fill: #d3a993;
      }

      .cls-49 {
        fill: #dab3a9;
      }

      .cls-50 {
        fill: #c39b8a;
      }

      .cls-51 {
        fill: #3a3129;
      }

      .cls-52 {
        fill: #e6e5e0;
      }

      .cls-53 {
        fill: #606165;
      }

      .cls-54 {
        fill: #f5aeba;
      }

      .cls-55 {
        fill: #efc5ce;
      }

      .cls-56 {
        stroke: #606165;
        stroke-width: 0.01px;
      }

      .cls-57 {
        fill: #f4c5cf;
      }

      .cls-58 {
        fill: #87898e;
      }

      .cls-59 {
        fill: #e2a1b0;
      }

      .cls-60 {
        fill: #797b7f;
      }

      .cls-61 {
        stroke: #eb593d;
      }

      .cls-62, .cls-68, .cls-69 {
        stroke: #acb8b4;
      }

      .cls-62, .cls-70 {
        stroke-width: 0.08px;
      }

      .cls-63, .cls-68 {
        fill: #acb8b4;
      }

      .cls-64 {
        fill: #f8c1c0;
      }

      .cls-65 {
        fill: #f4a9ad;
      }

      .cls-66 {
        fill: #f18890;
      }

      .cls-67 {
        fill: #f18990;
      }

      .cls-68 {
        stroke-width: 0.04px;
      }

      .cls-69 {
        stroke-width: 0.17px;
      }

      .cls-70 {
        stroke: #1a1228;
      }

      .cls-71 {
        fill: #1a1228;
      }

      .cls-72 {
        fill: #dfefe9;
      }
    </style>
  </defs>
  <g id="Livello_2" data-name="Livello 2">
    <g id="Livello_1-2" data-name="Livello 1">
      <g>
        <g>
          <path class="cls-1" d="M23.3,37.6a.28.28,0,0,1,0,.06,7,7,0,0,0,.08.72c0,.06.08.27.17.55.21.63.54,1.57.55,1.7a9.38,9.38,0,0,1,.39,2.48.76.76,0,0,1,0,.16,1,1,0,0,1-.36.56l-.42.26-.27.14h0a.16.16,0,0,0,0,.09.36.36,0,0,0,.12.08,1.8,1.8,0,0,0,.66,0,.6.6,0,0,0,.61.3,1,1,0,0,0,.49-.28.74.74,0,0,0,.12-.13.33.33,0,0,0,0-.17l0-.16a2.36,2.36,0,0,1,0-.46v-.05s0-.08,0-.12v0a5.65,5.65,0,0,1,.15-.74,2.72,2.72,0,0,0,.13-2.26,7.18,7.18,0,0,1,.28-1.46,1.87,1.87,0,0,0,.15-.32l0-.1h0a2.27,2.27,0,0,0,.08-.59v-.12a2.16,2.16,0,0,0-.22-.81s-.21-.06-.23-.13,0,0,0,0h0s.08,0,.1,0a2.18,2.18,0,0,1,.23.09h0l0,0-.14-.07,0,0h0l-.14-.08h0l0,0c-.42-.23-1-.57-1.06-.58s-1.08.92-1.08.92a.17.17,0,0,0-.15.07A.88.88,0,0,0,23.3,37.6Z"/>
          <path class="cls-2" d="M25.29,43.18s0,.17.07.33c0,0,0-.08,0-.12v0h0a5.65,5.65,0,0,1,.15-.74,2.72,2.72,0,0,0,.13-2.26,7.18,7.18,0,0,1,.28-1.46,1.87,1.87,0,0,0,.15-.32l0-.1h0a2.27,2.27,0,0,0,.08-.59v-.12a6.14,6.14,0,0,0-.12-.88h0a2.48,2.48,0,0,0-.12-.38.2.2,0,0,1-.18,0s0-.09,0-.1l0,.1,0,.19a.44.44,0,0,1,0,.1.18.18,0,0,1,0,0h0l-.13-.07,0,0a5.1,5.1,0,0,1,.19,1A3.21,3.21,0,0,1,25.69,39c-.4,1.38-.11,2,0,2.16S25.11,42.78,25.29,43.18Z"/>
          <path class="cls-3" d="M24.2,44.46l.2-.18"/>
          <path class="cls-3" d="M24.82,43.91l.1-.07c.17-.11.12-1.27.09-1.52s-.14-1.78-.19-1.94-.47-2.2-.47-2.2"/>
          <path class="cls-4" d="M25.82,33.67a2.59,2.59,0,0,0,1-1.35c.65-1.72,1.69-4.16,2.58-4.84s.48-.49.48-.49-2.28-.08-4.76,3.89c-.08.14-1.21,1.71-1.28,1.83Z"/>
          <path class="cls-5" d="M25.56,33.54l.26.13a2.59,2.59,0,0,0,1-1.35c.65-1.72,1.69-4.16,2.58-4.84a3.23,3.23,0,0,0,.56-.48,3.83,3.83,0,0,0-1.52.93c-.35.55-2,4.76-2.45,4.89C25.76,32.88,25.64,33.19,25.56,33.54Z"/>
          <path class="cls-4" d="M23.32,29.44a8.46,8.46,0,0,0-1.72-3.1h0l0-.07A32.62,32.62,0,0,1,23,29.6"/>
          <path class="cls-5" d="M21.6,26.34v0c.12.26.78,1.65,1.15,2.62A11.38,11.38,0,0,0,22,26.79c-.11-.15-.24-.3-.37-.45Z"/>
          <path class="cls-4" d="M24.57,33.37a15.39,15.39,0,0,0,1.52,2.5c.39.38,1.14.92,1,1A5.16,5.16,0,0,1,26,36.3l-1.53-.42Z"/>
          <path class="cls-5" d="M24.76,33.76a4.35,4.35,0,0,0,.12,1c.16.63,1.15,1.28,1.91,1.69-.22-.19-.5-.42-.7-.61A15.56,15.56,0,0,1,24.76,33.76Z"/>
          <path class="cls-6" d="M23.56,28.79a.75.75,0,0,0,.68.81.76.76,0,0,0,.73-.78.61.61,0,0,0-.26-.52.88.88,0,0,0-.55-.17C23.76,28.13,23.56,28.36,23.56,28.79Z"/>
          <path class="cls-7" d="M23.56,28.91a.69.69,0,0,0,1.34.25.84.84,0,0,0-.28-.31.66.66,0,0,0-.58,0C23.9,28.91,23.71,29,23.56,28.91Z"/>
          <path class="cls-8" d="M24.34,44.15a.25.25,0,0,0,.27.25.29.29,0,0,0,.12-.56.27.27,0,0,0-.12,0,.32.32,0,0,0-.27.31Z"/>
          <path class="cls-9" d="M24.34,44.12c.15,0,.24-.19.39-.28a.27.27,0,0,0-.12,0A.32.32,0,0,0,24.34,44.12Z"/>
          <path class="cls-1" d="M22.88,34.47a3.85,3.85,0,0,0,.61.64l.16.37a.32.32,0,0,1,0,.16.4.4,0,0,1,0,.15,4.34,4.34,0,0,0-.52,2.07s.72-1.07.65-.75.61,1.13.54.88S25,37,25,37a9.76,9.76,0,0,0,.81,1c.07,0,0-1.22,0-1.23a6.48,6.48,0,0,1,.79.33,2.88,2.88,0,0,0-1.51-1.41c-.31-.11-.37-.48-.34-.82v-.07a2.21,2.21,0,0,1,.07-.32,1.49,1.49,0,0,0,.06-.56h0a11.22,11.22,0,0,0,1.88,1,6.81,6.81,0,0,0,1.84.11c.09,0,.22-.53.29-.64s.19-.13.19-.2.18-.07.26-.18-.55.08-.65.13a1.26,1.26,0,0,0-.31.55c0,.09-.18,0-.18,0a6.15,6.15,0,0,0-1.62-.53l-.6-.48-.59-.47-.2-.16c-.37-.29-.62-.13-.64-.11h0l-.34-.1c-.07,0,0-.16,0-.23s.2-.62.21-.64l-.73.57v.11a1.88,1.88,0,0,0,.05.33c0,.12-.67.3-.74.46a.71.71,0,0,0,.06.44.81.81,0,0,1-.1.41h0A.26.26,0,0,0,22.88,34.47Z"/>
          <path class="cls-2" d="M25.16,33l-.05,0c0,.48,1.5,1.44,2.39,1.39a5.5,5.5,0,0,0-.95-.25l-.6-.48Z"/>
          <path class="cls-2" d="M24.18,32.78s.9.77,1.49.61l-.51-.4c-.37-.29-.62-.13-.64-.11h0Z"/>
          <path class="cls-2" d="M24.14,32.68a.44.44,0,0,1,0-.13l.19-.58A.56.56,0,0,0,24.14,32.68Z"/>
          <path class="cls-1" d="M24.72,34.79s-.46-.78-.79-.93"/>
          <path class="cls-8" d="M24.71,34.78s-.46-.77-.79-.92c0,0-.54.14-.54.39,0-.1-.38-.43-.38-.43a1,1,0,0,1-.1.41h0a.23.23,0,0,0,0,.24,3.85,3.85,0,0,0,.61.64l.16.37a.41.41,0,0,1,0,.16.4.4,0,0,1,0,.15,4.34,4.34,0,0,0-.52,2.07s.73-1.07.66-.75.61,1.13.54.88.62-1,.62-1a9.76,9.76,0,0,0,.81,1c.07,0,0-1.22,0-1.24a8.51,8.51,0,0,1,.79.34A2.82,2.82,0,0,0,25,35.68c-.33-.12-.37-.54-.33-.9"/>
          <path class="cls-8" d="M23.64,35.48a.45.45,0,0,1,0,.16.4.4,0,0,1,0,.15,4.34,4.34,0,0,0-.52,2.07l.18-.26c.21-.29.52-.7.48-.49s.61,1.13.54.88.62-1,.62-1a9.76,9.76,0,0,0,.81,1,.67.67,0,0,0,0-.31c0-.3,0-.71,0-.87s0-.05,0-.06l.33.13.46.21A2.82,2.82,0,0,0,25,35.68c-.33-.12-.37-.54-.33-.9,0,0-.46-.77-.79-.92,0,0-.54.14-.54.39,0-.1-.38-.43-.38-.43a.89.89,0,0,1-.08.36.88.88,0,0,0,.07.3c.08.17.23.32.32.48a1.78,1.78,0,0,0,.17.15Z"/>
          <path class="cls-10" d="M22.87,34.47a2.64,2.64,0,0,0,.44.49c-.09-.16-.24-.31-.32-.48a.88.88,0,0,1-.07-.3s0,0,0,0h0A.23.23,0,0,0,22.87,34.47Z"/>
          <path class="cls-10" d="M23.12,37.85A15.05,15.05,0,0,0,23.56,36,4.39,4.39,0,0,0,23.12,37.85Z"/>
          <path class="cls-9" d="M23.38,34.25a1.35,1.35,0,0,1,.82.27c.53.31.27,1.18.68,1.55a6.18,6.18,0,0,1,.89,1.8,10.09,10.09,0,0,1,0-1.12h0c.13,0,.77.33.77.33A2.82,2.82,0,0,0,25,35.68c-.33-.12-.37-.54-.33-.9,0,0-.46-.77-.79-.92h0C23.38,34,23.39,34.23,23.38,34.25Z"/>
          <path class="cls-1" d="M22.5,31.25a1.14,1.14,0,0,1,.06.61c0,.36.17,1,1.06.82.44-.08.74-.66.74-.66a.72.72,0,0,0,.44-.35h0a.88.88,0,0,0,.07-.51,1.16,1.16,0,0,0,0-.18,2.47,2.47,0,0,0-.67-1.23l-1.69.55A6.47,6.47,0,0,0,22.5,31.25Z"/>
          <path class="cls-11" d="M24.8,31.67a.88.88,0,0,0,.07-.51C24.84,31.34,24.82,31.53,24.8,31.67Z"/>
          <path class="cls-2" d="M22.5,31.23c.3,0,.89,0,1.06-.27s.42-.55.43-.57a.56.56,0,0,0,.15.53c.22.18-.06.54-.06.54s.36-.05.59-.59a4.73,4.73,0,0,0-.51-1.12l-1.69.55A6.34,6.34,0,0,0,22.5,31.23Z"/>
          <path class="cls-6" d="M21.6,30.88a.65.65,0,0,0,.41.69,3,3,0,0,1,0-.3,2.11,2.11,0,0,1,.4-.38c.21-.16.77,0,1.14-.17s.58-.65.58-.65a.88.88,0,0,0,.06.81.57.57,0,0,1,0,.51c.23,0,.27-.45.27-.45a3.88,3.88,0,0,1-.09.68c.49-.1.43-.51.49-.46s0,.46,0,.48a2.16,2.16,0,0,0,.39-1A1.61,1.61,0,0,0,25,29.58a1.38,1.38,0,0,0-.26-.33,1.3,1.3,0,0,0-.91-.27,4,4,0,0,0-1.45.72A1.62,1.62,0,0,0,21.6,30.88Z"/>
          <path class="cls-7" d="M21.9,31.23a.9.9,0,0,0,0,.28v0h0l.06,0a1.5,1.5,0,0,1,0-.3,2.11,2.11,0,0,1,.4-.38c.21-.16.77,0,1.14-.17s.58-.65.58-.65a.88.88,0,0,0,.06.81.57.57,0,0,1,0,.51c.23,0,.27-.45.27-.45a3.88,3.88,0,0,1-.09.68c.49-.1.43-.51.49-.46s0,.46,0,.48a2,2,0,0,0,.4-1.2c-.07.12-.39.65-.56.43a.51.51,0,0,1-.07-.17.49.49,0,0,0-.18-.22.59.59,0,0,1-.18-.13.68.68,0,0,1-.08-.24c0-.06,0-.16,0-.22a3.17,3.17,0,0,1-.34.39,1.33,1.33,0,0,1-.26.21.67.67,0,0,1-.28.06,4.62,4.62,0,0,0-.65.08A1.05,1.05,0,0,0,22,31,.47.47,0,0,0,21.9,31.23Z"/>
          <path class="cls-12" d="M24.67,28.59a.8.8,0,0,0,.21.61.71.71,0,0,0,.09-.38.61.61,0,0,0-.26-.52A1.35,1.35,0,0,0,24.67,28.59Z"/>
          <path class="cls-2" d="M24.72,34.86v-.07a2.21,2.21,0,0,1,.07-.32,1.49,1.49,0,0,0,.06-.56,1.05,1.05,0,0,1-.2-.29A3.87,3.87,0,0,0,24.72,34.86Z"/>
          <path class="cls-2" d="M23.39,44.25a.16.16,0,0,0,0,.09.36.36,0,0,0,.12.08,2.24,2.24,0,0,0,1-1,6.51,6.51,0,0,0,0-1c0,.06-.05.82-.06.87a1,1,0,0,1-.36.56l-.42.26-.27.14h0Z"/>
          <path class="cls-2" d="M23.3,37.6a.28.28,0,0,1,0,.06,7,7,0,0,0,.08.72c0,.06.08.27.17.55a7.22,7.22,0,0,0-.15-1.87A.88.88,0,0,0,23.3,37.6Z"/>
          <path class="cls-8" d="M23.56,43.88a.25.25,0,0,0,.27.25.29.29,0,1,0,0-.58A.32.32,0,0,0,23.56,43.88Z"/>
          <path class="cls-9" d="M23.56,43.88v.06a.63.63,0,0,1,.31-.39h0A.32.32,0,0,0,23.56,43.88Z"/>
        </g>
        <g>
          <path class="cls-13" d="M19.12,34.47s.61,1.21.59,1.27-.49-.45-.49-.45Z"/>
          <path class="cls-13" d="M14.19,36.66a2,2,0,0,0,.48-1.18"/>
          <path class="cls-14" d="M19.42,48.32a5.47,5.47,0,0,0-1.34.21c0,.11.38.55.41.58s1,0,1,0Z"/>
          <path class="cls-15" d="M12.86,48a1,1,0,0,0-.24.52c0,.27-.18.12-.3.75,0,0-.87,1.26.11,1.36,0,0,.32.52.77.24s.79-.35.73-.72-.41-.59-.3-.87.25-.59.15-.65.15.06.15,0-.06-.52-.21-.48A4.32,4.32,0,0,1,12.86,48Z"/>
          <path class="cls-14" d="M13.93,48.55c0,.12-.25,0-.15.06s0,.19,0,.36a1.94,1.94,0,0,1-1,0,.41.41,0,0,1-.21-.25.3.3,0,0,0,.06-.17,1,1,0,0,1,.24-.52,4.32,4.32,0,0,0,.86.1C13.87,48,13.94,48.44,13.93,48.55Z"/>
          <path class="cls-13" d="M19.16,41.81c0,.12,0,.21,0,.27s0,.06,0,.06a5.15,5.15,0,0,1-.35-1h0c-.19-.6-.39-1.23-.41-1.08s0,.07,0,.11a2.39,2.39,0,0,1-.91,1.4,1.28,1.28,0,0,1-.41.22.34.34,0,0,1-.3,0c-.25-.15-.34-.93-.43-1.47h0c-.05-.28-.11-.49-.19-.51s-.1,0-.18.13c-.43.48-1.34,2.07-1.33,1.73v0h0c0-.47.45-2.12.45-2.12l2.83-.81A17,17,0,0,1,19,40.26a1.89,1.89,0,0,1,.06.21A7,7,0,0,1,19.16,41.81Z"/>
          <path class="cls-16" d="M15.29,39.77l-.6,1.7s-.64,2.71-.74,2.73A8,8,0,0,0,13,45.62c0,.1-.28,3.37-.28,3.37s.4.25.46.22a8.17,8.17,0,0,0,.31-.86c.06-.14.77-1.62.84-1.72a9.63,9.63,0,0,0,.19-1.55c0-.06.67-.68.73-.92s1.43-3.39,1.43-3.39l.56,1.16s.56,2.08.53,2.22a9.11,9.11,0,0,0-.27,1.44c.06.15.73,2.56.74,2.66l.08.91.95,0a5,5,0,0,0-.15-.59A3.22,3.22,0,0,1,19,47a12.3,12.3,0,0,0-.15-2.47,1.9,1.9,0,0,0,.1-.68c0-.26,0-3.12,0-3.12l-.36-.92-1.69.39-1.47-.73Z"/>
          <path class="cls-2" d="M18.84,49.13l-.48,0-.08-.91c0-.1-.68-2.51-.74-2.66a9.11,9.11,0,0,1,.27-1.44c0-.14-.53-2.22-.53-2.22l-.06-.11.08-1.75.18,0,.68,4.12s-.43,1.49-.38,1.5S18.69,48.61,18.84,49.13Z"/>
          <path class="cls-2" d="M15,40.59l-.81,3.73s-1,1.32-1,1.37-.09,1.85-.17,3.43L12.77,49s.25-3.27.27-3.37A8,8,0,0,1,14,44.2c.1,0,.74-2.73.74-2.73Z"/>
          <path class="cls-16" d="M18.91,34.57s-.16.3-.34.2l-1.95,3.32c.44.12,2.73-2,3-2.18S19,34.64,18.91,34.57Z"/>
          <path class="cls-16" d="M15.59,37.63s-.05.19-.14.5a4.7,4.7,0,0,1-1-1.89,1.68,1.68,0,0,0,.16-.59s.15.92.5.58a1.11,1.11,0,0,0,.19-.82Z"/>
          <path class="cls-17" d="M16.1,32.27c-1.36,0-1.61-1.11-1.58-2h0a4.78,4.78,0,0,1,.08-.74,4.74,4.74,0,0,1,.75.57,3.06,3.06,0,0,0,.18.9A8.77,8.77,0,0,0,16.1,32.27Z"/>
          <path class="cls-18" d="M18.16,33.25c-.38.08-1.33-.62-1.33-.62L15.22,33a9,9,0,0,1-.93.92c-.18.08-.44.38-.3,1.13s.2,1.61.2,1.61a3.38,3.38,0,0,0,.23-.42,3,3,0,0,0,.13-.35l.4.61a.08.08,0,0,0,.14,0,3,3,0,0,0,.18-1.08l.32,2.22s-.05.19-.14.5-.29.95-.52,1.6a5.1,5.1,0,0,0-.36,1.92h0A11.52,11.52,0,0,1,15.9,40c.06-.05.11-.07.14-.06s.16.2.23.44h0a3,3,0,0,0,.62,1.43.16.16,0,0,0,.11.05c.13,0,.27-.07.41-.22a7.68,7.68,0,0,0,.88-1.44s0,0,0,0l.42,1h0c.15.37.31.74.38.92s0,.11,0,.12v-.39a7,7,0,0,0-.1-1.34,1.89,1.89,0,0,0-.06-.21l-.42-1.42h0l-.14-.46a1.81,1.81,0,0,1-.07-.52l0-1.09.28-1.58v0h0l0,.05.05.07.17.25a.15.15,0,0,0,.23,0,.08.08,0,0,0,0-.05L19.16,35s.43.67.52.62S18.55,33.17,18.16,33.25Z"/>
          <path class="cls-19" d="M18.4,37v-.21l.26-1.48A4.77,4.77,0,0,0,18.4,37Z"/>
          <path class="cls-19" d="M15.25,35.35l.34,2.28s-.05.19-.14.5-.29.95-.52,1.6a5.53,5.53,0,0,0-.36,1.75,31.79,31.79,0,0,1,1.22-3.16A6.09,6.09,0,0,0,15.25,35.35Z"/>
          <path class="cls-19" d="M14.22,34.5a2.06,2.06,0,0,1,.12-.61.05.05,0,0,1-.05,0c-.18.08-.44.38-.3,1.13s.2,1.61.2,1.61a1.63,1.63,0,0,0,.09-.16C14.28,35.88,14.21,35,14.22,34.5Z"/>
          <path class="cls-16" d="M15.13,30.38a.86.86,0,0,1,0,.16l0,.07,0,0,.06-.36Z"/>
          <path class="cls-16" d="M15.77,28.93a1.68,1.68,0,0,1,.26.13.11.11,0,0,0-.16.11A.77.77,0,0,0,15.77,28.93Z"/>
          <path class="cls-16" d="M16.69,29.69l0,0,0,0Z"/>
          <path class="cls-16" d="M17.74,29.92a.05.05,0,0,1,0,0,.24.24,0,0,1-.05-.27h0v0l0,0h0a.38.38,0,0,1,0,.38Z"/>
          <path class="cls-17" d="M15.14,30.69v0Z"/>
          <path class="cls-17" d="M15.14,30.73v0Z"/>
          <path class="cls-17" d="M15.2,31.38s0,0,0-.12h0Z"/>
          <path class="cls-17" d="M17.74,29.92a.05.05,0,0,1,0,0,.24.24,0,0,1-.05-.27l0,.07-.05.05a.75.75,0,0,1-.16.15l0,0c-.28.19-.56.25-.51.21s.07-.73,0-.59a.19.19,0,0,1-.06.07v0l0,0,0,0h0l0,0-.12.06v-.21a.08.08,0,0,0,0,0v-.05a0,0,0,0,1,0,0v0l0-.06,0,0s0,0,0,0l-.07-.05-.07-.05,0,0,0,0,0,0-.07,0-.06,0a1.68,1.68,0,0,0-.26-.13.77.77,0,0,1,.1.24h0c0,.22-.11.39-.4.83l-.06.1,0,.06a1.64,1.64,0,0,0-.23.48v0h0v-.13l0,0,0,0,0,.05,0,0h0l-.07-.1h0a4.19,4.19,0,0,0-.4-.46,2.91,2.91,0,0,1,0-.33l.15-.49,2.37-1a0,0,0,0,1,0,0l-.09.21.4.06a.28.28,0,0,1,.13,0C18.24,29.08,17.91,29.94,17.74,29.92Z"/>
          <path class="cls-13" d="M17,28.44l-1.37.16s-.44-.93-.63-.81a3.15,3.15,0,0,0-.42,3S15.15,28.63,17,28.44Z"/>
          <path class="cls-16" d="M17.74,29.92s0,0,0,.06,0,0,0,.06l0,.07a2.6,2.6,0,0,1-.1.25l0,.1,0,.09-.1.22a.25.25,0,0,1,0,.07,1.17,1.17,0,0,1-.05.11.12.12,0,0,0,0,.15h0l.06.05a.14.14,0,0,0,0,.06s0,0,0,.06a.11.11,0,0,1,0,0h0v.12a.5.5,0,0,1,0,.12v0l0,0h0l0,.06a.08.08,0,0,1,0,.05l-.09.15,0,.06,0,.05a2.82,2.82,0,0,1-.33.36,4.92,4.92,0,0,1-.45.38,1.67,1.67,0,0,1-.69-.43l-.48-1.1h-.19a.82.82,0,0,1-.54-.6h0c-.13-.36-.11-.73,0-.62l0,0a2.8,2.8,0,0,1,.4.46h0l.07.1h0l0,0,0-.08,0,0v.13h0v0a1.64,1.64,0,0,1,.23-.48l0-.06.06-.1c.29-.44.44-.61.4-.83h0a.11.11,0,0,1,.16-.11l.06,0,.07,0,0,0,0,0,0,0,.07.05.07.05s0,0,0,0l0,0,0,.06v0a0,0,0,0,0,0,0v.05a.08.08,0,0,1,0,0v.21l.12-.06,0,0h0l0,0,0,0v0a.19.19,0,0,0,.06-.07c.07-.14.09.52,0,.59s.23,0,.51-.21l0,0a.75.75,0,0,0,.16-.15l.05-.05,0-.07a.24.24,0,0,0,.05.27A.05.05,0,0,0,17.74,29.92Z"/>
          <path class="cls-2" d="M15.07,31.25h0a.82.82,0,0,1-.54-.6h0c-.13-.36-.11-.73,0-.62l0,0h0A1.77,1.77,0,0,0,15.07,31.25Z"/>
          <path class="cls-2" d="M16.54,29.65v.07a1,1,0,0,1-.18-.34c-.05-.18-.23-.27-.46-.3a.1.1,0,0,1,.13,0l.06,0,.07,0,0,0,0,0,0,0,.07.05.07.05s0,0,0,0l0,0,0,.06v0a0,0,0,0,0,0,0v.05a.08.08,0,0,1,0,0v.09Z"/>
          <path class="cls-2" d="M17.74,29.92l0,0a.47.47,0,0,1-.15-.16c-.28.21-.73.52-.8.47s.07-.5,0-.54-.1.05-.18,0l.07,0,0,0h0l0,0,0,0v0a.19.19,0,0,0,.06-.07c.07-.14.09.52,0,.59s.23,0,.51-.21l0,0a1.07,1.07,0,0,0,.16-.14h0l.05-.05,0-.07a.19.19,0,0,0,0,.13.37.37,0,0,0,.07.14A.05.05,0,0,0,17.74,29.92Z"/>
          <path class="cls-17" d="M15.14,30.54c0-.09.14-.23.24-.38a1.64,1.64,0,0,0-.23.48v0h0v-.14Z"/>
          <path class="cls-16" d="M16.53,29.6a.11.11,0,0,0,.16.09l-.15.08S16.54,29.69,16.53,29.6Z"/>
          <path class="cls-16" d="M17.54,35.89a1.34,1.34,0,0,0-.08-.57,6.45,6.45,0,0,0-.7-1.15h0l0,0v0s0,0,0,0l-.86-.91a.58.58,0,0,1-.15-.29.62.62,0,0,1,0-.4h0v0l0-.14a1.67,1.67,0,0,0,.69.43,4.92,4.92,0,0,0,.45-.38.12.12,0,0,0,0,.14l.52.83.13,2.33,0,.07Z"/>
          <path class="cls-2" d="M17.11,34.44c0,.12.17.47.3.78a6,6,0,0,0-.65-1h0l0,0v0s0,0,0,0l-.86-.91a.58.58,0,0,1-.15-.29.61.61,0,0,1,0-.3,1.78,1.78,0,0,0,.34.63A10.22,10.22,0,0,1,17.11,34.44Z"/>
          <path class="cls-16" d="M17.55,35.89l-.07-.12,0-.07v-.28a.14.14,0,0,0,0,.07A1.85,1.85,0,0,1,17.55,35.89Z"/>
          <path class="cls-13" d="M17.76,33.83a2.23,2.23,0,0,1-.24-.16l0,2.22-.87-1.69A.76.76,0,0,0,16.5,34c-.24-.13-.43.81-.43.81s-.66-1.29-.8-1.63.31-.6.47-.71a.62.62,0,0,0,0,.4.45.45,0,0,0,.12.27l.92,1,0,0h0a8.92,8.92,0,0,1,.74,1.24l-.09-1.75a1.15,1.15,0,0,0-.18-.52c-.12-.2-.29-.46-.37-.6a6.87,6.87,0,0,1,.66.71C17.78,33.54,17.81,33.83,17.76,33.83Z"/>
          <path class="cls-15" d="M13.5,50.68l-.3.17c-.45.27-.77-.24-.77-.24h0c-.9-.15-.06-1.36-.06-1.36.13-.65.29-.47.3-.78h0c.6.42.91.06,1.15.13h0c.1.06,0,.38-.15.65s.24.5.3.87S13.79,50.52,13.5,50.68Z"/>
          <path class="cls-15" d="M21.8,50a1,1,0,0,1-.72.36,5,5,0,0,1-.89,0,2.14,2.14,0,0,1-.94-.24c-.11-.13-1.08,0-1.26-.18s0-.36.06-.48a.12.12,0,0,0,0-.14l0,0,0,0c-.4-.19-.14-.46,0-.71s.29-.06.29-.06.05.15.07.25.85-.16,1-.27-.11-.14-.11-.14a.19.19,0,0,1,.16-.07.09.09,0,0,1,.06,0,4.87,4.87,0,0,1,.45.39s0,.12,0,.19a.12.12,0,0,0,.06.16c.24.1.19.23.34.3a6,6,0,0,1,1.27.35l0,0,.17.1A.13.13,0,0,1,21.8,50Z"/>
          <path class="cls-14" d="M19,50.12c-.33,0-.89,0-1-.12s0-.36.06-.48v0A2.34,2.34,0,0,1,19,50.12Z"/>
          <path class="cls-14" d="M19.88,48.93a0,0,0,0,0,0,0,11.32,11.32,0,0,1-1.69.16c-.17,0-.25-.17-.28-.34a1.63,1.63,0,0,0,.11-.17c.16-.25.29-.06.29-.06s.05.15.07.25.85-.16,1-.27-.11-.14-.11-.14a.19.19,0,0,1,.16-.07.09.09,0,0,1,.06,0,4.87,4.87,0,0,1,.45.39S19.91,48.86,19.88,48.93Z"/>
          <path class="cls-20" d="M15.58,37.58c.05,0,2.76.56,2.8.54"/>
          <path class="cls-21" d="M15.84,37.62c.81.17,2.51.51,2.54.5"/>
          <path class="cls-22" d="M13.5,50.68l-.3.17c-.45.27-.77-.24-.77-.24h0a.56.56,0,0,1,1.12.07Z"/>
          <path class="cls-22" d="M21.8,50a1,1,0,0,1-.72.36.82.82,0,0,1,.5-.63l.17.1A.13.13,0,0,1,21.8,50Z"/>
        </g>
      </g>
      <g>
        <g>
          <path class="cls-23" d="M49.9,6.76l0,0c-.44-.68-.33-1.16-.69-1.38l-.11-.07a2.71,2.71,0,0,0-1.69-.43,2.88,2.88,0,0,0-.37.2h0l-.21.14-.05,0c-.1.06-.2.14-.3.21h0c-.45.58-.69.89-.76,1a2.4,2.4,0,0,0-.13,2.08L45,9.88a.58.58,0,0,0,.11.46c.29.4.7,1.12.49,1.47S45.08,13,45.46,13s1.42-.18,1.42-.18l1.92.36c.2.05.43.09.52,0s-.13-2.43.1-2.8a6.91,6.91,0,0,0,.83-2A2.56,2.56,0,0,0,49.9,6.76Zm-.63.46-.21.12-.05,0h0l-.67.18L48.1,9.19l.3,1.49,0,.64-.4-2,0-.63L47.47,7.6l-.72-1.71-.09-.23L47,5.51a3.08,3.08,0,0,1,.78-.16H48a.92.92,0,0,1,.37.09c.59.31.35,1.08.63,1.26l0,0A.49.49,0,0,1,49.27,7.22Z"/>
          <path class="cls-24" d="M46.49,13.53a.27.27,0,0,1-.28-.09l.12-.09S46.37,13.54,46.49,13.53Z"/>
          <path class="cls-25" d="M45.06,19.45s0-.12.12-.27C45.11,19.34,45.07,19.44,45.06,19.45Z"/>
          <path class="cls-25" d="M45.18,19.18c.08-.15.17-.36.29-.58a1,1,0,0,1-.12.34Z"/>
          <path class="cls-25" d="M46.6,16.92a.64.64,0,0,0-.26.21,8,8,0,0,0-.74,1.22l-.12.25a2.51,2.51,0,0,0,0-.27,13.89,13.89,0,0,1,.2-1.5v0l.65-.85S47.08,16.73,46.6,16.92Z"/>
          <path class="cls-26" d="M53.77,9.23c-.08.17-.17-.1-.17-.1a.45.45,0,0,1-.17.28c-.08,0-.07-.07,0-.16s.06-.08,0-.1-.3.16-.31.23.08,0,0-.05-.06.25-.06.25a16,16,0,0,1-.73,1.65,1.08,1.08,0,0,1-1.45.58c-.28,0-1.55-.93-1.68-.93s-.06.08-.06.08l-2.79-.65s.31.57-.81,1.33-1.12.38-1.48,0a9.29,9.29,0,0,1-.77-2.44c0-.11,0-.94,0-.94s1,0,.92-.18-.17,0-.23,0-.2-.06-.24,0-.16,0-.35,0,0-.22,0-.27a3.09,3.09,0,0,1,.86,0c.11,0,.14.62.14.62a3.08,3.08,0,0,0-.33.86,8.29,8.29,0,0,0,.83,1.19A1.33,1.33,0,0,1,45.3,10a5.46,5.46,0,0,0,.76-.72A.7.7,0,0,1,46.59,9a5.1,5.1,0,0,1,.79,0V8.39c-.24,0-.54-.36-.78-.66s-.28-.18-.15-1.23.37-1.06.37-1.06c.63-.27,1.85-.24,1.89.25a2.11,2.11,0,0,0,.47,1,.36.36,0,0,1,.49.34c.06.43-.47.46-.59.46s0,0,0,0h0a2.42,2.42,0,0,1-.19.37,1,1,0,0,1-.23.24c0,.32,0,.74,0,.81a1.07,1.07,0,0,0,.12.26,8.33,8.33,0,0,0,.89.17c.52.14.49.61.69.64a3.51,3.51,0,0,1,.81.61l1.18-1.48a.56.56,0,0,1,.46-.55,1.4,1.4,0,0,1,.94.34c.07,0,.21.3.26.38S53.85,9.07,53.77,9.23Z"/>
          <path class="cls-26" d="M49.67,7c.06.43-.47.46-.59.46s0,0,0,0h0a2.42,2.42,0,0,1-.19.37,1,1,0,0,1-.23.24c0,.16,0,.34,0,.5s0,.27,0,.31a.58.58,0,0,0,.05.14l-1.33-.16V8.39c-.24,0-.54-.36-.78-.66s-.28-.18-.15-1.23.37-1.06.37-1.06c.63-.27,1.85-.24,1.89.25a2.11,2.11,0,0,0,.47,1A.36.36,0,0,1,49.67,7Z"/>
          <path class="cls-27" d="M43.39,9.56,44.87,12h0c-.45.17-.52-.11-.78-.38a7.28,7.28,0,0,1-.68-2h0Z"/>
          <path class="cls-27" d="M46.69,9h0L46,9.35h0v0A.7.7,0,0,1,46.59,9Z"/>
          <path class="cls-26" d="M48.75,5.9v0c-.55-.16-1.32-.42-1.71-.56h0c.66-.17,1.61-.1,1.65.33a1.55,1.55,0,0,0,0,.21Z"/>
          <path class="cls-26" d="M49.64,7.22h0s0,0,0,.06a6.75,6.75,0,0,1-.34-.62h0c.13,0,.33,0,.38.36A.35.35,0,0,1,49.64,7.22Z"/>
          <path class="cls-26" d="M53.12,9.38a.09.09,0,0,1,0-.05C53.2,9.38,53.05,9.44,53.12,9.38Z"/>
          <path class="cls-27" d="M48.75,5.9v0c-.55-.16-1.32-.42-1.71-.56h0c.66-.17,1.61-.1,1.65.33a1.55,1.55,0,0,0,0,.21Z"/>
          <path class="cls-27" d="M49.64,7.22h0s0,0,0,.06a6.75,6.75,0,0,1-.34-.62h0c.13,0,.33,0,.38.36A.35.35,0,0,1,49.64,7.22Z"/>
          <path class="cls-26" d="M46,11.65a7.6,7.6,0,0,1,.24,1.07c0,.15.14,1,.14,1l2.29-.41c.09,0,0-.75,0-1s-.91-.54-.91-.54Z"/>
          <path class="cls-26" d="M45.71,21s-.27,2.61-.34,2.85a1.48,1.48,0,0,1-.68.85c-.35.15-.92.53-1,.57s-.3,0-.3.11.07.13.24.13S45,25.42,45,25.4s1.36.08,1.36-.19a3.88,3.88,0,0,1,0-1.13,5.41,5.41,0,0,0,.88-2.54c-.11-1-.46-1-.52-1s-.9.61-1,.55Z"/>
          <path class="cls-28" d="M43.68,25.28l.48-.28a3.19,3.19,0,0,1-.59.52c-.14,0-.19-.06-.19-.13S43.58,25.32,43.68,25.28Z"/>
          <path class="cls-29" d="M47.12,22.48c-.13-.64-.32-1.39-.45-1.92,0,0,0,0,0,0s.41,0,.52,1A2.62,2.62,0,0,1,47.12,22.48Z"/>
          <path class="cls-26" d="M49.64,20.28s.57,1.38.57,1.42a5.73,5.73,0,0,0,.41,1.72,5,5,0,0,1,.83,2.1s-.15.35,0,.47a1,1,0,0,1,.22.52s-.09.41.21.35.25-.15.25-.15,0,.12.25.16a.74.74,0,0,0,.34,0c.09,0,.23,0,.31-.06l.06,0a.18.18,0,0,0,.07-.23,6.71,6.71,0,0,0-.62-1s-.43-2.27-.51-3.12a19.46,19.46,0,0,0-1.49-3.54Z"/>
          <path class="cls-29" d="M50.53,22.94s0,.11,0,.16a6.29,6.29,0,0,1-.28-1.4s-.57-1.42-.57-1.42l.07-.11A3.6,3.6,0,0,1,50.53,22.94Z"/>
          <path class="cls-30" d="M49.16,11s0,.16-.09.34,0,.12,0,.17a1.62,1.62,0,0,0,0,.18c0,.12-.08.12-.13.12s-.05,0-.06,0a5.17,5.17,0,0,0-.09.58c0,.17,0,.3,0,.3a23.06,23.06,0,0,0-2.63,0s0-.1,0-.27a5.29,5.29,0,0,0-.12-.81,3.06,3.06,0,0,0-.1-.38l0-.12a.68.68,0,0,1,0-.14,1.53,1.53,0,0,1,.34-1.07,8.1,8.1,0,0,1,1.74.15A3.75,3.75,0,0,1,49.16,11Z"/>
          <path class="cls-31" d="M45.88,10.31a1.7,1.7,0,0,1,.25-.42,9.21,9.21,0,0,1,1.55.1A3.83,3.83,0,0,0,45.88,10.31Z"/>
          <path class="cls-31" d="M48.74,12.34v0c0,.17,0,.3,0,.3a7.17,7.17,0,0,0-1.41,0A5.8,5.8,0,0,0,48.74,12.34Z"/>
          <path class="cls-30" d="M45.44,15.79c0,.06,0,.12,0,.17l0,0A.25.25,0,0,1,45.44,15.79Z"/>
          <path class="cls-30" d="M45.44,15.79c0,.06,0,.12,0,.17l0,0A.25.25,0,0,1,45.44,15.79Z"/>
          <path class="cls-32" d="M45.79,11a16,16,0,0,1,1.93-.36,2.07,2.07,0,0,1,1.35.7"/>
          <path class="cls-32" d="M45.81,11.1a8.86,8.86,0,0,1,2-.3,2.6,2.6,0,0,1,1.23.67"/>
          <path class="cls-33" d="M49.07,11.3A2.58,2.58,0,0,0,48,10.61h-.1"/>
          <path class="cls-34" d="M47.39,10.83h-.11a7.56,7.56,0,0,0-1.47.26"/>
          <path class="cls-35" d="M51.61,20.47l-.12,0c-.26.07-.74.18-1.31.3l-.22.05c-.56.11-1.19.23-1.79.32l-.29,0a7.53,7.53,0,0,1-1.72.07c-1.52-.18-1.94-1.35-1.58-1.61a7.32,7.32,0,0,0,1-1.53c0,.05.52-1,.52-1l.31-.59,0,0,4.44,1.32.51,1.55v0h0l.07.3.05.22,0,.17,0,.17Z"/>
          <path class="cls-36" d="M48.88,11.76h0s-.05,0-.06,0a5.17,5.17,0,0,0-.09.58,4.61,4.61,0,0,0-1.67-.05,4.59,4.59,0,0,1-1,.08,5.29,5.29,0,0,0-.12-.81A5.28,5.28,0,0,1,48.88,11.76Z"/>
          <polygon class="cls-30" points="46.98 11.63 46.81 11.69 46.72 11.85 46.75 12.04 46.89 12.15 47.08 12.15 47.22 12.04 47.25 11.85 47.16 11.69 46.98 11.63"/>
          <polygon class="cls-30" points="47.85 11.66 47.7 11.71 47.6 11.84 47.62 12 47.73 12.11 47.89 12.13 48.02 12.03 48.06 11.88 48 11.73 47.85 11.66"/>
          <polygon class="cls-30" points="46.24 11.77 46.1 11.84 46.03 11.99 46.08 12.14 46.21 12.23 46.37 12.21 46.48 12.1 46.49 11.94 46.4 11.81 46.24 11.77"/>
          <polygon class="cls-30" points="48.53 11.8 48.39 11.83 48.31 11.95 48.33 12.08 48.42 12.18 48.56 12.19 48.67 12.12 48.71 11.98 48.65 11.86 48.53 11.8"/>
          <path class="cls-36" d="M46.49,11.94v.16l-.11.11-.16,0,0,0a.48.48,0,0,0,.15-.41l.08,0Z"/>
          <path class="cls-36" d="M47.25,11.85l0,.18-.14.12h-.14a1.26,1.26,0,0,0,.18-.47h0Z"/>
          <path class="cls-36" d="M48.06,11.88,48,12l-.13.1-.12,0a.91.91,0,0,0,.28-.27Z"/>
          <path class="cls-37" d="M48.88,11.76h0s-.05,0-.06,0a5.17,5.17,0,0,0-.09.58,7.61,7.61,0,0,0-.95-.11,3,3,0,0,0,.54-.2h0l.09.1h.07A.65.65,0,0,0,48.7,12v0l-.05-.11.15-.14h0Z"/>
          <path class="cls-38" d="M47.25,11.85l0,.18-.14.12h-.14a1.26,1.26,0,0,0,.18-.47h0Z"/>
          <path class="cls-39" d="M48.06,11.88,48,12l-.13.1-.12,0a.91.91,0,0,0,.28-.27Z"/>
          <path class="cls-38" d="M46.49,11.94v.16l-.11.11-.16,0,0,0a.48.48,0,0,0,.15-.41l.08,0Z"/>
          <path class="cls-38" d="M48.7,12l0,.11-.11.07h-.07A.65.65,0,0,0,48.7,12Z"/>
          <path class="cls-40" d="M51.37,19.48l-.59.16-.06,0-.84.22-.05,0-.11,0-.13,0-.15,0h0l-.09,0-.21.06-.88.23-.23.07-.12,0h0l-.14,0-.07,0-.11,0-.22.05-.23.07h0v0l0-.17c0-.09,0-.22-.07-.38s0-.17,0-.27c-.12-.69-.3-1.7-.42-2.47v0a.15.15,0,0,0,0-.07v0l0-.12c0-.2-.06-.38-.08-.53a3.61,3.61,0,0,1,0-.39,3.89,3.89,0,0,0-.66.8c0,.14.29-1.47.42-2.28a2.18,2.18,0,0,0,0-.43c0-.13,0-.3,0-.44s0-.33,0-.33l.1-.05h0a.58.58,0,0,0,.28.09A3.36,3.36,0,0,0,48.7,13s.09.21.16.35a.34.34,0,0,0,.08.12l.65.64,0,0s.57,1.1.77,1.54a2.47,2.47,0,0,1,.13.39c0,.05,0,.1.05.16h0l0,.07,0,.07,0,.1,0,.06v.05l0,.06v0l.06.23.15.59.33,1.41v0c0,.2.08.37.11.47v.07h0Z"/>
          <path class="cls-41" d="M48.49,13.09a7.61,7.61,0,0,1-2.43,1.85,1.5,1.5,0,0,1,0-.24,2.18,2.18,0,0,0,0-.43c0-.13,0-.3,0-.44s0-.33,0-.33l.1-.05h0a.58.58,0,0,0,.28.09A3.43,3.43,0,0,0,48.49,13.09Z"/>
          <path class="cls-42" d="M51.37,19.48l-.59.16-.06,0-.55.15-.29.07-.05,0-.11,0-.13,0-.08,0h0a1.93,1.93,0,0,0,.75-1.53,22.15,22.15,0,0,0-.45-4c.18.36.46.91.59,1.19a2.47,2.47,0,0,1,.13.39c0,.05,0,.1.05.16h0l0,.07,0,.07,0,.1,0,.06v.05l0,.06v0l.06.23.15.59c.09.37.17.75.25,1.08,0,.12.05.23.08.33v0c0,.2.08.37.11.47v.07h0Z"/>
          <path class="cls-30" d="M49.59,14.06A2.5,2.5,0,0,1,47,15.22a2.35,2.35,0,0,1-.91-.49l-.21,1.19s-.13.21-.19.23S45.49,16,45.4,16s0-.11,0-.17a1.7,1.7,0,0,0,.15-.22c0-.12.32-.72.49-1.18a5.65,5.65,0,0,0-.42.63c0,.08-.14.47-.22.77a.25.25,0,0,0-.09.13l0,0c0,.12,0,.2,0,.21a3,3,0,0,1-.55-.34,14.62,14.62,0,0,1,1.32-1.73,2.65,2.65,0,0,1,0-.27,3,3,0,0,0,2.75-.53.34.34,0,0,0,.08.12Z"/>
          <path class="cls-43" d="M49.59,14.06a2.43,2.43,0,0,1-2.33,1.17,5.76,5.76,0,0,0,1.92-1.57Z"/>
          <path class="cls-31" d="M45.36,16.17a3,3,0,0,1-.55-.34,4.29,4.29,0,0,1,.6-.85A2.16,2.16,0,0,0,45.36,16.17Z"/>
          <path class="cls-31" d="M46,14.7a2.56,2.56,0,0,1-.24,1.45h0S45.49,16,45.4,16s0-.11,0-.17a1.7,1.7,0,0,0,.15-.22C45.62,15.47,45.8,15.09,46,14.7Z"/>
          <path class="cls-44" d="M46.11,13.83a2.76,2.76,0,0,0,.37.08l-.36.1A1.21,1.21,0,0,1,46.11,13.83Z"/>
          <path class="cls-31" d="M49.59,14.06A2.5,2.5,0,0,1,47,15.22h0a2.6,2.6,0,0,0,2.39-1.34Z"/>
          <path class="cls-45" d="M48.42,17.45,48,17.22h-.44l-.37.26-.17.41.08.44.3.32.43.12.42-.14.28-.35,0-.44Zm-.2.69-.15.19-.23.07-.23-.06-.16-.17,0-.24.09-.21.2-.14h.23l.21.13.1.21Z"/>
          <path class="cls-46" d="M46.08,17.16c-.14.28-.33.63-.52,1A10.79,10.79,0,0,1,45.69,17h.15Z"/>
          <path class="cls-45" d="M50.61,17.22,50.29,17l-.41,0-.37.18-.21.36v.41l.23.34.38.16.41-.07.31-.29.1-.4Zm-.21.58-.15.18-.23.07L49.79,18l-.16-.17,0-.23.09-.22.2-.14h.23l.21.13.1.21Z"/>
          <path class="cls-46" d="M47.53,17l.14.12-.11.14-.15-.12Zm-.2.2.15.12-.12.14-.14-.12Zm-.51.18.12-.14.14.11-.12.15Zm.2.16.12-.14.14.12-.12.14Zm.34.29-.14-.12.11-.14.15.12Zm.21-.19-.14-.12.12-.15.14.12Zm.19-.21-.15-.11.12-.15.14.12Zm1.36-.79.18.07-.08.17-.17-.07Zm-.12.25.18.07-.08.17L48.93,17Zm-.08,0-.07.17-.17-.07.07-.17Zm-.41-.17.18.07-.08.17-.17-.07Zm-.2.42.07-.18.17.08-.07.17Zm.24.1.07-.18.17.08-.07.17Zm.41.18-.17-.08.07-.17.17.07Zm.26.1-.17-.07.07-.18.17.08Zm.15-.24-.17-.08.07-.17.17.07Zm.12-.25-.17-.07.07-.18.17.08Zm.86-.66.14.11-.11.15-.15-.11Zm-.5.2.11-.15.15.11L50,16.6Zm.22.17.11-.15.15.11-.11.15Zm.22.17.11-.15.15.12-.11.14Zm.23.17.11-.15.15.11-.11.15Zm.24-.14-.06-.23v0l-.09.12-.15-.11.11-.15.11.08V16.5l0-.06s0-.07,0-.1l0-.07,0-.07,0,0a5.91,5.91,0,0,0-1.63.33l.12,0-.08.17-.17-.07,0-.12c-.59.16-1.22.35-1.68.49l.1.08-.12.15L47,17.14l.07-.08c-.26.08-.49.14-.6.16v0a.15.15,0,0,1,0,.07l1,.78.8-.83,1.13.41.36-1,1.16.8Z"/>
          <path class="cls-46" d="M51.61,20.47l0-.16,0,.05-.16-.1.12-.15.05,0,0-.17,0,0-.17-.1.12-.15h0l-.07-.3h0a10.47,10.47,0,0,0-1.73.34l.13,0-.05.1,0,.07-.1,0-.09,0,.06-.12-1.85.48.11.08-.09.09,0,.05,0,0-.12-.09.07-.08-.57.14,0,.17,0,0,.78.57.14.1.15-.14.72-.67,1.07.35.17.06,0-.11.34-.88,1,.58.15.1Zm-.39-.65-.17-.1.12-.15.17.11Zm-1.38.05h0l.15.06L50,20.1,49.76,20l.07-.13Zm-.13.24.19.07-.08.16-.19-.07ZM49.43,20h0l.18.07-.08.17-.18-.07.07-.17Zm-.26-.09.19.07,0,.05-.06.11-.15-.05,0,0Zm-1.07.31.15.1h0l-.13.14L48,20.39l-.05,0Zm-.21.19h0l.14.1-.13.14-.15-.11.11-.12Zm-.57.17h0l.12-.13.1.08.06,0-.13.14Zm.22.16.13-.14.16.12-.13.14Zm.22.17.13-.14.15.11-.13.14Zm.38-.08L48,20.72l.13-.14.15.11Zm.21-.19-.16-.12.13-.14.15.12Zm.6-.33.08-.17.18.07-.07.17Zm.26.1.08-.17.18.07-.07.17Zm.45.17-.19-.07.08-.16.19.06Zm.29.1-.19-.07.08-.17.18.07Zm.16-.24-.19-.06.08-.17.19.07Zm.13-.23-.18-.07.07-.17.19.07Zm.39-.44.09-.11,0,0,0,0,.13.09-.12.14Zm.24.16.13-.15.16.11L51,20Zm.25.16.12-.14.16.11-.12.14Z"/>
          <path class="cls-46" d="M51.24,18.89l-.07-.06-.12-.1-.13.32-.26-.21-.22.32-.56-.09-.25.37L49,19.32l-.28.39-.57-.13-.29.36-.63-.17-.27.3c0-.08,0-.17,0-.27l.31-.27.51.15.34-.35.55.11.32-.31.51.05.34-.32.63.06.21-.29.27.22.14-.35,0,0,.16.39Z"/>
          <path class="cls-46" d="M50.59,16.2l-4.08,1.13v0a.15.15,0,0,0,0-.07v0l0-.12A41.23,41.23,0,0,1,50.54,16c0,.05,0,.1.05.16Z"/>
          <polyline class="cls-47" points="51.36 19.43 51.37 19.44 51.37 19.45 51.44 19.75 51.49 19.97 51.53 20.14 51.57 20.31 51.61 20.48 51.64 20.6 51.67 20.74"/>
          <path class="cls-48" d="M55.26,9.82l-1.37-.17-1.82-.21L48.71,9l-1.33-.16-3-.37-1.1-.14a6.71,6.71,0,0,1-.71-.1,5.45,5.45,0,0,0-1,.65c-.32.23-.49.19-.49.19H39.29V6.33l1.92.07c.7,0,1.39,1.23,1.39,1.23a3.56,3.56,0,0,0,1,.22l.78.13c1,.16,2.26.33,3,.44l.79.1.48.06L52.36,9l1.53.17H54l1.46,0a.35.35,0,0,1,.32.4C55.69,9.91,55.26,9.82,55.26,9.82Z"/>
          <path class="cls-49" d="M41.68,6.54a5.88,5.88,0,0,0-2.39.68V6.33l1.92.07A.83.83,0,0,1,41.68,6.54Z"/>
          <path class="cls-50" d="M39.29,8.91c2.21-.45,3-.59,3.23-.62-.18.09-.61.43-.88.62s-.49.19-.49.19H39.29Z"/>
          <path class="cls-48" d="M42.66,8.28h0Z"/>
          <path class="cls-50" d="M55.73,9.52c0,.39-.47.3-.47.3l-.34,0a1.91,1.91,0,0,0,.56-.65A.36.36,0,0,1,55.73,9.52Z"/>
          <path class="cls-26" d="M44.34,8a3.35,3.35,0,0,1,.07.52h0l-1.1-.14h0s1.1.26.92-.28c0-.16-.17,0-.23,0s-.2-.06-.24,0-.16,0-.35,0,0-.22,0-.27.07,0,.15,0a6.24,6.24,0,0,1,.71,0S44.32,7.92,44.34,8Z"/>
          <path class="cls-26" d="M53.89,9.65c-.93-.08-1.16,0-1.12-.59L52.36,9h0a.53.53,0,0,1,.45-.45,1.4,1.4,0,0,1,.94.34.88.88,0,0,1,.2.28.37.37,0,0,1,.06.1C54.05,9.31,54,9.49,53.89,9.65Z"/>
          <path class="cls-51" d="M49,6.85C49,7,49,7,49,7.2a.78.78,0,0,0,0,.14c0,.28.16.68.17.74S49,7.54,49,7.37a1.41,1.41,0,0,0-.23-.58c-.16-.28,0-.7-.29-1.11-.08-.13-.11-.1-.34-.19a.91.91,0,0,0-.31-.14,1.83,1.83,0,0,0-.61,0h0L47,5.51l-.18.23-.11.15a1.42,1.42,0,0,0-.21.57,2.1,2.1,0,0,1,0,.26l-.08-.13a2.46,2.46,0,0,0-.1,1.15,12,12,0,0,1,.4,1.16,1,1,0,0,1,.06.51l0,.12a2.26,2.26,0,0,0-.23.69,1.25,1.25,0,0,1,0-.81,1.61,1.61,0,0,0-.19-1.14c-.09-.21-.35-.57-.22-.95s0-1.59.65-2.1l.05,0L47,5.05h0a2.88,2.88,0,0,1,.37-.2,2.71,2.71,0,0,1,1.69.43l.11.07c.36.22.25.7.69,1.38a1.34,1.34,0,0,0-.84,0S48.94,6.81,49,6.85Z"/>
        </g>
        <g>
          <path class="cls-52" d="M40.54,22.28l-.49.21,0,0a1,1,0,0,1-.16-.34c-.05-.2-.08-.46-.13-.83h0a2.17,2.17,0,0,0-.63-1.15h.15c.16,0,.37,0,.6,0h.08a3.7,3.7,0,0,0,1.14-.08c.34-.15.49-.7.52-.6a3.1,3.1,0,0,1,0,.45h0a1.16,1.16,0,0,0,0,.13C41.85,21,41.1,21.86,40.54,22.28Z"/>
          <path class="cls-52" d="M37.33,19.59a1.11,1.11,0,0,0-.42.11,1.85,1.85,0,0,0-.75.65,2.09,2.09,0,0,1-.24.31h0a1.57,1.57,0,0,1-.51.43.25.25,0,0,1-.1,0,1.37,1.37,0,0,1-.17-.17c-.59-.78,0-2.3-.06-2.61a2.5,2.5,0,0,0-.19-.52.18.18,0,0,1,0-.06s0,0,.12.09a8,8,0,0,0,1.41,1.05,2.75,2.75,0,0,1,.54.32A2.85,2.85,0,0,1,37.33,19.59Z"/>
          <path class="cls-52" d="M39.82,26s0,0-.06-.06,0-.07,0-.11-.75-.29-.83-.3h0l.06.27-.68.12-.06-.2-.06-.17-.88,0h0a1.67,1.67,0,0,0,0,.24h0v0l-.11.19-.74-.18h0s.18-.14.16-.19h0a5.42,5.42,0,0,0-.73.22l-.15.05c0,.12-.29,0-.38.06s-.41-.21-.44-.28h0c0-.08.6-.34.6-.34a1.81,1.81,0,0,1,.35-.78c.07-.12.37-.25.38-.4s.07-1.21.12-1.3a.86.86,0,0,0-.05-.35,2.77,2.77,0,0,0,2.58.54l.49-.15c0-.05.07-.14.06-.09a5.1,5.1,0,0,0-.08,1.26,2.9,2.9,0,0,1,.6.41c.13.17,0,.61,0,.61s.57.37.57.37l0,.06v0l.25.11,0,.09,0,.13C40.73,26,39.82,26,39.82,26Z"/>
          <path class="cls-53" d="M37.33,19.59l-.42.11h0a5.81,5.81,0,0,0-1-.8,6.4,6.4,0,0,1-.95-1,8,8,0,0,0,1.41,1.05,2.75,2.75,0,0,1,.54.32A2.85,2.85,0,0,1,37.33,19.59Z"/>
          <path class="cls-54" d="M35.92,20.66h0l-.25.26a1.3,1.3,0,0,1-.26.17.25.25,0,0,1-.1,0,1.37,1.37,0,0,1-.17-.17c-.59-.78,0-2.3-.06-2.61a2.5,2.5,0,0,0-.19-.52,4.25,4.25,0,0,1,.62.8c0,.17.4.9.5,1.12A1.31,1.31,0,0,1,35.92,20.66Z"/>
          <path class="cls-54" d="M41.54,21a3.14,3.14,0,0,1-1,1.29l-.53.22c-.06-.09-.14-.1-.2-.26l0,0h0l0,0s0,0,0-.06l0-.38-.05-.43a.15.15,0,0,0,0-.06s.48-.18,1.16-.48a1.27,1.27,0,0,0,.72-.83,1.16,1.16,0,0,0,0,.13A1.46,1.46,0,0,1,41.54,21Z"/>
          <path class="cls-55" d="M35.07,20.88c-.42-.69-.09-1.84,0-2.34a5.82,5.82,0,0,0,.51,1.16C35.79,20,35.43,20.66,35.07,20.88Z"/>
          <path class="cls-55" d="M41.54,21a3.14,3.14,0,0,1-1,1.29l-.53.22c-.06-.09-.14-.1-.2-.26l0,0h0l0,0s0,0,0-.06l0-.38a7.77,7.77,0,0,0,.82-.34c.35-.13.81-.18.93-.55A.5.5,0,0,1,41.54,21Z"/>
          <path class="cls-53" d="M40.56,20.38l-.26.05a.13.13,0,0,0-.1.16v0a.13.13,0,0,0,.15.09.61.61,0,0,0,.29-.12.09.09,0,0,0,.06-.09A.12.12,0,0,0,40.56,20.38Z"/>
          <path class="cls-53" d="M36.89,23.38s-.25,0-.29-.06-.06.6,0,.66.22-.06.3,0a1.36,1.36,0,0,1,.46.6c.1.3-.22-.74-.28-.93A.44.44,0,0,0,36.89,23.38Z"/>
          <path class="cls-53" d="M38.89,24.06s-.6.38-.57.55.14.52.14.52a5.71,5.71,0,0,0,.43-.49C39,24.5,38.89,24.06,38.89,24.06Z"/>
          <path class="cls-53" d="M39.35,22.83l-.75,1.09-.21.24c.13-.3-.23-.89-.25-1a3.47,3.47,0,0,0,.6-.11l.49-.16h0Z"/>
          <path class="cls-56" d="M37.21,25.78v0a1.67,1.67,0,0,1,0-.24h0c.06-.25.16-.58.18-.7a5,5,0,0,0-.4-1"/>
          <path class="cls-56" d="M38.6,23.92l-.21.24a3,3,0,0,0-.38.5,7.19,7.19,0,0,0,.19,1.06"/>
          <path class="cls-52" d="M40,22.51s-.09.12-.67.33l-.55.35s-.66-.05-.68-.05a2.81,2.81,0,0,1-2-.65L36,22.36a1.7,1.7,0,0,1-.69-1.22s.36-.05.86-.79a1.61,1.61,0,0,1,1.17-.76,3.62,3.62,0,0,0,1-.42v.23l.15-.27,0,.38.08-.37,0,.23a1.36,1.36,0,0,1,.09-.24l0,.21a1.08,1.08,0,0,0,.33.84h0a2.14,2.14,0,0,1,.63,1.11v.05A2.45,2.45,0,0,0,40,22.51Z"/>
          <path class="cls-53" d="M38.57,19.6s-.28.65-.21.72.57,0,.53-.06l-.07-.11s.11,0,.08-.08a2.18,2.18,0,0,1-.27-.24S38.57,19.6,38.57,19.6Z"/>
          <path class="cls-53" d="M37.73,20.5a1.23,1.23,0,0,0-.57.08c-.16.12-.64.77-.48.86s.7.15.88-.09S37.9,20.59,37.73,20.5Z"/>
          <path class="cls-54" d="M38.11,21.61a.17.17,0,0,0-.15-.09c-.12,0-.69.15-.71.15s-.63,0-.68.34a.45.45,0,0,0,.3.46,1.08,1.08,0,0,0,.75,0,.72.72,0,0,0,.43.33c.33.1.81,0,.75-.38s-.54-.55-.69-.81"/>
          <path class="cls-57" d="M38,21.53l-.23.06a.89.89,0,0,1-.35,0,4.4,4.4,0,0,1,.51-.1Z"/>
          <ellipse class="cls-58" cx="37.15" cy="21.92" rx="0.22" ry="0.1" transform="translate(-4.62 32.69) rotate(-45)"/>
          <ellipse class="cls-58" cx="38.27" cy="22.15" rx="0.1" ry="0.22" transform="translate(-5.95 22.1) rotate(-30)"/>
          <path class="cls-59" d="M36.79,21.77a.52.52,0,0,0,0,.65.42.42,0,0,1-.2-.41A.33.33,0,0,1,36.79,21.77Z"/>
          <path class="cls-54" d="M37.32,21.78a.29.29,0,0,1-.1.21c-.09.09-.19.13-.23.09s0-.14.09-.23.19-.12.22-.08Z"/>
          <path class="cls-54" d="M38.18,22.2c0-.1-.06-.19,0-.23h0c.05,0,.13,0,.19.14s.08.21,0,.24a.14.14,0,0,1-.12-.05Z"/>
          <path class="cls-59" d="M38.17,22.83c.52-.14.56-.45.54-.62a.5.5,0,0,1,.09.21C38.85,22.74,38.49,22.87,38.17,22.83Z"/>
          <path class="cls-58" d="M37.22,22c-.09.09-.19.13-.23.09s0-.14.09-.23.19-.12.22-.08h0A.29.29,0,0,1,37.22,22Z"/>
          <path class="cls-58" d="M38.38,22.34a.14.14,0,0,1-.12-.05l-.08-.09c0-.1-.06-.19,0-.23h0c.05,0,.13,0,.19.14S38.43,22.31,38.38,22.34Z"/>
          <path class="cls-60" d="M38.26,22.29l-.08-.09c0-.1-.06-.19,0-.23A.8.8,0,0,0,38.26,22.29Z"/>
          <path class="cls-53" d="M35.73,25.83l-.15.05c0,.12-.29,0-.38.06s-.41-.21-.44-.28h0c0-.06.32-.2.32-.2l.31.06A.52.52,0,0,1,35.73,25.83Z"/>
          <path class="cls-53" d="M37.21,25.78v0l-.11.19-.74-.18h0s.18-.14.16-.19h0l0,0a2.15,2.15,0,0,1,.34,0A1.44,1.44,0,0,1,37.21,25.78Z"/>
          <path class="cls-53" d="M38.94,25.8l-.68.12-.06-.2.68-.2h0Z"/>
          <path class="cls-53" d="M39.82,26s0,0-.06-.06a3.76,3.76,0,0,1,.68-.44v0l.25.11,0,.09,0,.13C40.73,26,39.82,26,39.82,26Z"/>
          <path class="cls-60" d="M37.22,22a.23.23,0,0,1-.1.07.84.84,0,0,0,.2-.27A.29.29,0,0,1,37.22,22Z"/>
          <path class="cls-56" d="M36.5,25.62h0l0,0c.05,0,.07-.21.07-.3s0-.05,0-.07a3.82,3.82,0,0,0,0-1"/>
          <path class="cls-56" d="M39,24.21s-.15.75-.16,1,0,.34,0,.34"/>
        </g>
      </g>
      <path class="cls-61" d="M82.5,41.5a41,41,0,0,1-62.44,35c-.55-.34-1.1-.7-1.64-1.07h0A41.53,41.53,0,0,1,7.93,65.05,41,41,0,0,1,37.52.7c1.32-.13,2.64-.2,4-.2A40.94,40.94,0,0,1,82.14,36.09,40.29,40.29,0,0,1,82.5,41.5Z"/>
      <g>
        <g>
          <path class="cls-62" d="M50.75,46.56S52,54,59.92,53.7"/>
          <path class="cls-63" d="M51,47.75a2.28,2.28,0,0,0,.55-1.92,2.56,2.56,0,0,0-.67-1.54,2.28,2.28,0,0,0-.56,1.92A2.59,2.59,0,0,0,51,47.75Z"/>
          <path class="cls-63" d="M51.42,50.13a5.32,5.32,0,0,0,.69,0c0-.07.11-.17,0-.22-.84-.67-1-1.3-2.33-1.4a5.35,5.35,0,0,0-.69,0c0,.07-.11.16-.06.22A3,3,0,0,0,51.42,50.13Z"/>
          <path class="cls-63" d="M52.88,50.89a12.32,12.32,0,0,1,.63-3.13,5.33,5.33,0,0,0-.16-2.36c-.6.21-1,1.21-1.15,2.6A10.66,10.66,0,0,0,52.88,50.89Z"/>
          <path class="cls-63" d="M52,51.77a4.23,4.23,0,0,0,1.59-.14A3.22,3.22,0,0,0,51.71,51a4.23,4.23,0,0,0-1.59.14A3.22,3.22,0,0,0,52,51.77Z"/>
          <path class="cls-63" d="M54.82,52.39a4.09,4.09,0,0,0,.17-.86c.07-.88-.14-1.63-.47-1.77a3.56,3.56,0,0,0-.16.86C54.29,51.5,54.49,52.26,54.82,52.39Z"/>
          <path class="cls-63" d="M54.82,52.39a4.09,4.09,0,0,0,.17-.86c.07-.88-.14-1.63-.47-1.77a3.56,3.56,0,0,0-.16.86C54.29,51.5,54.49,52.26,54.82,52.39Z"/>
          <path class="cls-63" d="M51.41,53.11s1.37-.64,1.62-.71a6.55,6.55,0,0,1,1.84.15,2.74,2.74,0,0,1,.82.42,3.77,3.77,0,0,0-1.55.43A3.21,3.21,0,0,1,51.41,53.11Z"/>
          <path class="cls-63" d="M57.75,53.52a1.88,1.88,0,0,1-1.46-1c-.74-1.09-.93-1-.93-1a2.21,2.21,0,0,1,1.88.92,2.83,2.83,0,0,0,1.1,1.19Z"/>
          <path class="cls-63" d="M54.86,53.91a7.32,7.32,0,0,1,1.83-.5c.89-.09.58.07.58.07s-.9.75-1.38.68S54.86,54,54.86,53.91Z"/>
          <path class="cls-64" d="M39.84,36.7l2.74-3.12-3.11-3.37a4.32,4.32,0,0,0-.89,0,.56.56,0,0,0-.43.25,5.91,5.91,0,0,0-.62,1.66.61.61,0,0,1-.11.21,7.65,7.65,0,0,0-1.26,2,1.25,1.25,0,0,0,.14.95Z"/>
          <path class="cls-65" d="M42,37.56c-1,.75-3.85,2.66-6,1.56a3.87,3.87,0,0,1,.19-1.57,1.67,1.67,0,0,1,.67-.86,6.63,6.63,0,0,0,5.29.17l.05.13h0l0,.1,0,.14"/>
          <path class="cls-66" d="M36.52,37.79c-1.75-1.18-.72-2.15-.23-2.5a2.1,2.1,0,0,1,.23-.14l1.54.17c.11.14.2.23.25.23a15.69,15.69,0,0,0,3.89.93h.19a2,2,0,0,0-.08.22c-.05.14-.09.28-.14.42C40.82,37.79,38.11,38.87,36.52,37.79Z"/>
          <path class="cls-67" d="M42.62,35.84l0,0,0,0h0l.15-.25,0-.07L43,35.4l.2-.25,0,0,0,0a.91.91,0,0,1,.32-.3c.12-1.69,0-5.05-2.45-5.3-1-.11-1.49.21-1.66.7a3.28,3.28,0,0,0,.3,2.09h0"/>
          <path class="cls-65" d="M42.36,36.55h-.2a14.4,14.4,0,0,1-3-.6l-.46-.15a2.25,2.25,0,0,1-.51-.2,1.67,1.67,0,0,1-.37-.42c-.1-.14-.2-.29-.29-.44a3.61,3.61,0,0,1-.42-.94c0-.19-.06-.45.18-.5a1.45,1.45,0,0,0,.92-.81,1.82,1.82,0,0,1,.13-.28c.06-.06.28,0,.37,0a3,3,0,0,1,.79.13l.19.06A7.3,7.3,0,0,1,43,35.46h0l-.17.24c-.05.08-.11.17-.15.25v0h0c-.1.18-.19.37-.28.56Z"/>
          <path class="cls-68" d="M42,37.5a1.94,1.94,0,0,0,.17-.42c0-.14.09-.27.13-.4l.09-.22v0a5.6,5.6,0,0,1,.27-.55h0l.15-.24.16-.24.2-.24,0,0a1,1,0,0,1,.31-.29h0c0,.22,0,.46,0,.68,0,.07,0,.27,0,.48h0a1.59,1.59,0,0,0,0,.45h0c0,.11.07.19.13.2s0,0,0,0-.12.07-.12.15a2.15,2.15,0,0,0-1.18.33C42.26,37.25,42.28,37.19,42,37.5Z"/>
          <path class="cls-69" d="M43.16,36.55S48.32,38.2,51,41s3.43,7.61,8.17,13.19"/>
          <path class="cls-70" d="M47.76,36.89a9.74,9.74,0,0,1,2.84,1.36c.18.13.36.26.54.41a8,8,0,0,1,3,5.25,8.18,8.18,0,0,1,.08.89,10,10,0,0,1-.07,1.79"/>
          <path class="cls-71" d="M48.75,37.23a2.24,2.24,0,0,1-2,.41,2.55,2.55,0,0,1-1.48-.8,2.27,2.27,0,0,1,2-.4A2.58,2.58,0,0,1,48.75,37.23Z"/>
          <path class="cls-71" d="M51.21,38.43a.55.55,0,0,1-.06.22h0c-.18-.15-.36-.28-.54-.41a2.55,2.55,0,0,1-.88-2,5.09,5.09,0,0,1,.05-.69c.1,0,.17-.1.26,0a5,5,0,0,1,.88,1.06,2.83,2.83,0,0,1,.3,1.34A3.53,3.53,0,0,1,51.21,38.43Z"/>
          <path class="cls-71" d="M51.83,39.33c-.5.15-1.17,0-1.72.13s-.91.21-1.37.27a5.39,5.39,0,0,1-2.35-.35c-.1,0,.66-.58.71-.61a4.57,4.57,0,0,1,1.42-.31A6.15,6.15,0,0,1,51.83,39.33Z"/>
          <path class="cls-71" d="M52.85,38.53a4.2,4.2,0,0,1-.26,1.57,3.19,3.19,0,0,1-.46-1.91,4.3,4.3,0,0,1,.26-1.58A3.25,3.25,0,0,1,52.85,38.53Z"/>
          <path class="cls-71" d="M53.62,41.66a4.3,4.3,0,0,1-.88,0c-.88-.09-1.58-.43-1.66-.78a4.3,4.3,0,0,1,.88,0C52.84,41,53.54,41.31,53.62,41.66Z"/>
          <path class="cls-71" d="M54.23,38.07a14,14,0,0,0-.8,1.56,3.36,3.36,0,0,0,.32,2.68,3.87,3.87,0,0,1,.56-1.51C54.72,40.29,54.79,38.49,54.23,38.07Z"/>
          <path class="cls-71" d="M52.44,41.83v.05S52.44,41.83,52.44,41.83Z"/>
          <path class="cls-71" d="M54.22,44.8a3.36,3.36,0,0,0-1-1,2.18,2.18,0,0,1-.78-1.91c0,.1.15.35.89.95a2.33,2.33,0,0,1,.82,1.08A8.18,8.18,0,0,1,54.22,44.8Z"/>
          <path class="cls-71" d="M54.83,41.61l0,0a4.93,4.93,0,0,0-.22.53,5,5,0,0,0-.44,1.65s0,.3.08.16a2.55,2.55,0,0,0,.71-1.07,2,2,0,0,0,.06-.69,2,2,0,0,0-.05-.35S54.88,41.61,54.83,41.61Z"/>
        </g>
        <g>
          <ellipse class="cls-65" cx="46.38" cy="43.8" rx="0.3" ry="1.5"/>
          <ellipse class="cls-65" cx="44.29" cy="44.65" rx="0.3" ry="1.5" transform="translate(-18.6 44.39) rotate(-45)"/>
          <ellipse class="cls-65" cx="48.45" cy="48.82" rx="0.3" ry="1.5" transform="translate(-20.33 48.56) rotate(-45)"/>
          <ellipse class="cls-65" cx="47.6" cy="49.46" rx="0.3" ry="1.5" transform="translate(-16.83 25.79) rotate(-25.93)"/>
          <ellipse class="cls-65" cx="45.21" cy="44.04" rx="0.3" ry="1.5" transform="translate(-14.7 24.2) rotate(-25.93)"/>
          <ellipse class="cls-65" cx="48.5" cy="44.65" rx="1.5" ry="0.3" transform="translate(-17.37 47.38) rotate(-45)"/>
          <ellipse class="cls-65" cx="45.12" cy="49.46" rx="1.5" ry="0.3" transform="translate(-20.27 63.81) rotate(-60)"/>
          <ellipse class="cls-65" cx="47.56" cy="44.04" rx="1.5" ry="0.3" transform="translate(-12 69.61) rotate(-66.03)"/>
          <ellipse class="cls-65" cx="49.06" cy="45.51" rx="1.5" ry="0.3" transform="translate(-16.18 30.63) rotate(-30)"/>
          <ellipse class="cls-65" cx="43.71" cy="48.01" rx="1.5" ry="0.3" transform="translate(-18.15 28.28) rotate(-30)"/>
          <ellipse class="cls-65" cx="44.29" cy="48.87" rx="1.5" ry="0.3" transform="translate(-21.58 45.63) rotate(-45)"/>
          <ellipse class="cls-65" cx="46.38" cy="49.71" rx="0.3" ry="1.5"/>
          <ellipse class="cls-65" cx="49.34" cy="46.76" rx="1.5" ry="0.3"/>
          <ellipse class="cls-65" cx="49.14" cy="47.77" rx="0.3" ry="1.5" transform="translate(-10.63 81.31) rotate(-73.49)"/>
          <ellipse class="cls-65" cx="43.62" cy="45.72" rx="0.3" ry="1.5" transform="translate(-12.62 74.55) rotate(-73.49)"/>
          <ellipse class="cls-65" cx="43.43" cy="46.76" rx="1.5" ry="0.3"/>
        </g>
        <g>
          <ellipse class="cls-65" cx="44.04" cy="38.61" rx="0.16" ry="0.8"/>
          <ellipse class="cls-65" cx="42.92" cy="39.07" rx="0.16" ry="0.8" transform="translate(-15.05 41.79) rotate(-45)"/>
          <ellipse class="cls-65" cx="45.14" cy="41.29" rx="0.16" ry="0.8" transform="translate(-15.97 44.01) rotate(-45)"/>
          <ellipse class="cls-65" cx="44.69" cy="41.63" rx="0.16" ry="0.8" transform="translate(-13.7 23.73) rotate(-25.93)"/>
          <ellipse class="cls-65" cx="43.41" cy="38.74" rx="0.16" ry="0.8" transform="translate(-12.57 22.88) rotate(-25.93)"/>
          <ellipse class="cls-65" cx="45.17" cy="39.07" rx="0.8" ry="0.16" transform="translate(-14.4 43.38) rotate(-45)"/>
          <ellipse class="cls-65" cx="43.37" cy="41.63" rx="0.8" ry="0.16" transform="translate(-14.37 58.37) rotate(-60)"/>
          <ellipse class="cls-65" cx="44.67" cy="38.74" rx="0.8" ry="0.16" transform="translate(-8.88 63.82) rotate(-66.03)"/>
          <ellipse class="cls-65" cx="45.47" cy="39.53" rx="0.8" ry="0.16" transform="translate(-13.67 28.03) rotate(-30)"/>
          <ellipse class="cls-65" cx="42.61" cy="40.86" rx="0.8" ry="0.16" transform="translate(-14.72 26.78) rotate(-30)"/>
          <ellipse class="cls-65" cx="42.92" cy="41.32" rx="0.8" ry="0.16" transform="translate(-16.64 42.45) rotate(-45)"/>
          <ellipse class="cls-65" cx="44.04" cy="41.76" rx="0.16" ry="0.8"/>
          <ellipse class="cls-65" cx="45.61" cy="40.19" rx="0.8" ry="0.16"/>
          <ellipse class="cls-65" cx="45.51" cy="40.73" rx="0.16" ry="0.8" transform="translate(-6.48 72.79) rotate(-73.49)"/>
          <ellipse class="cls-65" cx="42.56" cy="39.64" rx="0.16" ry="0.8" transform="translate(-7.54 69.18) rotate(-73.49)"/>
          <ellipse class="cls-65" cx="42.47" cy="40.19" rx="0.8" ry="0.16"/>
        </g>
        <g>
          <ellipse class="cls-64" cx="46.38" cy="44.87" rx="0.2" ry="1.01"/>
          <ellipse class="cls-64" cx="44.97" cy="45.45" rx="0.2" ry="1.01" transform="translate(-18.96 45.11) rotate(-45)"/>
          <ellipse class="cls-64" cx="47.78" cy="48.25" rx="0.2" ry="1.01" transform="translate(-20.13 47.92) rotate(-45)"/>
          <ellipse class="cls-64" cx="47.2" cy="48.68" rx="0.2" ry="1.01" transform="translate(-16.53 25.54) rotate(-25.93)"/>
          <ellipse class="cls-64" cx="45.59" cy="45.03" rx="0.2" ry="1.01" transform="translate(-15.1 24.47) rotate(-25.93)"/>
          <ellipse class="cls-64" cx="47.81" cy="45.45" rx="1.01" ry="0.2" transform="translate(-18.13 47.12) rotate(-45)"/>
          <ellipse class="cls-64" cx="45.54" cy="48.68" rx="1.01" ry="0.2" transform="translate(-19.39 63.78) rotate(-60)"/>
          <ellipse class="cls-64" cx="47.18" cy="45.03" rx="1.01" ry="0.2" transform="translate(-13.13 69.85) rotate(-66.03)"/>
          <ellipse class="cls-64" cx="48.19" cy="46.03" rx="1.01" ry="0.2" transform="matrix(0.87, -0.5, 0.5, 0.87, -16.56, 30.26)"/>
          <ellipse class="cls-64" cx="44.58" cy="47.7" rx="1.01" ry="0.2" transform="translate(-17.88 28.68) rotate(-30)"/>
          <ellipse class="cls-64" cx="44.97" cy="48.29" rx="1.01" ry="0.2" transform="translate(-20.97 45.94) rotate(-45)"/>
          <ellipse class="cls-64" cx="46.38" cy="48.85" rx="0.2" ry="1.01"/>
          <ellipse class="cls-64" cx="48.37" cy="46.87" rx="1.01" ry="0.2"/>
          <ellipse class="cls-64" cx="48.24" cy="47.55" rx="0.2" ry="1.01" transform="matrix(0.28, -0.96, 0.96, 0.28, -11.06, 80.29)"/>
          <ellipse class="cls-64" cx="44.52" cy="46.17" rx="0.2" ry="1.01" transform="translate(-12.39 75.73) rotate(-73.49)"/>
          <ellipse class="cls-64" cx="44.39" cy="46.87" rx="1.01" ry="0.2"/>
        </g>
        <g>
          <path class="cls-62" d="M54.65,70.26s-1.26,7.42-9.17,7.14"/>
          <path class="cls-63" d="M54.42,71.45a2.28,2.28,0,0,1-.55-1.92A2.56,2.56,0,0,1,54.54,68a2.28,2.28,0,0,1,.56,1.92A2.59,2.59,0,0,1,54.42,71.45Z"/>
          <path class="cls-63" d="M54,73.83a5.48,5.48,0,0,1-.7,0c0-.07-.11-.17,0-.22.84-.67,1-1.3,2.33-1.4a5.5,5.5,0,0,1,.7,0c0,.07.1.16,0,.22A3,3,0,0,1,54,73.83Z"/>
          <path class="cls-63" d="M52.52,74.59a12.32,12.32,0,0,0-.63-3.13,5.33,5.33,0,0,1,.16-2.36c.6.21,1,1.21,1.15,2.6A10.66,10.66,0,0,1,52.52,74.59Z"/>
          <path class="cls-63" d="M53.41,75.47a4.23,4.23,0,0,1-1.59-.14,3.22,3.22,0,0,1,1.87-.61,4.23,4.23,0,0,1,1.59.14A3.22,3.22,0,0,1,53.41,75.47Z"/>
          <path class="cls-63" d="M50.58,76.09a4.09,4.09,0,0,1-.17-.86c-.06-.88.14-1.63.47-1.77a3.56,3.56,0,0,1,.16.86C51.11,75.2,50.91,76,50.58,76.09Z"/>
          <path class="cls-63" d="M50.58,76.09a4.09,4.09,0,0,1-.17-.86c-.06-.88.14-1.63.47-1.77a3.56,3.56,0,0,1,.16.86C51.11,75.2,50.91,76,50.58,76.09Z"/>
          <path class="cls-63" d="M54,76.81s-1.37-.64-1.62-.71a6.55,6.55,0,0,0-1.84.15,2.74,2.74,0,0,0-.82.42,3.77,3.77,0,0,1,1.55.43A3.21,3.21,0,0,0,54,76.81Z"/>
          <path class="cls-63" d="M47.65,77.22a1.88,1.88,0,0,0,1.46-1c.74-1.09.93-1,.93-1a2.21,2.21,0,0,0-1.88.92,2.76,2.76,0,0,1-1.1,1.19Z"/>
          <path class="cls-63" d="M50.54,77.61a7.32,7.32,0,0,0-1.83-.5c-.89-.09-.58.07-.58.07s.9.75,1.38.68S50.54,77.73,50.54,77.61Z"/>
          <path class="cls-64" d="M69.1,59a1.25,1.25,0,0,0,.14-1A7.65,7.65,0,0,0,68,56a.61.61,0,0,1-.11-.21,5.91,5.91,0,0,0-.62-1.66.56.56,0,0,0-.43-.25,4.34,4.34,0,0,0-.89,0l-3.11,3.37,2.74,3.12Z"/>
          <path class="cls-65" d="M63.11,60.93l0-.14,0-.1h0l.05-.13a6.63,6.63,0,0,0,5.29-.17,1.67,1.67,0,0,1,.67.86,3.87,3.87,0,0,1,.19,1.57c-2.1,1.1-5-.81-6-1.56"/>
          <path class="cls-66" d="M68.89,61.49c1.74-1.18.71-2.15.22-2.5a1.22,1.22,0,0,0-.22-.14L67.34,59c-.11.14-.2.23-.25.23a15.55,15.55,0,0,1-3.89.93H63a2,2,0,0,1,.08.22l.14.42C64.58,61.49,67.29,62.57,68.89,61.49Z"/>
          <path class="cls-66" d="M65.64,56h0a3.29,3.29,0,0,0,.3-2.09c-.17-.49-.64-.81-1.66-.7-2.5.25-2.57,3.61-2.45,5.3a.91.91,0,0,1,.32.3l0,0,0,0,.2.25.12.18.05.07.15.25h0l0,0,0,0"/>
          <path class="cls-65" d="M63,60.25h.2a14.26,14.26,0,0,0,3-.6l.46-.15a2.25,2.25,0,0,0,.51-.2,1.49,1.49,0,0,0,.37-.42c.1-.14.2-.29.29-.44a3.61,3.61,0,0,0,.42-.94c0-.19.06-.45-.18-.5a1.45,1.45,0,0,1-.92-.81c0-.07-.07-.23-.13-.28s-.28,0-.37,0a3.11,3.11,0,0,0-.79.13l-.19.06a7.3,7.3,0,0,0-3.25,3.09h0l.17.25c0,.08.11.17.15.25v0h0a5.85,5.85,0,0,1,.28.56Z"/>
          <path class="cls-68" d="M63.38,61.2a1.94,1.94,0,0,1-.17-.42c0-.14-.09-.27-.13-.4L63,60.16v0a5.6,5.6,0,0,0-.27-.55h0l-.15-.24-.16-.24-.2-.24,0,0c-.09-.11-.19-.25-.31-.29h0c0,.22,0,.46,0,.68s0,.27,0,.48h0a2.09,2.09,0,0,1,0,.45h0c0,.11-.08.19-.14.2a0,0,0,0,0,0,0s.12.07.12.15a2.15,2.15,0,0,1,1.18.33C63.14,61,63.12,60.89,63.38,61.2Z"/>
          <path class="cls-69" d="M62.24,60.25s-5.16,1.65-7.86,4.44S51,72.31,46.22,77.89"/>
          <path class="cls-70" d="M51.25,70.28a9.88,9.88,0,0,1-.07-1.78,8.18,8.18,0,0,1,.08-.89,8,8,0,0,1,3-5.25c.18-.15.36-.28.54-.41a9.73,9.73,0,0,1,2.85-1.36"/>
          <path class="cls-71" d="M56.65,60.93a2.28,2.28,0,0,0,2,.41,2.55,2.55,0,0,0,1.48-.8,2.27,2.27,0,0,0-1.95-.4A2.58,2.58,0,0,0,56.65,60.93Z"/>
          <path class="cls-71" d="M54.19,62.13a.44.44,0,0,0,.07.22h0c.18-.15.36-.28.54-.41a2.52,2.52,0,0,0,.88-2,5.09,5.09,0,0,0,0-.69c-.1,0-.17-.1-.26,0a5,5,0,0,0-.88,1.06,2.83,2.83,0,0,0-.3,1.34A3.53,3.53,0,0,0,54.19,62.13Z"/>
          <path class="cls-71" d="M53.57,63c.5.16,1.17,0,1.72.14s.91.21,1.37.27A5.39,5.39,0,0,0,59,63.08c.1,0-.66-.58-.71-.61a4.57,4.57,0,0,0-1.42-.31A6.23,6.23,0,0,0,53.57,63Z"/>
          <path class="cls-71" d="M52.55,62.23a4.2,4.2,0,0,0,.26,1.57,3.18,3.18,0,0,0,.47-1.91A4.28,4.28,0,0,0,53,60.31,3.25,3.25,0,0,0,52.55,62.23Z"/>
          <path class="cls-71" d="M51.78,65.36a4.3,4.3,0,0,0,.88,0c.88-.09,1.58-.43,1.66-.78a4.3,4.3,0,0,0-.88,0C52.56,64.67,51.86,65,51.78,65.36Z"/>
          <path class="cls-71" d="M51.17,61.77a14,14,0,0,1,.8,1.56A3.36,3.36,0,0,1,51.65,66a3.82,3.82,0,0,0-.56-1.51C50.68,64,50.61,62.19,51.17,61.77Z"/>
          <path class="cls-71" d="M53,65.53v0S53,65.53,53,65.53Z"/>
          <path class="cls-71" d="M51.18,68.5a3.36,3.36,0,0,1,1-1A2.18,2.18,0,0,0,53,65.58c0,.09-.15.35-.89,1a2.33,2.33,0,0,0-.82,1.08A8.18,8.18,0,0,0,51.18,68.5Z"/>
          <path class="cls-71" d="M50.57,65.31s0,0,0,0a4.93,4.93,0,0,1,.22.53,5,5,0,0,1,.44,1.65s0,.3-.08.16a2.52,2.52,0,0,1-.71-1.08,1.94,1.94,0,0,1-.06-.68c0-.12,0-.24.05-.35S50.52,65.31,50.57,65.31Z"/>
        </g>
        <g>
          <ellipse class="cls-65" cx="59.02" cy="67.5" rx="0.3" ry="1.5"/>
          <ellipse class="cls-65" cx="61.11" cy="68.35" rx="1.5" ry="0.3" transform="translate(-30.43 63.23) rotate(-45)"/>
          <ellipse class="cls-65" cx="56.95" cy="72.52" rx="1.5" ry="0.3" transform="translate(-34.6 61.51) rotate(-45)"/>
          <ellipse class="cls-65" cx="57.81" cy="73.16" rx="1.5" ry="0.3" transform="matrix(0.44, -0.9, 0.9, 0.44, -33.26, 93.16)"/>
          <ellipse class="cls-65" cx="60.19" cy="67.73" rx="1.5" ry="0.3" transform="translate(-27.04 92.25) rotate(-64.07)"/>
          <ellipse class="cls-65" cx="56.9" cy="68.35" rx="0.3" ry="1.5" transform="translate(-31.67 60.25) rotate(-45)"/>
          <ellipse class="cls-65" cx="60.28" cy="73.16" rx="0.3" ry="1.5" transform="translate(-28.5 39.94) rotate(-30)"/>
          <ellipse class="cls-65" cx="57.84" cy="67.73" rx="0.3" ry="1.5" transform="translate(-22.53 29.34) rotate(-23.97)"/>
          <ellipse class="cls-65" cx="56.34" cy="69.21" rx="0.3" ry="1.5" transform="matrix(0.5, -0.87, 0.87, 0.5, -31.77, 83.4)"/>
          <ellipse class="cls-65" cx="61.69" cy="71.7" rx="0.3" ry="1.5" transform="translate(-31.25 89.28) rotate(-60)"/>
          <ellipse class="cls-65" cx="61.11" cy="72.57" rx="0.3" ry="1.5" transform="translate(-33.41 64.47) rotate(-45)"/>
          <ellipse class="cls-65" cx="59.02" cy="73.41" rx="0.3" ry="1.5"/>
          <ellipse class="cls-65" cx="56.06" cy="70.46" rx="1.5" ry="0.3"/>
          <ellipse class="cls-65" cx="56.26" cy="71.47" rx="1.5" ry="0.3" transform="translate(-17.99 18.93) rotate(-16.51)"/>
          <ellipse class="cls-65" cx="61.78" cy="69.42" rx="1.5" ry="0.3" transform="translate(-17.18 20.42) rotate(-16.51)"/>
          <ellipse class="cls-65" cx="61.97" cy="70.46" rx="1.5" ry="0.3"/>
        </g>
        <g>
          <ellipse class="cls-65" cx="61.36" cy="62.31" rx="0.16" ry="0.8"/>
          <ellipse class="cls-65" cx="62.48" cy="62.77" rx="0.8" ry="0.16" transform="translate(-26.09 62.56) rotate(-45)"/>
          <ellipse class="cls-65" cx="60.26" cy="64.99" rx="0.8" ry="0.16" transform="translate(-28.31 61.64) rotate(-45)"/>
          <ellipse class="cls-65" cx="60.72" cy="65.33" rx="0.8" ry="0.16" transform="translate(-24.59 91.37) rotate(-64.07)"/>
          <ellipse class="cls-65" cx="61.99" cy="62.44" rx="0.8" ry="0.16" transform="translate(-21.27 90.89) rotate(-64.07)"/>
          <ellipse class="cls-65" cx="60.23" cy="62.77" rx="0.16" ry="0.8" transform="translate(-26.74 60.97) rotate(-45)"/>
          <ellipse class="cls-65" cx="62.03" cy="65.33" rx="0.16" ry="0.8" transform="translate(-24.35 39.77) rotate(-30)"/>
          <ellipse class="cls-65" cx="60.73" cy="62.44" rx="0.16" ry="0.8" transform="translate(-20.13 30.05) rotate(-23.97)"/>
          <ellipse class="cls-65" cx="59.93" cy="63.23" rx="0.16" ry="0.8" transform="translate(-24.79 83.52) rotate(-60)"/>
          <ellipse class="cls-65" cx="62.79" cy="64.56" rx="0.16" ry="0.8" transform="translate(-24.51 86.65) rotate(-60)"/>
          <ellipse class="cls-65" cx="62.48" cy="65.02" rx="0.16" ry="0.8" transform="translate(-27.67 63.22) rotate(-45)"/>
          <ellipse class="cls-65" cx="61.36" cy="65.46" rx="0.16" ry="0.8"/>
          <ellipse class="cls-65" cx="59.79" cy="63.89" rx="0.8" ry="0.16"/>
          <ellipse class="cls-65" cx="59.89" cy="64.43" rx="0.8" ry="0.16" transform="translate(-15.84 19.68) rotate(-16.51)"/>
          <ellipse class="cls-65" cx="62.84" cy="63.34" rx="0.8" ry="0.16" transform="translate(-15.41 20.47) rotate(-16.51)"/>
          <ellipse class="cls-65" cx="62.93" cy="63.89" rx="0.8" ry="0.16"/>
        </g>
        <g>
          <ellipse class="cls-64" cx="59.02" cy="68.57" rx="0.2" ry="1.01"/>
          <ellipse class="cls-64" cx="60.43" cy="69.15" rx="1.01" ry="0.2" transform="translate(-31.19 62.98) rotate(-45)"/>
          <ellipse class="cls-64" cx="57.62" cy="71.95" rx="1.01" ry="0.2" transform="translate(-34 61.82) rotate(-45)"/>
          <ellipse class="cls-64" cx="58.2" cy="72.38" rx="1.01" ry="0.2" transform="translate(-32.34 93.08) rotate(-64.07)"/>
          <ellipse class="cls-64" cx="59.81" cy="68.73" rx="1.01" ry="0.2" transform="translate(-28.15 92.47) rotate(-64.07)"/>
          <ellipse class="cls-64" cx="57.59" cy="69.15" rx="0.2" ry="1.01" transform="translate(-32.03 60.97) rotate(-45)"/>
          <ellipse class="cls-64" cx="59.87" cy="72.38" rx="0.2" ry="1.01" transform="translate(-28.17 39.63) rotate(-30)"/>
          <ellipse class="cls-64" cx="58.22" cy="68.73" rx="0.2" ry="1.01" transform="translate(-22.9 29.58) rotate(-23.97)"/>
          <ellipse class="cls-64" cx="57.21" cy="69.72" rx="0.2" ry="1.01" transform="matrix(0.5, -0.87, 0.87, 0.5, -31.78, 84.41)"/>
          <ellipse class="cls-64" cx="60.82" cy="71.4" rx="0.2" ry="1.01" transform="matrix(0.5, -0.87, 0.87, 0.5, -31.43, 88.37)"/>
          <ellipse class="cls-64" cx="60.43" cy="71.99" rx="0.2" ry="1.01" transform="translate(-33.2 63.81) rotate(-45)"/>
          <ellipse class="cls-64" cx="59.02" cy="72.55" rx="0.2" ry="1.01"/>
          <ellipse class="cls-64" cx="57.03" cy="70.57" rx="1.01" ry="0.2"/>
          <ellipse class="cls-64" cx="57.16" cy="71.25" rx="1.01" ry="0.2" transform="translate(-17.89 19.18) rotate(-16.51)"/>
          <ellipse class="cls-64" cx="60.88" cy="69.87" rx="1.01" ry="0.2" transform="translate(-17.34 20.18) rotate(-16.51)"/>
          <ellipse class="cls-64" cx="61.01" cy="70.57" rx="1.01" ry="0.2"/>
        </g>
        <g>
          <path class="cls-70" d="M67,33.52s3.14,6.85-3.56,11.06"/>
          <path class="cls-71" d="M67.49,34.63A2.22,2.22,0,0,1,66,33.36a2.52,2.52,0,0,1-.31-1.65A2.22,2.22,0,0,1,67.18,33,2.51,2.51,0,0,1,67.49,34.63Z"/>
          <path class="cls-71" d="M68.47,36.85a3.6,3.6,0,0,1-.57.39c-.06,0-.19-.07-.17-.15.33-1,.1-1.63,1.15-2.47a4,4,0,0,1,.56-.39c.07,0,.19.07.18.14A3.08,3.08,0,0,1,68.47,36.85Z"/>
          <path class="cls-71" d="M67.68,38.3a12.23,12.23,0,0,0-2.27-2.23,5.42,5.42,0,0,1-1.2-2c.62-.16,1.54.42,2.41,1.51A10.14,10.14,0,0,1,67.68,38.3Z"/>
          <path class="cls-71" d="M68.92,38.53a4.43,4.43,0,0,1-1.39.78,3.15,3.15,0,0,1,1.2-1.56A4.14,4.14,0,0,1,70.12,37,3.24,3.24,0,0,1,68.92,38.53Z"/>
          <path class="cls-71" d="M66.93,40.64a4.12,4.12,0,0,1-.62-.63c-.56-.69-.81-1.42-.61-1.73a4.08,4.08,0,0,1,.61.63C66.87,39.6,67.12,40.33,66.93,40.64Z"/>
          <path class="cls-71" d="M70.15,39.31s-1.49.24-1.73.32A6.15,6.15,0,0,0,67,40.79a2.84,2.84,0,0,0-.45.81,3.87,3.87,0,0,1,1.53-.52C68.71,41.09,70.15,39.83,70.15,39.31Z"/>
          <path class="cls-71" d="M65.14,43.21a1.86,1.86,0,0,0,.64-1.66c0-1.31.23-1.32.23-1.32a2.24,2.24,0,0,0-1,1.83,2.76,2.76,0,0,1-.24,1.6Z"/>
          <path class="cls-71" d="M67.74,41.91a7.13,7.13,0,0,0-1.79.62c-.78.43-.44.38-.44.38s1.16.11,1.52-.22S67.82,42,67.74,41.91Z"/>
        </g>
        <path class="cls-71" d="M63.58,38.33l0,0A.07.07,0,0,0,63.58,38.33Z"/>
        <g>
          <path class="cls-71" d="M61.31,49.18a3.9,3.9,0,0,0,.44-.76c.36-.81.42-1.58.15-1.83a3.9,3.9,0,0,0-.44.76C61.1,48.16,61,48.94,61.31,49.18Z"/>
          <path class="cls-71" d="M57.9,47.93a12.08,12.08,0,0,1,1.74.08,3.36,3.36,0,0,1,2.17,1.61,3.87,3.87,0,0,0-1.59-.27C59.58,49.46,58,48.63,57.9,47.93Z"/>
          <path class="cls-70" d="M65.32,52.1a10.62,10.62,0,0,1-1.58-.83,8.54,8.54,0,0,1-.73-.52,8,8,0,0,1-3.07-5.21c0-.23-.06-.46-.08-.67a9.84,9.84,0,0,1,.23-3.15"/>
          <path class="cls-71" d="M59.9,42.76a2.29,2.29,0,0,0,1.32-1.5,2.57,2.57,0,0,0,.05-1.68A2.29,2.29,0,0,0,60,41.08,2.5,2.5,0,0,0,59.9,42.76Z"/>
          <path class="cls-71" d="M59.71,45.48a.43.43,0,0,0,.22.06h0c0-.23-.06-.46-.08-.67a2.51,2.51,0,0,0-1.29-1.75,5,5,0,0,0-.62-.3c-.08.07-.17.09-.14.22a5.29,5.29,0,0,0,.49,1.29,2.76,2.76,0,0,0,1,.93A3.61,3.61,0,0,0,59.71,45.48Z"/>
          <path class="cls-71" d="M60.18,46.47c.39-.36.6-1,1-1.42s.63-.69.92-1.06a5.33,5.33,0,0,0,.86-2.21c0-.11-.83.28-.88.32a4.26,4.26,0,0,0-1,1.06A6.2,6.2,0,0,0,60.18,46.47Z"/>
          <path class="cls-71" d="M59,47a4.38,4.38,0,0,0,1.5.56,3.18,3.18,0,0,0-1.43-1.36,4.18,4.18,0,0,0-1.5-.56A3.17,3.17,0,0,0,59,47Z"/>
          <path class="cls-71" d="M63.74,51.27a3.42,3.42,0,0,1-.38-1.39,2.21,2.21,0,0,0-1.26-1.62c.07.06.23.3.38,1.25A2.28,2.28,0,0,0,63,50.75,8.54,8.54,0,0,0,63.74,51.27Z"/>
          <path class="cls-71" d="M60.67,50.21h0a3.7,3.7,0,0,1,.57.07,5.24,5.24,0,0,1,1.65.44s.27.14.1.15a2.58,2.58,0,0,1-1.29.08,2.07,2.07,0,0,1-.62-.29,2.09,2.09,0,0,1-.28-.22S60.65,50.26,60.67,50.21Z"/>
        </g>
        <g>
          <ellipse class="cls-63" cx="68.38" cy="44.31" rx="0.3" ry="1.5"/>
          <ellipse class="cls-63" cx="70.47" cy="45.16" rx="1.5" ry="0.3" transform="translate(-11.29 63.06) rotate(-45)"/>
          <ellipse class="cls-63" cx="66.31" cy="49.33" rx="1.5" ry="0.3" transform="translate(-15.46 61.34) rotate(-45)"/>
          <ellipse class="cls-63" cx="67.17" cy="49.97" rx="1.5" ry="0.3" transform="translate(-7.14 88.53) rotate(-64.07)"/>
          <ellipse class="cls-63" cx="69.55" cy="44.55" rx="1.5" ry="0.3" transform="translate(-0.92 87.62) rotate(-64.07)"/>
          <ellipse class="cls-63" cx="66.26" cy="45.16" rx="0.3" ry="1.5" transform="translate(-12.53 60.08) rotate(-45)"/>
          <ellipse class="cls-63" cx="69.64" cy="49.97" rx="0.3" ry="1.5" transform="translate(-15.65 41.51) rotate(-30)"/>
          <ellipse class="cls-63" cx="67.2" cy="44.55" rx="0.3" ry="1.5" transform="translate(-12.3 31.14) rotate(-23.97)"/>
          <ellipse class="cls-63" cx="65.7" cy="46.02" rx="0.3" ry="1.5" transform="translate(-7.01 79.91) rotate(-60)"/>
          <ellipse class="cls-63" cx="71.06" cy="48.52" rx="0.3" ry="1.5" transform="translate(-6.49 85.79) rotate(-60)"/>
          <ellipse class="cls-63" cx="70.47" cy="49.38" rx="0.3" ry="1.5" transform="translate(-14.28 64.3) rotate(-45)"/>
          <ellipse class="cls-63" cx="68.38" cy="50.22" rx="0.3" ry="1.5"/>
          <ellipse class="cls-63" cx="65.43" cy="47.27" rx="1.5" ry="0.3"/>
          <ellipse class="cls-63" cx="65.62" cy="48.29" rx="1.5" ry="0.3" transform="translate(-11.02 20.64) rotate(-16.51)"/>
          <ellipse class="cls-63" cx="71.15" cy="46.23" rx="1.5" ry="0.3" transform="translate(-10.21 22.12) rotate(-16.51)"/>
          <ellipse class="cls-63" cx="71.33" cy="47.27" rx="1.5" ry="0.3"/>
        </g>
        <g>
          <ellipse class="cls-72" cx="68.27" cy="45.6" rx="0.16" ry="0.8"/>
          <ellipse class="cls-72" cx="69.39" cy="46.06" rx="0.8" ry="0.16" transform="translate(-12.24 62.56) rotate(-45)"/>
          <ellipse class="cls-72" cx="67.17" cy="48.28" rx="0.8" ry="0.16" transform="translate(-14.47 61.64) rotate(-45)"/>
          <ellipse class="cls-72" cx="67.63" cy="48.62" rx="0.8" ry="0.16" transform="translate(-5.67 88.18) rotate(-64.07)"/>
          <ellipse class="cls-72" cx="68.9" cy="45.73" rx="0.8" ry="0.16" transform="translate(-2.35 87.7) rotate(-64.07)"/>
          <ellipse class="cls-72" cx="67.14" cy="46.06" rx="0.16" ry="0.8" transform="translate(-12.9 60.97) rotate(-45)"/>
          <ellipse class="cls-72" cx="68.94" cy="48.62" rx="0.16" ry="0.8" transform="translate(-15.07 40.99) rotate(-30)"/>
          <ellipse class="cls-72" cx="67.64" cy="45.73" rx="0.16" ry="0.8" transform="translate(-12.74 31.42) rotate(-23.97)"/>
          <ellipse class="cls-72" cx="66.84" cy="46.52" rx="0.16" ry="0.8" transform="translate(-6.86 81.15) rotate(-60)"/>
          <ellipse class="cls-72" cx="69.7" cy="47.85" rx="0.16" ry="0.8" transform="translate(-6.59 84.28) rotate(-60)"/>
          <ellipse class="cls-72" cx="69.39" cy="48.31" rx="0.16" ry="0.8" transform="translate(-13.83 63.21) rotate(-45)"/>
          <ellipse class="cls-72" cx="68.27" cy="48.75" rx="0.16" ry="0.8"/>
          <ellipse class="cls-72" cx="66.7" cy="47.18" rx="0.8" ry="0.16"/>
          <ellipse class="cls-72" cx="66.8" cy="47.72" rx="0.8" ry="0.16" transform="translate(-10.81 20.95) rotate(-16.51)"/>
          <ellipse class="cls-72" cx="69.75" cy="46.63" rx="0.8" ry="0.16" transform="translate(-10.38 21.74) rotate(-16.51)"/>
          <ellipse class="cls-72" cx="69.85" cy="47.18" rx="0.8" ry="0.16"/>
        </g>
        <g>
          <ellipse class="cls-66" cx="61.21" cy="33.91" rx="0.2" ry="1.01"/>
          <ellipse class="cls-66" cx="62.63" cy="34.49" rx="1.01" ry="0.2" transform="translate(-6.04 54.38) rotate(-45)"/>
          <ellipse class="cls-66" cx="59.82" cy="37.3" rx="1.01" ry="0.2" transform="translate(-8.85 53.22) rotate(-45)"/>
          <ellipse class="cls-66" cx="60.4" cy="37.73" rx="1.01" ry="0.2" transform="translate(0.06 75.55) rotate(-64.07)"/>
          <ellipse class="cls-66" cx="62" cy="34.07" rx="1.01" ry="0.2" transform="translate(4.25 74.94) rotate(-64.07)"/>
          <ellipse class="cls-66" cx="59.79" cy="34.49" rx="0.2" ry="1.01" transform="translate(-6.88 52.38) rotate(-45)"/>
          <ellipse class="cls-66" cx="62.06" cy="37.73" rx="0.2" ry="1.01" transform="translate(-10.55 36.09) rotate(-30)"/>
          <ellipse class="cls-66" cx="60.42" cy="34.07" rx="0.2" ry="1.01" transform="translate(-8.63 27.48) rotate(-23.97)"/>
          <ellipse class="cls-66" cx="59.41" cy="35.07" rx="0.2" ry="1.01" transform="translate(-0.67 68.98) rotate(-60)"/>
          <ellipse class="cls-66" cx="63.02" cy="36.75" rx="0.2" ry="1.01" transform="translate(-0.32 72.95) rotate(-60)"/>
          <ellipse class="cls-66" cx="62.63" cy="37.33" rx="0.2" ry="1.01" transform="translate(-8.05 55.22) rotate(-45)"/>
          <ellipse class="cls-66" cx="61.21" cy="37.89" rx="0.2" ry="1.01"/>
          <ellipse class="cls-66" cx="59.22" cy="35.91" rx="1.01" ry="0.2"/>
          <ellipse class="cls-66" cx="59.36" cy="36.59" rx="1.01" ry="0.2" transform="translate(-7.95 18.38) rotate(-16.51)"/>
          <ellipse class="cls-66" cx="63.08" cy="35.21" rx="1.01" ry="0.2" transform="translate(-7.4 19.38) rotate(-16.51)"/>
          <ellipse class="cls-66" cx="63.2" cy="35.91" rx="1.01" ry="0.2"/>
        </g>
        <g>
          <path class="cls-70" d="M31.55,61.67s6.85,3.14,11.07-3.56"/>
          <path class="cls-71" d="M32.66,62.15a2.22,2.22,0,0,0-1.27-1.53,2.52,2.52,0,0,0-1.65-.31A2.22,2.22,0,0,0,31,61.84,2.51,2.51,0,0,0,32.66,62.15Z"/>
          <path class="cls-71" d="M34.88,63.13a4,4,0,0,0,.39-.56c0-.07-.07-.2-.14-.18-1,.33-1.64.1-2.48,1.15a4.82,4.82,0,0,0-.39.57c0,.06.07.18.14.17A3.05,3.05,0,0,0,34.88,63.13Z"/>
          <path class="cls-71" d="M36.33,62.35a12.24,12.24,0,0,1-2.23-2.28,5.34,5.34,0,0,0-2.05-1.2c-.16.62.42,1.54,1.51,2.42A10.83,10.83,0,0,0,36.33,62.35Z"/>
          <path class="cls-71" d="M36.56,63.58a4.33,4.33,0,0,0,.78-1.39,3.15,3.15,0,0,0-1.56,1.2A4.14,4.14,0,0,0,35,64.78,3.24,3.24,0,0,0,36.56,63.58Z"/>
          <path class="cls-71" d="M38.67,61.59a4.53,4.53,0,0,0-.62-.62c-.7-.56-1.43-.81-1.73-.61a4,4,0,0,0,.62.62C37.63,61.53,38.37,61.78,38.67,61.59Z"/>
          <path class="cls-71" d="M37.34,64.81s.24-1.49.32-1.73a6.36,6.36,0,0,1,1.16-1.44,2.68,2.68,0,0,1,.81-.44,3.68,3.68,0,0,0-.51,1.52C39.12,63.38,37.86,64.81,37.34,64.81Z"/>
          <path class="cls-71" d="M41.24,59.8a1.85,1.85,0,0,1-1.65.64c-1.32,0-1.32.23-1.32.23a2.23,2.23,0,0,1,1.82-1,2.76,2.76,0,0,0,1.6-.24Z"/>
          <path class="cls-71" d="M39.94,62.41a7.47,7.47,0,0,1,.62-1.79c.43-.79.38-.45.38-.45s.11,1.17-.22,1.53S40,62.48,39.94,62.41Z"/>
        </g>
        <path class="cls-71" d="M36.36,58.24l0,0A.07.07,0,0,1,36.36,58.24Z"/>
        <g>
          <path class="cls-71" d="M47.21,56a3.9,3.9,0,0,1-.76.44c-.81.36-1.58.42-1.82.15a4.37,4.37,0,0,1,.75-.44C46.19,55.76,47,55.71,47.21,56Z"/>
          <path class="cls-71" d="M46,52.56A13.72,13.72,0,0,0,46,54.3a3.36,3.36,0,0,0,1.61,2.17,3.87,3.87,0,0,1-.27-1.59C47.49,54.24,46.66,52.64,46,52.56Z"/>
          <path class="cls-70" d="M39.75,54.75a9.69,9.69,0,0,1,3.15-.22,5.54,5.54,0,0,1,.67.08,8,8,0,0,1,5.21,3.06c.18.23.35.47.52.73A11.13,11.13,0,0,1,50.13,60"/>
          <path class="cls-71" d="M40.79,54.56a2.29,2.29,0,0,1-1.5,1.32,2.57,2.57,0,0,1-1.68,0,2.29,2.29,0,0,1,1.5-1.32A2.57,2.57,0,0,1,40.79,54.56Z"/>
          <path class="cls-71" d="M43.51,54.37a.46.46,0,0,1,.06.23h0a5.54,5.54,0,0,0-.67-.08,2.56,2.56,0,0,1-1.75-1.3,4.4,4.4,0,0,1-.3-.62c.07-.08.09-.17.22-.13a4.89,4.89,0,0,1,1.29.48,2.76,2.76,0,0,1,.93,1A2.16,2.16,0,0,1,43.51,54.37Z"/>
          <path class="cls-71" d="M44.5,54.84c-.35.39-1,.6-1.42,1s-.69.63-1.06.92a5.33,5.33,0,0,1-2.21.86c-.11,0,.28-.83.32-.88a4.13,4.13,0,0,1,1.07-1A6.14,6.14,0,0,1,44.5,54.84Z"/>
          <path class="cls-71" d="M45,53.64a4.38,4.38,0,0,1,.56,1.5,3.17,3.17,0,0,1-1.36-1.43,4.38,4.38,0,0,1-.56-1.5A3.17,3.17,0,0,1,45,53.64Z"/>
          <path class="cls-71" d="M49.3,58.4A3.41,3.41,0,0,0,47.92,58a2.19,2.19,0,0,1-1.63-1.26c.06.07.3.23,1.25.38a2.28,2.28,0,0,1,1.24.53C49,57.9,49.13,58.14,49.3,58.4Z"/>
          <path class="cls-71" d="M48.24,55.33s0,0,0,0a5.54,5.54,0,0,0,.07.57,5.24,5.24,0,0,0,.44,1.65s.14.27.15.1A2.58,2.58,0,0,0,49,56.4a2.07,2.07,0,0,0-.29-.62,1.51,1.51,0,0,0-.22-.28S48.29,55.31,48.24,55.33Z"/>
        </g>
        <g>
          <ellipse class="cls-63" cx="42.34" cy="63.04" rx="1.5" ry="0.3"/>
          <ellipse class="cls-63" cx="43.2" cy="65.14" rx="1.5" ry="0.3" transform="translate(-33.41 49.62) rotate(-45)"/>
          <ellipse class="cls-63" cx="47.36" cy="60.97" rx="1.5" ry="0.3" transform="translate(-29.24 51.35) rotate(-45)"/>
          <ellipse class="cls-63" cx="48" cy="61.83" rx="1.5" ry="0.3" transform="translate(-22.2 27.21) rotate(-25.93)"/>
          <ellipse class="cls-63" cx="42.58" cy="64.21" rx="1.5" ry="0.3" transform="translate(-23.79 25.08) rotate(-25.93)"/>
          <ellipse class="cls-63" cx="43.2" cy="60.92" rx="0.3" ry="1.5" transform="translate(-30.43 48.39) rotate(-45)"/>
          <ellipse class="cls-63" cx="48" cy="64.3" rx="0.3" ry="1.5" transform="translate(-31.68 73.72) rotate(-60)"/>
          <ellipse class="cls-63" cx="42.58" cy="61.86" rx="0.3" ry="1.5" transform="translate(-31.24 75.64) rotate(-66.03)"/>
          <ellipse class="cls-63" cx="44.06" cy="60.36" rx="0.3" ry="1.5" transform="translate(-24.28 30.11) rotate(-30)"/>
          <ellipse class="cls-63" cx="46.55" cy="65.72" rx="0.3" ry="1.5" transform="translate(-26.62 32.08) rotate(-30)"/>
          <ellipse class="cls-63" cx="47.41" cy="65.14" rx="0.3" ry="1.5" transform="translate(-32.17 52.6) rotate(-45)"/>
          <ellipse class="cls-63" cx="48.25" cy="63.04" rx="1.5" ry="0.3"/>
          <ellipse class="cls-63" cx="45.31" cy="60.09" rx="0.3" ry="1.5"/>
          <ellipse class="cls-63" cx="46.32" cy="60.28" rx="1.5" ry="0.3" transform="matrix(0.28, -0.96, 0.96, 0.28, -24.64, 87.56)"/>
          <ellipse class="cls-63" cx="44.26" cy="65.81" rx="1.5" ry="0.3" transform="translate(-31.41 89.55) rotate(-73.49)"/>
          <ellipse class="cls-63" cx="45.31" cy="65.99" rx="0.3" ry="1.5"/>
        </g>
        <g>
          <ellipse class="cls-72" cx="43.64" cy="62.93" rx="0.8" ry="0.16"/>
          <ellipse class="cls-72" cx="44.09" cy="64.05" rx="0.8" ry="0.16" transform="translate(-32.38 49.94) rotate(-45)"/>
          <ellipse class="cls-72" cx="46.31" cy="61.83" rx="0.8" ry="0.16" transform="translate(-30.16 50.86) rotate(-45)"/>
          <ellipse class="cls-72" cx="46.65" cy="62.29" rx="0.8" ry="0.16" transform="matrix(0.9, -0.44, 0.44, 0.9, -22.54, 26.66)"/>
          <ellipse class="cls-72" cx="43.76" cy="63.56" rx="0.8" ry="0.16" transform="translate(-23.38 25.53) rotate(-25.93)"/>
          <ellipse class="cls-72" cx="44.09" cy="61.8" rx="0.16" ry="0.8" transform="translate(-30.79 49.28) rotate(-45)"/>
          <ellipse class="cls-72" cx="46.65" cy="63.6" rx="0.16" ry="0.8" transform="translate(-31.76 72.2) rotate(-60)"/>
          <ellipse class="cls-72" cx="43.76" cy="62.3" rx="0.16" ry="0.8" transform="translate(-30.95 76.98) rotate(-66.03)"/>
          <ellipse class="cls-72" cx="44.55" cy="61.51" rx="0.16" ry="0.8" transform="translate(-24.78 30.51) rotate(-30)"/>
          <ellipse class="cls-72" cx="45.88" cy="64.36" rx="0.16" ry="0.8" transform="translate(-26.03 31.56) rotate(-30)"/>
          <ellipse class="cls-72" cx="46.34" cy="64.05" rx="0.16" ry="0.8" transform="translate(-31.72 51.53) rotate(-45)"/>
          <ellipse class="cls-72" cx="46.78" cy="62.93" rx="0.8" ry="0.16"/>
          <ellipse class="cls-72" cx="45.21" cy="61.36" rx="0.16" ry="0.8"/>
          <ellipse class="cls-72" cx="45.75" cy="61.46" rx="0.8" ry="0.16" transform="translate(-26.18 87.86) rotate(-73.49)"/>
          <ellipse class="cls-72" cx="44.66" cy="64.41" rx="0.8" ry="0.16" transform="translate(-29.79 88.92) rotate(-73.49)"/>
          <ellipse class="cls-72" cx="45.21" cy="64.51" rx="0.16" ry="0.8"/>
        </g>
        <g>
          <ellipse class="cls-66" cx="31.94" cy="55.87" rx="1.01" ry="0.2"/>
          <ellipse class="cls-66" cx="32.52" cy="57.29" rx="1.01" ry="0.2" transform="translate(-30.98 39.77) rotate(-45)"/>
          <ellipse class="cls-66" cx="35.33" cy="54.48" rx="1.01" ry="0.2" transform="translate(-28.18 40.94) rotate(-45)"/>
          <ellipse class="cls-66" cx="35.76" cy="55.06" rx="1.01" ry="0.2" transform="translate(-20.47 21.17) rotate(-25.93)"/>
          <ellipse class="cls-66" cx="32.1" cy="56.67" rx="1.01" ry="0.2" transform="translate(-21.54 19.74) rotate(-25.93)"/>
          <ellipse class="cls-66" cx="32.52" cy="54.45" rx="0.2" ry="1.01" transform="translate(-28.97 38.94) rotate(-45)"/>
          <ellipse class="cls-66" cx="35.76" cy="56.72" rx="0.2" ry="1.01" transform="translate(-31.25 59.33) rotate(-60)"/>
          <ellipse class="cls-66" cx="32.1" cy="55.08" rx="0.2" ry="1.01" transform="translate(-31.27 62.04) rotate(-66.03)"/>
          <ellipse class="cls-66" cx="33.1" cy="54.07" rx="0.2" ry="1.01" transform="translate(-22.6 23.79) rotate(-30)"/>
          <ellipse class="cls-66" cx="34.78" cy="57.68" rx="0.2" ry="1.01" transform="translate(-24.18 25.12) rotate(-30)"/>
          <ellipse class="cls-66" cx="35.36" cy="57.29" rx="0.2" ry="1.01" transform="translate(-30.15 41.78) rotate(-45)"/>
          <ellipse class="cls-66" cx="35.92" cy="55.87" rx="1.01" ry="0.2"/>
          <ellipse class="cls-66" cx="33.94" cy="53.89" rx="0.2" ry="1.01"/>
          <ellipse class="cls-66" cx="34.62" cy="54.02" rx="1.01" ry="0.2" transform="translate(-27.01 71.86) rotate(-73.49)"/>
          <ellipse class="cls-66" cx="33.24" cy="57.74" rx="1.01" ry="0.2" transform="translate(-31.57 73.2) rotate(-73.49)"/>
          <ellipse class="cls-66" cx="33.94" cy="57.86" rx="0.2" ry="1.01"/>
        </g>
      </g>
    </g>
  </g>
</svg>
