<svg xmlns="http://www.w3.org/2000/svg" xmlns:xlink="http://www.w3.org/1999/xlink" viewBox="0 0 83 83">
  <defs>
    <style>
      .cls-1, .cls-2, .cls-25 {
        fill: none;
      }

      .cls-2 {
        stroke: #eb593d;
      }

      .cls-18, .cls-2, .cls-25, .cls-9 {
        stroke-miterlimit: 10;
      }

      .cls-3 {
        isolation: isolate;
      }

      .cls-4 {
        clip-path: url(#clip-path);
      }

      .cls-5 {
        fill: #272b33;
      }

      .cls-6 {
        fill: #e9e8df;
      }

      .cls-7 {
        fill: #1d1d1b;
      }

      .cls-8 {
        fill: #dd5213;
      }

      .cls-9 {
        fill: #eb9d47;
        stroke-width: 0.25px;
      }

      .cls-18, .cls-25, .cls-9 {
        stroke: #1d1d1b;
      }

      .cls-10 {
        fill: #fff;
      }

      .cls-11 {
        fill: #a84617;
      }

      .cls-12 {
        fill: #779284;
      }

      .cls-13 {
        fill: #68837a;
      }

      .cls-14 {
        fill: #a6b2a3;
      }

      .cls-15 {
        fill: #d3cbca;
      }

      .cls-16 {
        fill: #bfccb0;
      }

      .cls-17 {
        fill: #2c3a23;
      }

      .cls-18, .cls-20 {
        fill: #435437;
      }

      .cls-18 {
        stroke-width: 0.02px;
      }

      .cls-19 {
        fill: #36311e;
      }

      .cls-21 {
        fill: #2a2717;
      }

      .cls-22 {
        fill: #7787a3;
      }

      .cls-23 {
        fill: #293947;
      }

      .cls-24 {
        fill: #cfdae0;
      }

      .cls-25 {
        stroke-width: 0.15px;
      }

      .cls-26 {
        fill: #e3dcd4;
      }

      .cls-27 {
        fill: #f2f1ed;
      }

      .cls-28 {
        fill: #cdd7e0;
      }

      .cls-29 {
        fill: #91b2da;
      }

      .cls-30 {
        fill: #e3dad3;
      }

      .cls-31 {
        fill: #9abab7;
      }
    </style>
    <clipPath id="clip-path">
      <polygon class="cls-1" points="39.45 39.45 50.68 32.65 82.58 34.73 71.35 41.52 39.45 39.45"/>
    </clipPath>
  </defs>
  <g id="Livello_2" data-name="Livello 2">
    <g id="Livello_1-2" data-name="Livello 1">
      <path class="cls-2" d="M41.5,82.5a41.35,41.35,0,0,1-9.37-1.08,40.73,40.73,0,0,1-12.07-5c-.56-.34-1.1-.7-1.64-1.06h0A41,41,0,0,1,37.52.7c1.31-.13,2.63-.2,4-.2a41,41,0,0,1,0,82Z"/>
      <g>
        <g class="cls-3">
          <g class="cls-4">
            <g>
              <path class="cls-5" d="M66.21,33.72c-4.28-.28-8.78.1-10,.86l-.15.1c-.47.4,0,.82,1.31,1.16l.06,0h0l-.13.05-.08,0-.13,0c-.73-.1-1.56-.19-2.43-.24-1.24-.08-2.56-.11-3.82-.08h-.08c-3.55.08-6.92.64-6.45,1.53.2.4,1.34.77,3.12,1,.85.12,1.75.22,2.69.28,1.09.07,2.22.1,3.36.08a30.1,30.1,0,0,0,4.91-.4l.47-.09-4.93,2.29,1.66.09,1.76.13,2.83-2.46.12.13a6.22,6.22,0,0,0,2.88.91c.83.13,1.78.24,2.82.3,4.29.28,8.8-.11,10-.86.79-.48.08-1-1.85-1.42a26.31,26.31,0,0,0-3.66-.46c-1.25-.08-2.58-.11-3.83-.08h-.2l0,0,0,0v0h.09a14,14,0,0,0,5.14-.91c1.24-.76-1.24-1.6-5.53-1.87"/>
              <path class="cls-5" d="M57.14,36l.08,0,.13-.05h0l-.06,0c-1.3-.34-1.78-.76-1.31-1.16l.15-.1c1.25-.76,5.75-1.14,10-.86s6.77,1.11,5.53,1.87a14,14,0,0,1-5.14.91h-.09v0l0,0,0,0h.2c1.25,0,2.58,0,3.83.08a26.31,26.31,0,0,1,3.66.46c1.93.39,2.64.94,1.85,1.42-1.25.75-5.76,1.14-10,.86-1-.06-2-.17-2.82-.3a6.22,6.22,0,0,1-2.88-.91l-.12-.13-2.83,2.46-1.76-.13-1.66-.09L58.78,38l-.47.09a30.1,30.1,0,0,1-4.91.4c-1.14,0-2.27,0-3.36-.08-.94-.06-1.84-.16-2.69-.28-1.78-.24-2.92-.61-3.12-1-.47-.89,2.9-1.45,6.45-1.53h.08c1.26,0,2.58,0,3.82.08.87.05,1.7.14,2.43.24l.13,0m9.15-2.28c-4.42-.29-9.08.11-10.37.89l-.15.11c-.48.4,0,.83,1.3,1.19h0c-.73-.1-1.54-.18-2.39-.23-1.3-.08-2.69-.11-4-.08h-.09c-3.64.09-7.06.67-6.59,1.59.21.4,1.39.79,3.23,1.05.87.12,1.8.21,2.76.27,1.13.08,2.3.11,3.48.09A34.9,34.9,0,0,0,58,38.23l-4.57,2.13h.17l1.79.09,1.88.14.16,0,2.62-2.29a7.65,7.65,0,0,0,2.83.83c.86.14,1.84.24,2.92.31,4.44.29,9.1-.11,10.39-.9.82-.49.09-1.06-1.91-1.47a29.88,29.88,0,0,0-3.78-.47c-1.21-.08-2.48-.1-3.71-.08A13.9,13.9,0,0,0,72,35.6c1.29-.78-1.27-1.65-5.7-1.93"/>
            </g>
          </g>
        </g>
        <g>
          <path class="cls-6" d="M49.68,35.32l3.42,1a25.87,25.87,0,0,0,2.64-.13c.36-.05.61-.12.61-.21s0-.07.14,0a4,4,0,0,0,2.76.7l.29-.06c1.38-.34,1.08-.79,1.08-.79s3.08,0,1.88-1c0,0-1.79.09-1.79-.94s1.19-6,1.19-8,3.25-5.64,3.51-6.07a.55.55,0,0,0,0-.66v0h0c0-.1,0-.83-.69-.67l-.34.08c-.65.14-1.41.25-1.41.25s-2.18,0-2.43.35a5.27,5.27,0,0,1-1.29.86s-2.56.68-1.19,1.71c0,0-.86,2.22-2.23,2.73S46.94,28.14,49.68,35.32Z"/>
          <path class="cls-7" d="M61.87,20.15l-.46.22s0,0,0,0v0l.22-.46a.21.21,0,0,1,.28-.1.2.2,0,0,1,0,.37Z"/>
          <path class="cls-7" d="M64.38,18.47h0c0,.33.39.59.86.59h.17c0-.1,0-.83-.69-.67Z"/>
        </g>
        <path class="cls-7" d="M59.64,29.32a14.65,14.65,0,0,0-1.92,3.17A13.71,13.71,0,0,0,56.64,36l-.3,0a14.52,14.52,0,0,1,1.24-3.53A14.92,14.92,0,0,1,59.64,29.32Z"/>
        <path class="cls-7" d="M52,31.35a5.09,5.09,0,0,1,2.66,1.81,2.78,2.78,0,0,1,.51,1.58,4.2,4.2,0,0,1-.34,1.65l-.37-.17a3.84,3.84,0,0,0,.4-1.48,2.56,2.56,0,0,0-.37-1.47A5,5,0,0,0,52,31.35Z"/>
      </g>
      <g>
        <path class="cls-8" d="M37.88,61.94a5.43,5.43,0,0,1-5.42,5.43,6.09,6.09,0,0,1-3.8-1.28l.24,7.65a3.52,3.52,0,0,0-2.34,0l0,0,.3-7.65A6.12,6.12,0,0,1,22,67.28a5.4,5.4,0,0,1-3.36-2.09,5.47,5.47,0,0,1-1.06-3.25c0-2.31,1.52-3.73,3.06-5.24a46.05,46.05,0,0,0,6.29-8.24l.81-1.28.15.26c2.35,4.18,5.76,7.43,8.82,11.06a5.31,5.31,0,0,1,1.2,3A3.85,3.85,0,0,1,37.88,61.94Z"/>
        <path class="cls-7" d="M27.12,48.61c-.54,1.73-1.05,3.47-1.51,5.22a20.45,20.45,0,0,0-.55,2.65,2,2,0,0,0,.12,1.28,4.94,4.94,0,0,1,.25,1.36,6.2,6.2,0,0,1-1.66,5,6.19,6.19,0,0,1-5.18,1h0a5.42,5.42,0,0,1-.83-4.8c.55-1.64,1.88-2.79,3-4s2.16-2.55,3.1-3.94,1.88-2.75,2.78-4.18l1-1.62-.54,1.85Zm-.52-.15,0-.08.48.23c-.91,1.4-1.84,2.81-2.86,4.15a26.08,26.08,0,0,1-3.38,3.74c-1.17,1.18-2.5,2.32-3,3.92a5.34,5.34,0,0,0,.79,4.75h0a6.11,6.11,0,0,0,5.12-1.06,6,6,0,0,0,1.58-5,5.1,5.1,0,0,0-.28-1.3,1.8,1.8,0,0,1-.2-.68,5.3,5.3,0,0,1,0-.69,22.16,22.16,0,0,1,.43-2.71C25.62,52,26.1,50.21,26.6,48.46Z"/>
        <path class="cls-9" d="M25,57.59c.68,1.13,1.36,8.87-6.42,7.6a5.47,5.47,0,0,1-1.06-3.25c0-2.31,1.52-3.73,3.06-5.24a46.17,46.17,0,0,0,6.25-8.17h0C25.88,51.79,24.52,56.77,25,57.59Z"/>
        <g>
          <ellipse class="cls-10" cx="32.84" cy="64.3" rx="1.37" ry="2.24"/>
          <ellipse class="cls-10" cx="35.57" cy="64.05" rx="0.61" ry="0.99"/>
          <ellipse class="cls-10" cx="22.4" cy="64.3" rx="1.37" ry="2.24"/>
          <ellipse class="cls-10" cx="19.67" cy="64.05" rx="0.61" ry="0.99"/>
        </g>
        <path class="cls-11" d="M37.86,61.46a1.05,1.05,0,0,1-.8,1c-4.22,1.24-4.47-4.23-6.46-6.46-1.45-1.64-2.37-6.21-2.76-8.54,2.35,4.18,5.76,7.43,8.82,11.06A5.31,5.31,0,0,1,37.86,61.46Z"/>
        <path class="cls-7" d="M38.15,61.47a1.49,1.49,0,0,1-.27.77,1.27,1.27,0,0,1-.66.45,4.83,4.83,0,0,1-1.36.17,3.07,3.07,0,0,1-2.33-1.26c-1.07-1.43-1.44-3.13-2.27-4.62-.39-.76-1.06-1.34-1.41-2.13a17,17,0,0,1-.92-2.4,49.5,49.5,0,0,1-1.21-5h0l-.14-.72.37.64a41.24,41.24,0,0,0,5.26,6.88l2.92,3.24a9.72,9.72,0,0,1,1.37,1.76A5.86,5.86,0,0,1,38.15,61.47Zm-.57,0a5.57,5.57,0,0,0-.56-2,9.83,9.83,0,0,0-1.27-1.69l-2.86-3.28a41.88,41.88,0,0,1-5.16-7l.23-.08h0a37.1,37.1,0,0,0,1,5,15.52,15.52,0,0,0,.9,2.38,6,6,0,0,0,.68,1.08l.4.5.35.54c.85,1.48,1.38,3.17,2.47,4.44a2.63,2.63,0,0,0,2.08,1A4.56,4.56,0,0,0,37,62.14.79.79,0,0,0,37.58,61.46Z"/>
        <path class="cls-7" d="M38.12,61.94a5.62,5.62,0,0,1-3.43,5.14,5.83,5.83,0,0,1-3.17.37,5.89,5.89,0,0,1-2.93-1.26h0l.21-.1L29,73.72h0s0,0,0,0l-.17.12H28.8l-.07,0a.4.4,0,0,1-.15,0l-.28-.06a2.8,2.8,0,0,0-.58-.08,4.15,4.15,0,0,0-1.16.15h0l-.12,0v-.12l.26-7.64v0l.2.1a5.64,5.64,0,0,1-8.81-6.94,17.11,17.11,0,0,1,2.61-2.88,28.73,28.73,0,0,0,2.5-2.9A55,55,0,0,0,27.32,47v0l.37-.66.37.68a40.49,40.49,0,0,0,5.27,7.28l3,3.45a7.44,7.44,0,0,1,1.32,1.92A5.76,5.76,0,0,1,38.12,61.94Zm-.47,0a5.29,5.29,0,0,0-.45-2.11A6.59,6.59,0,0,0,35.93,58l-3-3.36a41.31,41.31,0,0,1-5.56-7.29l.73,0,0,0c-1.49,2.09-2.93,4.23-4.54,6.25a32.09,32.09,0,0,1-2.57,2.9,15.15,15.15,0,0,0-2.46,2.88,5,5,0,0,0,1.48,6.41,5.42,5.42,0,0,0,3.3,1,6.94,6.94,0,0,0,3.49-.9l.22-.13v.25l-.33,7.63-.11-.08h0a3.2,3.2,0,0,1,1.23-.27,4.44,4.44,0,0,1,.63,0l.31.07a.94.94,0,0,1,.15.06l.07,0,0,0h0c.15-.11-.21.15-.17.13s0,0,0,0h0l-.25-7.64v-.27l.22.17h0a5.57,5.57,0,0,0,2.8,1.15,5.46,5.46,0,0,0,3-.4,5.19,5.19,0,0,0,2.27-2A5.27,5.27,0,0,0,37.65,61.94Z"/>
      </g>
      <g>
        <path class="cls-12" d="M63,63.93s-.79.12-1,0A2.13,2.13,0,0,0,59.72,66c-.11,2,1,2.88,1.64,3s3.67-1.14,3.33-2.81A3.36,3.36,0,0,0,63,63.93Z"/>
        <path class="cls-13" d="M45.1,56.24s-.56.09-.73,0a1.51,1.51,0,0,0-1.64,1.53c-.08,1.45.73,2,1.17,2.13s2.61-.82,2.37-2A2.39,2.39,0,0,0,45.1,56.24Z"/>
        <path class="cls-14" d="M57.54,44.82s-.56.08-.72,0a1.5,1.5,0,0,0-1.64,1.53c-.08,1.45.73,2,1.17,2.13s2.61-.81,2.36-2A2.33,2.33,0,0,0,57.54,44.82Z"/>
        <path d="M55.3,74c-.36,0,0-.68-.24-1s-.26-.26-.48-.54-.41-.14-.63-.42-.21-.29-.43-.57-.15-.34-.37-.63-.36-.17-.58-.45-.28-.24-.5-.52-.32-.2-.54-.48.07-.51-.14-.79-.35-.18-.57-.47-.39-.15-.61-.43.28-.68.06-1-.34-.19-.56-.47-.39-.16-.61-.44-.24-.27-.46-.55.17-.59,0-.88-.42-.13-.64-.41-.05-.42-.27-.7-.43-.13-.66-.41-.3-.22-.52-.51-.6,0-.82-.27,0-.44-.24-.73-.07-.4-.29-.69-.31-.22-.53-.5.26-.66,0-1S44,59.33,44,59s-.12-.44.1-.73.32-.21.54-.49.67.07.89-.22-.24-.64,0-.92.26-.25.48-.54.29-.22.51-.51.09-.38.31-.66.12-.36.34-.64.28-.24.49-.52.53,0,.75-.33.21-.28.43-.57-.07-.51.15-.79.33-.2.55-.49.54,0,.76-.32,0-.42.27-.7.42-.13.64-.41-.24-.65,0-.93.41-.14.64-.42.3-.22.52-.5.29-.23.51-.52-.26-.66,0-1,.55,0,.77-.31.21-.3.43-.58.16-.33.39-.62.37-.17.59-.46,0-.63.35-.63a.74.74,0,0,1,.75.31c.22.29,0,.43.26.71s.29.23.51.52-.08.52.14.8.47.1.69.38-.06.5.16.79.16.33.38.61.26.26.48.54,0,.42.26.7.56,0,.78.3.08.4.3.68,0,.46.23.74.48.08.71.37.68-.08.9.2-.23.64,0,.93.59,0,.81.29.32.21.54.49.21.3.44.58-.47.82-.24,1.11.92-.27,1.15,0-.3.69-.08,1l.45.57c.23.29.37.18.59.46s.12.37.35.66,0,.47.21.76.67-.09.67.27-.21.16-.44.45-.26.25-.48.53-.35.19-.57.47-.24.27-.47.55.35.73.13,1-.7-.09-.92.2.42.78.2,1.06-.39.16-.61.44l-.44.56c-.23.28-.77-.15-1,.14s-.19.31-.42.59-.3.22-.52.51,0,.48-.19.77-.26.25-.48.54-.11.37-.33.66.06.5-.17.79-.64,0-.86.24-.33.2-.56.48-.16.33-.39.62.16.58-.06.86-.61,0-.83.27-.19.31-.42.6.32.71.1,1-.81-.18-1,.11,0,.46-.1.8S55.66,74,55.3,74Z"/>
        <ellipse class="cls-15" cx="56.4" cy="65.07" rx="0.8" ry="0.57" transform="translate(-27.73 46.69) rotate(-36.75)"/>
        <path class="cls-10" d="M61.3,57.48a6.63,6.63,0,0,1-2.49,6.44,6.74,6.74,0,0,1-10-8.58,6.73,6.73,0,0,1,2.51-2.54l0,.06A6.53,6.53,0,0,0,52,64.28a6.53,6.53,0,0,0,6.56-.65,6.67,6.67,0,0,0,2.65-6.14Z"/>
        <path class="cls-15" d="M56.79,59.11l-.17-.06s1.62,5.19-2.15,5.56c0,0-3.4-.18-3.95-2.93,0,0-.16-1.19,0-1.21s.26.62.27.7A1.37,1.37,0,0,1,52,59.72h0a1.79,1.79,0,0,1-.75-1.18,1.92,1.92,0,0,1,1.17-1.7,3.92,3.92,0,0,0,.57-.21l.08-.09c.15-.16.5-.49.69-.48l.05.05h0a1.18,1.18,0,0,1,1-2.06,1.19,1.19,0,0,1,.9,1.24h0s1.24.36,1.3,1.34a1.27,1.27,0,1,1-.21,2.5Z"/>
        <path class="cls-10" d="M53.83,55.65a1.36,1.36,0,0,1,.16-.48.52.52,0,0,1,.42-.29.52.52,0,0,1,.45.26.62.62,0,0,1,0,.5h0a.66.66,0,0,0,0-.48.48.48,0,0,0-.41-.22c-.34,0-.5.41-.57.71h0S53.82,55.65,53.83,55.65Z"/>
        <path class="cls-10" d="M56.75,57.65a.7.7,0,0,1,.84-.19.55.55,0,0,1,.28.37.51.51,0,0,1-.13.43h0a.48.48,0,0,0,.1-.41.63.63,0,0,0-.26-.34A.7.7,0,0,0,56.75,57.65Z"/>
        <path class="cls-10" d="M53.26,57.09a.86.86,0,0,0,.23.51s0,0,0,0h0a.86.86,0,0,1-.28-.52s0,0,0,0,0,0,0,0Z"/>
        <path class="cls-10" d="M54.82,58.69c.11.2.33.39.55.3l0,0s0,0,0,0h0c-.27.08-.48-.15-.58-.35Z"/>
        <path class="cls-10" d="M54.07,58.07a.16.16,0,0,0-.24,0l-.52.33c-.07,0-.13.52.24.55s.62-.68.53-.83Z"/>
        <path class="cls-10" d="M55.59,59.85c-.41-.1-.83-.15-1.22-.28a2.84,2.84,0,0,1-1-.68,2.31,2.31,0,0,1-.62-1.07,1.46,1.46,0,0,1,.24-1.18,1.45,1.45,0,0,0-.22,1.18,2.3,2.3,0,0,0,.62,1,2.72,2.72,0,0,0,1,.66c.39.12.81.17,1.21.26h0s0,0,0,0,0,0,0,0Z"/>
        <path class="cls-16" d="M48.32,60.16c.27.43.17.53,0,.63s-.3.15-.57-.28a4.44,4.44,0,0,1-.42-1.26A4.51,4.51,0,0,1,48.32,60.16Z"/>
        <path class="cls-17" d="M49.85,61.93c0,.51-.12.55-.3.56s-.33,0-.35-.53a4.51,4.51,0,0,1,.27-1.3A4.39,4.39,0,0,1,49.85,61.93Z"/>
        <path class="cls-18" d="M48.61,55.78c.06.32,0,.36-.15.38s-.22,0-.28-.29a2.81,2.81,0,0,1,0-.84A2.82,2.82,0,0,1,48.61,55.78Z"/>
        <path class="cls-16" d="M50,54.83c-.31.29-.42.21-.52.1s-.18-.23.13-.52a3.59,3.59,0,0,1,1-.52A3.51,3.51,0,0,1,50,54.83Z"/>
        <path class="cls-19" d="M60.78,61.12c-.11.4-.24.4-.39.36s-.27-.1-.16-.51a3.4,3.4,0,0,1,.55-1A3.48,3.48,0,0,1,60.78,61.12Z"/>
        <path class="cls-20" d="M59.46,63.78c-.35.23-.45.13-.53,0s-.13-.26.22-.48A3.41,3.41,0,0,1,60.2,63,3.58,3.58,0,0,1,59.46,63.78Z"/>
        <path class="cls-21" d="M48.71,58.35c-.28.31-.39.25-.51.15s-.2-.21.07-.53a3.62,3.62,0,0,1,.91-.62A3.5,3.5,0,0,1,48.71,58.35Z"/>
        <path class="cls-17" d="M61.79,59.16c-.27.31-.39.25-.51.15s-.2-.21.07-.52a3.48,3.48,0,0,1,.91-.63A3.5,3.5,0,0,1,61.79,59.16Z"/>
        <path class="cls-19" d="M57.85,64.33c-.27.32-.39.26-.51.15s-.19-.2.08-.52a3.35,3.35,0,0,1,.91-.62A3.63,3.63,0,0,1,57.85,64.33Z"/>
      </g>
      <g>
        <path class="cls-22" d="M39.77,22.68h0v.92L39.61,23l-.11-.45L39.36,22l-.12-.46-.07-.28L39.1,21v0l0-.12-.07-.3.22-.3a7,7,0,0,1,.26.69A6.88,6.88,0,0,1,39.77,22.68Z"/>
        <g>
          <path class="cls-23" d="M39.24,25.64a13.1,13.1,0,0,1-2.74,3.58l-.43.43a35.68,35.68,0,0,0-2.74,3.13,5.34,5.34,0,0,1-.93-3,5.6,5.6,0,0,1,.11-1.09h0c.05-.22.11-.43.18-.65a4.45,4.45,0,0,1,4.1-3.19A4,4,0,0,1,39.24,25.64Z"/>
          <path class="cls-24" d="M29.87,37.49v.22l0,0c-.53.83-1,1.66-1.57,2.49a6.14,6.14,0,0,1-1.15.35c-.34-.57-.68-1.12-1-1.66a48.82,48.82,0,0,0-3.31-4.35c-.65-.79-1.32-1.56-2-2.33A6.1,6.1,0,0,1,25,29.79h0a7.55,7.55,0,0,1,.83-.05,6.35,6.35,0,0,1,3.75,1.19,5.86,5.86,0,0,1,.91.81h0A5.27,5.27,0,0,1,31.7,34c0,.12.05.24.07.36h0a3.11,3.11,0,0,1,.06.44c-.64.9-1.25,1.82-1.86,2.75l0,.06Z"/>
          <path class="cls-1" d="M23.81,16.62h0l.15.11.19.15L24,16.76h0"/>
          <path class="cls-1" d="M31.75,16.55l-.44.45h-.06l.33-.41Z"/>
          <path class="cls-23" d="M32.28,34.16l-.45.62c-.64.9-1.25,1.82-1.86,2.75l-.07-.1c.31-.4,1.44-2.34,1.87-3.09h0l0,0,0-.07.06-.11L32,34Z"/>
          <path class="cls-25" d="M16.45,21.71A13.76,13.76,0,0,1,15.74,24a0,0,0,0,1,0,0,.64.64,0,0,0,0-.07v-.05Z"/>
          <path class="cls-10" d="M16.48,21.35a2.36,2.36,0,0,1,0,.35h0l0,.1-.71,2a.08.08,0,0,0,0,0v.09a0,0,0,0,0,0,0h0l-.13.3h-.47a6.75,6.75,0,0,1-.1-1.19A6.91,6.91,0,0,1,16,19.61v0h0a.1.1,0,0,1,0,0h0l.2.06A9.33,9.33,0,0,1,16.48,21.35Z"/>
          <path class="cls-22" d="M16.66,27.29h0l-.21-.22,0,.17-.05,0a6.87,6.87,0,0,1-1.29-3h.47l.13-.3v0a0,0,0,0,0,0,0v0s0,0,0,0,0,.14.06.23.14.49.23.79.09.32.13.48c.14.5.29,1,.42,1.53A1.46,1.46,0,0,1,16.66,27.29Z"/>
          <path class="cls-26" d="M16.78,27.44a5.13,5.13,0,0,1,.52.87l-.77-.93-.1-.12.05,0,0-.17.21.22h0Z"/>
          <path class="cls-26" d="M16.27,19.11l-.08.5h0l-.2-.06C16.07,19.4,16.17,19.25,16.27,19.11Z"/>
          <path class="cls-27" d="M23.81,16.62a6.47,6.47,0,0,0-6.44,1.25l-.07.06a6.46,6.46,0,0,0-1,1.18c-.1.14-.2.29-.29.44h0a.1.1,0,0,0,0,0h0v0a9.89,9.89,0,0,1,.32,1.84,1.82,1.82,0,0,1,0,.38h.2l6.93-.44h.19l1.58-3.62.08-.18,0,0,0-.1h0l-.09-.1A7.28,7.28,0,0,0,24,16.76h0Z"/>
          <path class="cls-22" d="M25.52,17.55h-.31l-.31,0h0a4.27,4.27,0,0,0-.6-.57h0l-.07-.06-.06-.05L24,16.76a7.28,7.28,0,0,1,1.16.56l-.08-.07A4.15,4.15,0,0,1,25.52,17.55Z"/>
          <path class="cls-22" d="M31.58,16.59l-.33.41-.25.31v0h-.15l-1,.05a6.25,6.25,0,0,1,1.25-.6A3,3,0,0,1,31.58,16.59Z"/>
          <path class="cls-28" d="M33.24,21.28l-.2.22h0l-2.63,2.95-4.78-.2-2.27-2.87-.08-.1v0l1.48-3.38.09-.21,0-.09.31,0h.31l.14.11.15.11a7,7,0,0,1,1.6,2l.05-.08.08.13a6.82,6.82,0,0,1,2.34-2.46l1-.05H31v0Z"/>
          <path class="cls-29" d="M39.47,21h-.13l-.25,0L33,21.5H33l-2.1-4.22-.09-.17.37-.38a3,3,0,0,1,.45-.15l.17,0a6.61,6.61,0,0,1,1.68-.22,6.39,6.39,0,0,1,1.76.24h0a6.68,6.68,0,0,1,4,3.71A7,7,0,0,1,39.47,21Z"/>
          <path class="cls-30" d="M25.63,24.25l-.11.16-.14.19-.17.23-.06.09c-.07.1-.15.22-.25.34l-.21.3c-.53.74-1.15,1.6-1.52,2.09l-.09.12-5.43.95h0c-.1-.11-.2-.22-.29-.34h0l0-.07a5.13,5.13,0,0,0-.52-.87l-.12-.15h0a1.8,1.8,0,0,0-.05-.19c-.13-.49-.28-1-.42-1.53,0-.16-.09-.32-.13-.48s-.17-.57-.23-.79,0-.16-.06-.23v0s0,0,0,0h0v0h0a0,0,0,0,1,0,0v-.09a.08.08,0,0,1,0,0l.71-2,0-.1h0l6.83-.42.08.1Z"/>
          <path class="cls-28" d="M39.77,22.68h0v.92h0a6.32,6.32,0,0,1-.52,2,13.1,13.1,0,0,1-2.74,3.58l-3.11-.79-.1,0-.09,0-.16,0-.06,0-.1,0L32.69,28l-2.28-3.54L33,21.5h0l.2-.22,5.82-.4h.26l0,.11.07.29.06.23.07.25.1.42.13.49Z"/>
          <path class="cls-27" d="M36.5,29.22l-.43.43a35.68,35.68,0,0,0-2.74,3.13q-.54.67-1,1.38L32,34a.85.85,0,0,0-.23-.06h0l-.05,0,0,0-.05-.07-.12-.17-.17-.3-.08-.16c-.15-.29-.32-.63-.47-.95l-.23-.49h0l-.23-.51a.37.37,0,0,0-.05-.11.39.39,0,0,0,0-.09l0-.07v0h0l2.39-2.28h0l.37-.34.1,0,.06,0,.16,0,.09,0,.21.05-.11,0Z"/>
          <polygon class="cls-22" points="32.88 28.3 30.12 30.93 26.06 30.93 23.08 27.77 23.17 27.65 24.69 25.56 24.91 25.26 25.03 25.08 25.15 24.92 25.21 24.83 25.38 24.6 25.52 24.41 25.63 24.25 30.41 24.45 32.88 28.3"/>
          <path class="cls-28" d="M32,34l-.05.08-.06.11,0,.07,0,0h0l-1.88,3.08v0l0,.15-.06.12,0,0h-3l-2.61-4L26.05,31v0h4.07v0l0,.07a.39.39,0,0,1,0,.09.37.37,0,0,1,.05.11l.23.51h0l.23.49c.15.32.32.66.47.95l.08.16.17.3.12.17.05.07,0,0,.05,0h0A.85.85,0,0,1,32,34Z"/>
          <polygon class="cls-31" points="18.51 31.95 18.53 31.97 18.51 31.96 18.51 31.95 18.51 31.95"/>
          <path class="cls-31" d="M26.06,30.93h0v0l-1.87,2.82,0,0-1.38.78c-.65-.79-1.32-1.56-2-2.33s-1.61-1.81-2.42-2.72l0,0h0l0-.05-.6-.71,5.43-.95,1.91,2h0Z"/>
          <polygon class="cls-28" points="18.53 31.97 18.51 31.96 18.51 31.95 18.51 31.95 18.53 31.97"/>
          <path class="cls-27" d="M29.83,37.75c-.53.83-1,1.66-1.57,2.49l-.41.67a.08.08,0,0,0,0,0l0,0-.24.38-.45-.78c-.34-.57-.68-1.12-1-1.66l.72-1.18h3Z"/>
          <path class="cls-27" d="M30,37.53l0,.06,0-.15h0Z"/>
        </g>
      </g>
    </g>
  </g>
</svg>
