<svg xmlns="http://www.w3.org/2000/svg" xmlns:xlink="http://www.w3.org/1999/xlink" viewBox="0 0 83 83">
  <defs>
    <style>
      .cls-1, .cls-16, .cls-17, .cls-2, .cls-20 {
        fill: none;
      }

      .cls-2 {
        stroke: #eb593d;
      }

      .cls-14, .cls-16, .cls-17, .cls-19, .cls-2, .cls-20 {
        stroke-miterlimit: 10;
      }

      .cls-3 {
        fill: #b0dbd6;
      }

      .cls-4 {
        fill: #cce8e7;
      }

      .cls-5 {
        fill: #cc9ac6;
      }

      .cls-6 {
        fill: #debfdc;
      }

      .cls-7 {
        fill: #d8d68a;
      }

      .cls-8 {
        isolation: isolate;
      }

      .cls-9 {
        clip-path: url(#clip-path);
      }

      .cls-10, .cls-14, .cls-19 {
        fill: #fff;
      }

      .cls-11 {
        fill: #1d1d1b;
      }

      .cls-12 {
        clip-path: url(#clip-path-2);
      }

      .cls-13 {
        clip-path: url(#clip-path-3);
      }

      .cls-14, .cls-16, .cls-17, .cls-19, .cls-20 {
        stroke: #1d1d1b;
      }

      .cls-14 {
        stroke-width: 0.01px;
      }

      .cls-15 {
        clip-path: url(#clip-path-4);
      }

      .cls-16, .cls-19 {
        stroke-width: 0.02px;
      }

      .cls-17 {
        stroke-width: 0.03px;
      }

      .cls-18 {
        fill: #efe8bd;
      }

      .cls-20 {
        stroke-width: 0.02px;
      }
    </style>
    <clipPath id="clip-path">
      <polygon class="cls-1" points="24.42 78.38 0.63 30.3 47.98 18.5 71.77 66.57 24.42 78.38"/>
    </clipPath>
    <clipPath id="clip-path-2">
      <polygon class="cls-1" points="37.9 58.79 22.1 26.86 53.54 19.02 69.35 50.95 37.9 58.79"/>
    </clipPath>
    <clipPath id="clip-path-3">
      <polygon class="cls-1" points="49.82 39.48 42.17 24.02 57.4 20.22 65.05 35.68 49.82 39.48"/>
    </clipPath>
    <clipPath id="clip-path-4">
      <polygon class="cls-1" points="58.49 30.81 50.84 15.35 66.06 11.55 73.72 27.01 58.49 30.81"/>
    </clipPath>
  </defs>
  <g id="Livello_2" data-name="Livello 2">
    <g id="Livello_1-2" data-name="Livello 1">
      <path class="cls-2" d="M41.5,82.5a41.35,41.35,0,0,1-9.37-1.08,40.73,40.73,0,0,1-12.07-5c-.56-.34-1.1-.7-1.64-1.06h0A41,41,0,0,1,37.52.7c1.31-.13,2.63-.2,4-.2a41,41,0,0,1,0,82Z"/>
      <circle class="cls-3" cx="27.1" cy="36.49" r="18.46"/>
      <circle class="cls-4" cx="21.62" cy="31.11" r="7.89"/>
      <circle class="cls-5" cx="54.2" cy="57.8" r="11.38"/>
      <circle class="cls-6" cx="58.29" cy="55.71" r="4.74"/>
      <circle class="cls-7" cx="53.75" cy="21.74" r="6.26"/>
      <g class="cls-8">
        <g class="cls-9">
          <g>
            <path class="cls-10" d="M45.14,40l-1,2.56L50.76,46l1-2.56L45.14,40M26.92,37.45,20.7,39l1,2,4.2-1,1-2.54M42,33.68l-6.23,1.56-1,2.55L41,36.23l3.14,6.33,1-2.55L42,33.68"/>
            <path class="cls-11" d="M26.94,37.44,20.7,39l6.22-1.55-1,2.54-4.2,1v0L25.93,40l1-2.57M42,33.68l-6.23,1.56-1,2.57h0L41,36.25l3.13,6.33L50.75,46l1-2.57-1,2.56-6.62-3.37h0l0,0h0L41,36.23l-6.22,1.56,1-2.55L42,33.68,45.13,40,42,33.68"/>
            <path class="cls-10" d="M38.11,65.08l-9.37,2.33-1,2.55,9.37-2.34,10,5.08,1-2.55-10-5.07m-24-12.27-1,2.56,10,5.07L27.72,70l1-2.54L24,57.89l-10-5.08"/>
            <polyline class="cls-11" points="14.04 52.8 13.04 55.37 23 60.45 27.72 69.98 37.1 67.64 47.08 72.73 48.09 70.14 48.09 70.15 47.08 72.72 47.07 72.71 47.07 72.7 37.1 67.62 27.74 69.96 27.73 69.98 27.71 69.97 27.72 69.95 23.01 60.44 13.05 55.37 14.06 52.81 24.01 57.89 28.72 67.41 24.01 57.89 14.04 52.8"/>
            <path class="cls-10" d="M28.11,34.42h0l1-2.58,6.64,3.38L42,33.67,45.15,40l6.63,3.39-3.21,8.16,2.12,4.28-4.21,1.05-2.2,5.58-6.64-3.38-6.25,1.56L28.26,54.3l-6.64-3.39,2.19-5.59L20.68,39l6.25-1.56,1.18-3M25.33,24.17,22,32.55l-9.38,2.34,4.71,9.52-1,2.59h0l-2.28,5.79,10,5.08,4.72,9.53,9.37-2.34,10,5.08,2.28-5.8h0l1-2.59,9.37-2.33L56,49.89h0l3.3-8.39-10-5.07-4.72-9.52-9.37,2.34h0l-10-5.08"/>
            <path class="cls-11" d="M16.33,47,14,52.8l10,5.09,4.71,9.52h0l9.37-2.33,10,5.07h0l2.29-5.81h0l-2.28,5.8-10-5.08L28.74,67.4,24,57.87l-10-5.08L16.34,47v0M28.11,34.42l-1.18,3L20.68,39l3.13,6.33-2.19,5.59,6.64,3.39,3.13,6.34,6.25-1.56,6.64,3.38,2.2-5.58,4.21-1.05-2.12-4.28,3.21-8.16L45.15,40,42,33.67l-6.25,1.55h0L42,33.68,45.13,40h0l6.62,3.37-1,2.57-2.19,5.58h0l2.12,4.28-4.21,1-2.19,5.58-6.63-3.38L31.4,60.62l-3.13-6.33L21.64,50.9l2.19-5.57-2.11-4.27v0l-1-2,6.24-1.56h0l1.18-3h0m-15.48.46h0M25.32,24.15,22,32.54l-9.37,2.34h0L22,32.55l3.3-8.38,10,5.08h0l9.37-2.34,4.72,9.52,10,5.07L56,49.89h0l4.71,9.53h0L56.06,49.9l3.3-8.4-10-5.08-4.72-9.53-9.39,2.34-10-5.08"/>
            <polyline class="cls-10" points="29.13 31.86 28.13 34.41 34.74 37.79 35.75 35.24 29.13 31.86"/>
            <path class="cls-11" d="M34.74,37.79l-6.61-3.38,1-2.55,6.62,3.38-1,2.55m-5.62-5.95-1,2.58h0l6.62,3.37h0l1-2.57h0l-6.64-3.38"/>
            <polyline class="cls-10" points="12.64 34.9 11.64 37.46 16.34 46.96 17.34 44.41 12.64 34.9"/>
            <path class="cls-11" d="M16.34,47l-4.7-9.5,1-2.56,4.7,9.51-1,2.55m-3.7-12.09h0l-1,2.56L16.33,47v0h0l1-2.59-4.71-9.52h0"/>
            <polyline class="cls-11" points="28.73 67.4 28.72 67.41 27.72 69.95 27.71 69.97 27.73 69.98 27.74 69.96 28.73 67.41 28.74 67.41 28.73 67.4"/>
            <polyline class="cls-11" points="48.07 70.14 48.07 70.15 47.07 72.7 47.07 72.71 47.08 72.72 48.09 70.15 48.07 70.14"/>
            <polyline class="cls-10" points="60.75 59.43 51.39 61.77 50.38 64.31 59.75 61.98 60.75 59.43"/>
            <path class="cls-11" d="M50.38,64.31l1-2.54,9.36-2.34-1,2.55-9.37,2.33m10.4-4.9h0l-9.37,2.33-1,2.59h0L59.76,62l1-2.58"/>
            <polyline class="cls-11" points="45.13 40.01 44.13 42.56 44.12 42.57 44.14 42.59 44.14 42.58 45.14 40.02 45.14 40.01 45.13 40.01"/>
          </g>
        </g>
      </g>
      <g class="cls-8">
        <g class="cls-12">
          <g>
            <polyline class="cls-10" points="30.98 41.86 30.34 43.48 36.97 46.86 40.1 53.19 46.34 51.63 46.34 51.64 52.98 55.02 53.6 53.4 46.98 50.02 40.74 51.58 37.6 45.24 30.98 41.86"/>
            <polyline class="cls-11" points="30.96 41.86 30.32 43.48 36.96 46.87 40.1 53.21 46.34 51.65 52.98 55.03 53.63 53.39 53.62 53.41 53.6 53.4 52.98 55.02 46.34 51.64 46.34 51.63 40.1 53.19 36.97 46.86 30.34 43.48 30.98 41.86 37.6 45.24 40.74 51.58 46.98 50.02 40.74 51.58 37.6 45.24 30.96 41.86"/>
            <polyline class="cls-10" points="38.47 22.81 36.28 28.38 30.04 29.94 33.18 36.28 33.17 36.28 30.98 41.85 37.61 45.23 40.75 51.57 46.98 50.01 53.61 53.39 55.16 49.45 55.16 49.45 55.81 47.81 62.04 46.26 58.91 39.92 61.11 34.34 54.48 30.97 51.34 24.63 45.1 26.18 45.1 26.18 38.47 22.81"/>
            <path class="cls-11" d="M33.18,36.28h0l-.64,1.64v0l-1.56,4,6.64,3.38,3.14,6.34L47,50,53.6,53.4h0v0l1.55-3.94h0l-1.55,3.94L47,50l-6.23,1.56-3.14-6.34L31,41.85l2.19-5.57h0M30,29.92h0m8.43-7.14-2.2,5.59L30,29.92v0l6.24-1.56,2.19-5.57,6.63,3.37h0l6.24-1.55L54.48,31l6.63,3.37-2.2,5.58L62,46.26h0l-3.13-6.33,2.19-5.58L54.49,31l-3.14-6.34L45.1,26.16l-6.64-3.38"/>
            <polyline class="cls-10" points="30.04 29.96 29.4 31.57 32.53 37.88 33.16 36.27 30.04 29.96"/>
            <path class="cls-11" d="M32.53,37.88,29.4,31.57,30,30l3.12,6.31-.63,1.61m-2.5-8h0l-.64,1.62h0l3.14,6.34v0l.64-1.64h0L30,29.94v0h0"/>
            <polyline class="cls-10" points="62.04 46.27 55.82 47.82 55.19 49.43 61.41 47.88 62.04 46.27"/>
            <path class="cls-11" d="M55.19,49.43l.63-1.61L62,46.27l-.63,1.61-6.22,1.55m6.88-3.18h0l-6.23,1.55-.65,1.64h0l6.24-1.56.65-1.64"/>
          </g>
        </g>
      </g>
      <g class="cls-8">
        <g class="cls-13">
          <g>
            <polyline class="cls-10" points="49.8 22.14 48.69 24.95 45.55 25.74 47.13 28.93 46.02 31.74 49.36 33.45 50.94 36.64 54.08 35.85 54.09 35.86 57.43 37.56 58.53 34.74 61.68 33.96 60.11 30.77 60.1 30.77 61.21 27.95 57.87 26.25 56.29 23.06 53.14 23.84 49.8 22.14"/>
            <path class="cls-11" d="M50.94,36.64l-1.58-3.2L46,31.74l1.11-2.81-1.58-3.19L48.69,25l1.11-2.81,3.34,1.71,3.15-.79,1.58,3.19L61.21,28,60.1,30.77h0L61.68,34l-3.15.78-1.1,2.82-3.34-1.7h0l-3.14.79M49.78,22.12l-1.11,2.82-3.15.79,1.59,3.2L46,31.75l3.35,1.71,1.58,3.2,3.15-.79,3.36,1.71,1.11-2.82L61.7,34l-1.59-3.2L61.22,28l-3.35-1.71L56.29,23l-3.15.79-3.36-1.71"/>
          </g>
        </g>
      </g>
      <g>
        <ellipse class="cls-14" cx="54.2" cy="30.22" rx="0.3" ry="0.64" transform="translate(-0.25 59.98) rotate(-57.8)"/>
        <path class="cls-14" d="M59.38,23.18l-4.65,7.38c-.08.14-.4.1-.69-.08s-.47-.46-.38-.6l4.64-7.37c.09-.14.4-.11.7.08S59.47,23,59.38,23.18Z"/>
        <ellipse class="cls-14" cx="58.84" cy="22.85" rx="0.3" ry="0.64" transform="translate(8.15 60.46) rotate(-57.8)"/>
      </g>
      <g class="cls-8">
        <g class="cls-15">
          <g>
            <polyline class="cls-10" points="58.46 13.47 57.36 16.29 54.21 17.07 55.79 20.26 55.79 20.27 54.69 23.07 58.03 24.79 59.61 27.98 62.76 27.19 66.09 28.9 67.2 26.09 70.34 25.3 68.77 22.11 68.77 22.1 69.87 19.29 66.53 17.59 64.95 14.39 61.8 15.18 58.46 13.47"/>
            <path class="cls-11" d="M59.61,28,58,24.79l-3.34-1.72,1.1-2.8h0l-1.58-3.19,3.15-.78,1.1-2.81,3.34,1.7L65,14.39l1.58,3.2,3.34,1.7-1.1,2.81h0l1.57,3.19-3.14.78L66.1,28.9l-3.35-1.71L59.61,28M58.45,13.45l-1.11,2.82-3.15.79,1.58,3.2-1.11,2.82L58,24.79,59.6,28l3.15-.79,3.35,1.7,1.12-2.81,3.15-.79-1.59-3.2,1.11-2.83-3.35-1.7L65,14.38l-3.15.78-3.35-1.71"/>
          </g>
        </g>
      </g>
      <line class="cls-16" x1="61.99" y1="15.38" x2="64.83" y2="14.69"/>
      <line class="cls-16" x1="61.65" y1="15.79" x2="64.49" y2="15.1"/>
      <line class="cls-16" x1="67.22" y1="25.9" x2="70.05" y2="25.21"/>
      <line class="cls-16" x1="67.23" y1="25.69" x2="70.06" y2="25"/>
      <line class="cls-16" x1="65.68" y1="28.42" x2="63.08" y2="27.09"/>
      <line class="cls-16" x1="57.43" y1="36.95" x2="54.83" y2="35.61"/>
      <line class="cls-16" x1="65.95" y1="28.35" x2="63.36" y2="27.02"/>
      <line class="cls-16" x1="57.08" y1="37.08" x2="54.49" y2="35.75"/>
      <line class="cls-17" x1="61.14" y1="45.64" x2="56.88" y2="46.7"/>
      <line class="cls-17" x1="60.88" y1="46.11" x2="56.62" y2="47.18"/>
      <line class="cls-16" x1="54.89" y1="23.06" x2="55.98" y2="20.35"/>
      <line class="cls-16" x1="55.1" y1="23.12" x2="55.61" y2="21.81"/>
      <circle class="cls-18" cx="51.94" cy="19.42" r="2.25"/>
      <line class="cls-16" x1="49.9" y1="22.42" x2="48.87" y2="25.04"/>
      <line class="cls-16" x1="50.04" y1="22.63" x2="49.01" y2="25.24"/>
      <line class="cls-16" x1="47.46" y1="29.04" x2="46.36" y2="31.62"/>
      <line class="cls-16" x1="47.59" y1="29.25" x2="46.5" y2="31.83"/>
      <path class="cls-19" d="M53.68,29.92a1.24,1.24,0,0,0,1,.62"/>
      <path class="cls-19" d="M53.75,29.78s.28.48.62.55"/>
      <line class="cls-16" x1="57.95" y1="25.24" x2="54.78" y2="30.19"/>
      <line class="cls-16" x1="38.55" y1="23.04" x2="36.63" y2="27.99"/>
      <line class="cls-16" x1="38.69" y1="23.25" x2="36.7" y2="28.48"/>
      <line class="cls-16" x1="31.4" y1="41.75" x2="37.59" y2="44.91"/>
      <line class="cls-16" x1="31.88" y1="41.54" x2="38.07" y2="44.77"/>
      <line class="cls-16" x1="47.42" y1="49.93" x2="53.54" y2="53.02"/>
      <line class="cls-16" x1="47.42" y1="49.52" x2="53.41" y2="52.61"/>
      <line class="cls-16" x1="13.04" y1="35.01" x2="17.51" y2="44.09"/>
      <line class="cls-16" x1="13.3" y1="34.93" x2="17.98" y2="44.49"/>
      <line class="cls-16" x1="24.45" y1="57.98" x2="28.92" y2="66.98"/>
      <line class="cls-16" x1="24.87" y1="57.98" x2="29.34" y2="66.98"/>
      <line class="cls-16" x1="46.74" y1="57.15" x2="44.6" y2="62.65"/>
      <line class="cls-16" x1="46.94" y1="57.36" x2="44.81" y2="62.86"/>
      <line class="cls-16" x1="60.42" y1="59.14" x2="51.41" y2="61.41"/>
      <line class="cls-16" x1="60.21" y1="58.73" x2="51.21" y2="61"/>
      <line class="cls-16" x1="26.72" y1="37.55" x2="25.76" y2="39.89"/>
      <line class="cls-16" x1="26.38" y1="37.9" x2="25.62" y2="39.82"/>
      <line class="cls-20" x1="29.47" y1="31.43" x2="32.47" y2="37.5"/>
      <line class="cls-20" x1="29.58" y1="31.24" x2="32.58" y2="37.31"/>
      <line class="cls-16" x1="29.2" y1="32.05" x2="28.31" y2="34.32"/>
      <line class="cls-16" x1="29.27" y1="32.19" x2="28.37" y2="34.46"/>
      <line class="cls-16" x1="21.57" y1="51.1" x2="28.17" y2="54.47"/>
      <line class="cls-16" x1="21.77" y1="51.44" x2="28.37" y2="54.81"/>
      <line class="cls-16" x1="40.75" y1="51.65" x2="40.2" y2="53.09"/>
      <line class="cls-16" x1="40.96" y1="51.58" x2="40.41" y2="53.02"/>
      <line class="cls-16" x1="46.87" y1="50.21" x2="45.29" y2="50.62"/>
      <line class="cls-16" x1="46.8" y1="50.34" x2="45.22" y2="50.76"/>
      <line class="cls-16" x1="38.07" y1="65.33" x2="47.35" y2="70.08"/>
      <line class="cls-16" x1="38.07" y1="65.68" x2="47.35" y2="70.42"/>
      <line class="cls-16" x1="25.42" y1="24.62" x2="22.39" y2="32.53"/>
      <line class="cls-16" x1="25.55" y1="24.9" x2="22.53" y2="32.81"/>
    </g>
  </g>
</svg>
