<svg xmlns="http://www.w3.org/2000/svg" viewBox="0 0 83 83">
  <defs>
    <style>
      .cls-1, .cls-2 {
        fill: none;
        stroke-miterlimit: 10;
      }

      .cls-1 {
        stroke: #eb593d;
      }

      .cls-2 {
        stroke: #1d1d1b;
      }
    </style>
  </defs>
  <g id="Livello_2" data-name="Livello 2">
    <g id="Livello_1-2" data-name="Livello 1">
      <path class="cls-1" d="M41.5,82.5a41.35,41.35,0,0,1-9.37-1.08,40.73,40.73,0,0,1-12.07-5c-.56-.34-1.1-.7-1.64-1.06h0A41,41,0,0,1,37.52.7c1.31-.13,2.63-.2,4-.2a41,41,0,0,1,0,82Z"/>
      <path class="cls-2" d="M18.71,40.13S24,35.65,31.09,30.4c8-5.91,18.13-12.8,25.41-15.34,0,0-23.69,22.67-24.15,23.87"/>
      <path class="cls-2" d="M33.17,28.92s14.75-8.2,24.15-7.37"/>
      <path class="cls-2" d="M26.58,62.58c6.23-1.77,13.66-2.16,20.38-2a134.74,134.74,0,0,1,18.88,1.89s-5.34,2.94-13.46.64c-2.65-.75-4.44-1.58-5.42-2.53-2-1.94-.66-4.41,3.49-7.88A12.08,12.08,0,0,1,54,50.65c6.16-2.34,12.24,1.12,7.84,3.44-6.32,3.32-7.49-.71-7.84-3.44,0-.32-.07-.62-.09-.89"/>
      <path class="cls-2" d="M37.61,39.39l0,0,0,0c.83-.81,8.43-8.3,7.21-9.7S33,39.39,33,39.39"/>
      <path class="cls-2" d="M42.1,59.85C42.4,59.46,53,45.68,53.51,48c.08.35.17.9.3,1.56"/>
      <path class="cls-2" d="M42.09,59.86h0c.24-.41,8.2-13.49,7.92-16.76S33.81,60,33.81,60C33.86,57.63,64,17.1,64,17.1,46,27.36,10.3,66.89,10.3,66.89"/>
    </g>
  </g>
</svg>
