<svg xmlns="http://www.w3.org/2000/svg" viewBox="0 0 83 83">
  <defs>
    <style>
      .cls-1 {
        fill: #86cfeb;
      }

      .cls-2 {
        fill: #63bde6;
      }

      .cls-3, .cls-5, .cls-6, .cls-7, .cls-8, .cls-9 {
        fill: none;
        stroke-miterlimit: 10;
      }

      .cls-3 {
        stroke: #1e1f1d;
        stroke-width: 0.15px;
      }

      .cls-4 {
        fill: #1e1e1c;
      }

      .cls-5, .cls-6, .cls-7, .cls-8 {
        stroke: #1e1e1c;
      }

      .cls-5 {
        stroke-width: 0.16px;
      }

      .cls-6 {
        stroke-width: 0.16px;
      }

      .cls-7 {
        stroke-width: 0.16px;
      }

      .cls-8 {
        stroke-width: 0.16px;
      }

      .cls-9 {
        stroke: #eb593d;
      }
    </style>
  </defs>
  <g id="Livello_2" data-name="Livello 2">
    <g id="Livello_1-2" data-name="Livello 1">
      <g>
        <path class="cls-1" d="M48.16,60.08a6.89,6.89,0,0,1-1.74,3.11A9.22,9.22,0,0,1,33.61,64a9,9,0,0,1-2.08-2.63,8.75,8.75,0,0,1,2.56-11,9,9,0,0,1,5.54-1.88,9.21,9.21,0,0,1,2.59.37c.27.08-.16,2.41-.22,2.65a9.34,9.34,0,0,1-10.11,7,7.36,7.36,0,0,0,2.24,1,22.6,22.6,0,0,0,12.54.89A7.43,7.43,0,0,1,48.16,60.08Z"/>
        <path class="cls-2" d="M57.12,24.77a17.35,17.35,0,0,0-3.43-4.47,15.43,15.43,0,0,0-4.39-2.9c-.33-.14-.65-.27-1-.39a20.59,20.59,0,0,0-9.13-1,21.63,21.63,0,0,0-6.55,1.77,22.27,22.27,0,0,0-12,28.5,24.32,24.32,0,0,0,3.61,6.42c1.15,1.45,3.51,4.24,5.52,4.6a1.43,1.43,0,0,0,.29,0,1.91,1.91,0,0,0,0-.48,9.07,9.07,0,0,1,3.52-7.18h0A10.05,10.05,0,0,1,47,50.5l.13.14a14.92,14.92,0,0,0,1.73-.77A18.35,18.35,0,0,0,57.12,24.77Zm-2.07,9.62A3.39,3.39,0,0,1,49.5,38.2a3.39,3.39,0,1,1,5.55-3.81Z"/>
        <path class="cls-3" d="M71.87,14a38.33,38.33,0,0,0-3.53-3.45"/>
        <path class="cls-3" d="M16.18,9.27a40.81,40.81,0,0,0-5,4.7h-.25v.28A41.14,41.14,0,0,0,7,19.36"/>
        <path class="cls-3" d="M21.63,5.64a41.79,41.79,0,0,0-4.69,3"/>
        <line class="cls-3" x1="0.47" y1="45.67" x2="0.47" y2="40.4"/>
        <path class="cls-3" d="M1,35a40.38,40.38,0,0,1,1.21-5.3A41.81,41.81,0,0,1,4,24.81c.47-1,1-2.08,1.54-3.08"/>
        <path class="cls-3" d="M25.62,3.7l.91-.37a41,41,0,0,1,5.31-1.68,41.58,41.58,0,0,1,5.3-.91l.38,0c1.32-.13,2.64-.2,4-.2h.91a42.88,42.88,0,0,1,5,.41c1.23.18,2.45.41,3.64.69.56.13,1.11.28,1.66.43A42,42,0,0,1,57.41,3.7H58V4a40,40,0,0,1,5.45,2.91c.91.57,1.79,1.18,2.64,1.82"/>
        <path class="cls-3" d="M80.77,29.72A37.06,37.06,0,0,0,79,24.81a0,0,0,0,0,0,0A38.8,38.8,0,0,0,76,19.36,36.91,36.91,0,0,0,73.64,16"/>
        <polyline class="cls-3" points="42.41 82.49 42.41 82.4 42.41 77.03 42.41 71.64 42.41 66.55 42.41 61.1 42.41 55.81 42.41 50.65 42.41 45.67 42.41 40.4 42.41 35.02 42.41 29.72 42.41 24.81 42.41 19.36 42.41 13.97 42.41 8.68 42.41 3.7 42.41 0.51"/>
        <polyline class="cls-3" points="10.88 68.76 10.88 66.55 10.88 61.1 10.88 55.81 10.88 50.65 10.88 45.67 10.88 40.4 10.88 35.02 10.88 29.72 10.88 24.81 10.88 19.36 10.88 14.25 10.88 13.97"/>
        <polyline class="cls-3" points="21.63 5.64 21.63 8.68 21.63 13.97 21.63 19.36 21.63 24.81 21.63 29.72 21.63 35.02 21.63 40.4 21.63 45.67 21.63 50.65 21.63 55.81 21.63 61.1 21.63 66.55 21.63 71.64 21.63 77.03 21.63 77.37"/>
        <polyline class="cls-3" points="16.18 9.27 16.18 13.97 16.18 19.36 16.18 24.81 16.18 29.72 16.18 35.02 16.18 40.4 16.18 45.67 16.18 50.65 16.18 55.81 16.18 61.1 16.18 66.55 16.18 71.64 16.18 73.75"/>
        <polyline class="cls-3" points="5.58 61.28 5.58 61.1 5.58 55.81 5.58 50.65 5.58 45.67 5.58 40.4 5.58 35.02 5.58 29.72 5.58 24.81 5.58 21.73"/>
        <line class="cls-3" x1="0.46" y1="45.67" x2="0.46" y2="40.4"/>
        <polyline class="cls-3" points="31.84 81.36 31.84 77.03 31.84 71.64 31.84 66.55 31.84 61.1 31.84 55.81 31.84 50.65 31.84 45.67 31.84 40.4 31.84 35.02 31.84 29.72 31.84 24.81 31.84 19.36 31.84 13.97 31.84 8.68 31.84 3.7 31.84 1.65"/>
        <polyline class="cls-3" points="37.14 82.4 37.14 82.27 37.14 77.03 37.14 71.64 37.14 66.55 37.14 61.1 37.14 55.81 37.14 50.65 37.14 45.67 37.14 40.4 37.14 35.02 37.14 29.72 37.14 24.81 37.14 19.36 37.14 13.97 37.14 8.68 37.14 3.7 37.14 0.74"/>
        <polyline class="cls-3" points="26.53 3.33 26.53 3.7 26.53 8.68 26.53 13.97 26.53 19.36 26.53 24.81 26.53 29.72 26.53 35.02 26.53 40.4 26.53 45.67 26.53 50.65 26.53 55.81 26.53 61.1 26.53 66.55 26.53 71.64 26.53 77.03 26.53 79.68"/>
        <polyline class="cls-3" points="52.68 80.95 52.68 77.03 52.68 71.64 52.68 66.55 52.68 61.1 52.68 55.81 52.68 50.65 52.68 45.67 52.68 40.4 52.68 35.02 52.68 29.72 52.68 24.81 52.68 19.36 52.68 13.97 52.68 8.68 52.68 3.7 52.68 2.04"/>
        <polyline class="cls-3" points="63.43 6.86 63.43 8.68 63.43 13.97 63.43 19.36 63.43 24.81 63.43 29.72 63.43 35.02 63.43 40.4 63.43 45.67 63.43 50.65 63.43 55.81 63.43 61.1 63.43 66.55 63.43 76.38"/>
        <polyline class="cls-3" points="57.98 79.05 57.98 77.03 57.98 71.64 57.98 66.55 57.98 61.1 57.98 55.81 57.98 50.65 57.98 45.67 57.98 40.4 57.98 35.02 57.98 29.72 57.98 24.81 57.98 19.36 57.98 13.97 57.98 8.68 57.98 3.95 57.98 3.7"/>
        <polyline class="cls-3" points="47.38 0.92 47.38 3.7 47.38 8.68 47.38 13.97 47.38 19.36 47.38 24.81 47.38 29.72 47.38 35.02 47.38 40.4 47.38 45.67 47.38 50.65 47.38 55.81 47.38 61.1 47.38 66.55 47.38 71.64 47.38 77.03 47.38 82.08 47.38 82.4"/>
        <polyline class="cls-3" points="73.64 16.04 73.64 19.36 73.64 24.81 73.64 29.72 73.64 35.02 73.64 40.4 73.64 45.67 73.64 50.65 73.64 55.81 73.64 61.1 73.64 66.55 73.64 66.95"/>
        <polyline class="cls-3" points="78.94 24.78 78.94 24.81 78.94 29.72 78.94 35.02 78.94 40.4 78.94 45.67 78.94 50.65 78.94 55.81 78.94 58.24"/>
        <polyline class="cls-3" points="68.34 71.64 68.34 66.55 68.34 61.1 68.34 55.81 68.34 50.65 68.34 45.67 68.34 40.4 68.34 35.02 68.34 29.72 68.34 24.81 68.34 19.36 68.34 13.97 68.34 10.52"/>
        <polyline class="cls-3" points="0.46 45.67 0.47 45.67 0.71 45.67 5.58 45.67 10.88 45.67 16.18 45.67 21.63 45.67 26.53 45.67 31.84 45.67 37.14 45.67 42.41 45.67 47.38 45.67 52.68 45.67 57.98 45.67 63.43 45.67 68.34 45.67 73.64 45.67 78.94 45.67 82.29 45.67"/>
        <polyline class="cls-3" points="10.88 13.97 11.13 13.97 16.18 13.97 21.63 13.97 26.53 13.97 31.84 13.97 37.14 13.97 42.41 13.97 47.38 13.97 52.68 13.97 57.98 13.97 63.43 13.97 68.34 13.97 71.87 13.97"/>
        <polyline class="cls-3" points="78.95 24.81 78.94 24.81 73.64 24.81 68.34 24.81 63.43 24.81 57.98 24.81 52.68 24.81 47.38 24.81 42.41 24.81 37.14 24.81 31.84 24.81 26.53 24.81 21.63 24.81 16.18 24.81 10.88 24.81 5.58 24.81 4.04 24.81"/>
        <polyline class="cls-3" points="7 19.36 10.88 19.36 16.18 19.36 21.63 19.36 26.53 19.36 31.84 19.36 37.14 19.36 42.41 19.36 47.38 19.36 52.68 19.36 57.98 19.36 63.43 19.36 68.34 19.36 73.64 19.36 76 19.36"/>
        <polyline class="cls-3" points="66.07 8.68 63.43 8.68 57.98 8.68 52.68 8.68 47.38 8.68 42.41 8.68 37.14 8.68 31.84 8.68 26.53 8.68 21.63 8.68 16.94 8.68"/>
        <polyline class="cls-3" points="57.98 3.7 57.41 3.7 52.68 3.7 47.38 3.7 42.41 3.7 37.14 3.7 31.84 3.7 26.53 3.7 25.62 3.7"/>
        <polyline class="cls-3" points="1.01 35.02 5.58 35.02 10.88 35.02 16.18 35.02 21.63 35.02 26.53 35.02 31.84 35.02 37.14 35.02 42.41 35.02 47.38 35.02 52.68 35.02 57.98 35.02 63.43 35.02 68.34 35.02 73.64 35.02 78.94 35.02 81.98 35.02"/>
        <polyline class="cls-3" points="82.48 40.4 78.94 40.4 73.64 40.4 68.34 40.4 63.43 40.4 57.98 40.4 52.68 40.4 47.38 40.4 42.41 40.4 37.14 40.4 31.84 40.4 26.53 40.4 21.63 40.4 16.18 40.4 10.88 40.4 5.58 40.4 0.51 40.4 0.47 40.4 0.46 40.4"/>
        <polyline class="cls-3" points="2.22 29.72 5.58 29.72 10.88 29.72 16.18 29.72 21.63 29.72 26.53 29.72 31.84 29.72 37.14 29.72 42.41 29.72 47.38 29.72 52.68 29.72 57.98 29.72 63.43 29.72 68.34 29.72 73.64 29.72 78.94 29.72 80.77 29.72"/>
        <polyline class="cls-3" points="79.93 55.81 78.94 55.81 73.64 55.81 68.34 55.81 63.43 55.81 57.98 55.81 52.68 55.81 47.38 55.81 42.41 55.81 37.14 55.81 31.84 55.81 26.53 55.81 21.63 55.81 16.18 55.81 10.88 55.81 5.58 55.81 3.07 55.81"/>
        <line class="cls-3" x1="0.47" y1="55.81" x2="0.46" y2="55.81"/>
        <polyline class="cls-3" points="73.95 66.55 73.64 66.55 68.34 66.55 63.43 66.55 57.98 66.55 52.68 66.55 47.38 66.55 42.41 66.55 37.14 66.55 31.84 66.55 26.53 66.55 21.63 66.55 16.18 66.55 10.88 66.55 9.04 66.55"/>
        <polyline class="cls-3" points="77.52 61.1 73.64 61.1 68.34 61.1 63.43 61.1 57.98 61.1 52.68 61.1 47.38 61.1 42.41 61.1 37.14 61.1 31.84 61.1 26.53 61.1 21.63 61.1 16.18 61.1 10.88 61.1 5.58 61.1 5.48 61.1"/>
        <polyline class="cls-3" points="1.52 50.65 5.58 50.65 10.88 50.65 16.18 50.65 21.63 50.65 26.53 50.65 31.84 50.65 37.14 50.65 42.41 50.65 47.38 50.65 52.68 50.65 57.98 50.65 63.43 50.65 68.34 50.65 73.64 50.65 78.94 50.65 81.47 50.65"/>
        <polyline class="cls-3" points="21.03 77.03 21.63 77.03 26.53 77.03 31.84 77.03 37.14 77.03 42.41 77.03 47.38 77.03 52.68 77.03 57.98 77.03 61.98 77.03"/>
        <polyline class="cls-3" points="47.38 82.4 44.36 82.4 42.41 82.4 38.65 82.4 37.14 82.4"/>
        <polyline class="cls-3" points="13.71 71.64 16.18 71.64 21.63 71.64 26.53 71.64 31.84 71.64 37.14 71.64 42.41 71.64 47.38 71.64 52.68 71.64 57.98 71.64 63.43 71.64 68.34 71.64"/>
        <path class="cls-4" d="M30.52,57.81v0Z"/>
        <path class="cls-4" d="M52.32,32.6a4.22,4.22,0,0,0-.71,0,2.15,2.15,0,0,1,.45,0Z"/>
        <circle class="cls-5" cx="41.47" cy="38.28" r="22.38"/>
        <path class="cls-6" d="M33.6,49.69h0a10,10,0,0,0-3.81,7.64v.23a10,10,0,1,0,17.31-6.91L47,50.5l-.87.27a17.79,17.79,0,0,1-4.81.66,17.58,17.58,0,0,1-7.67-1.74"/>
        <path class="cls-7" d="M59.05,33.49A18,18,0,0,1,47,50.5a10.05,10.05,0,0,0-13.37-.82,18,18,0,0,1-.95-31.88A17.71,17.71,0,0,1,48.31,17,17.94,17.94,0,0,1,59.05,33.49Z"/>
        <circle class="cls-8" cx="39.58" cy="57.38" r="8.96"/>
        <circle class="cls-5" cx="33.08" cy="49.48" r="9.1"/>
        <circle class="cls-5" cx="52.07" cy="35.97" r="3.34"/>
        <path class="cls-9" d="M82.5,41.5a41,41,0,0,1-.21,4.17,41.15,41.15,0,0,1-2.36,10.14q-.45,1.23-1,2.43c-.44,1-.91,1.92-1.42,2.86A39.31,39.31,0,0,1,74,66.55c-.09.13-.2.27-.31.4a41,41,0,0,1-4.34,4.69l-1,.85a40.91,40.91,0,0,1-4.91,3.66L62,77A41,41,0,0,1,52.68,81a38.66,38.66,0,0,1-5.3,1.13c-1,.14-2,.25-3,.32q-1,.07-2,.09H41.5c-1,0-1.91,0-2.85-.1-.51,0-1-.08-1.51-.13a41.23,41.23,0,0,1-5-.84l-.29-.07a40,40,0,0,1-5.31-1.68,39.15,39.15,0,0,1-4.9-2.31L21,77c-.33-.18-.65-.37-1-.57-.55-.34-1.1-.7-1.64-1.07h0c-.76-.52-1.51-1.07-2.23-1.64s-1.68-1.37-2.47-2.11a38.46,38.46,0,0,1-2.83-2.88c-.64-.71-1.25-1.45-1.84-2.21a41.25,41.25,0,0,1-3.46-5.27,1.62,1.62,0,0,1-.1-.18,40.08,40.08,0,0,1-2.41-5.29,38.9,38.9,0,0,1-1.55-5.16,41.59,41.59,0,0,1-1-9.15c0-.37,0-.74,0-1.1A41.37,41.37,0,0,1,1,35a40.38,40.38,0,0,1,1.21-5.3A41.81,41.81,0,0,1,4,24.81c.47-1,1-2.08,1.54-3.08.45-.81.92-1.6,1.42-2.37a41.14,41.14,0,0,1,3.88-5.11l.25-.28a40.81,40.81,0,0,1,5-4.7c.25-.2.5-.4.76-.59a41.79,41.79,0,0,1,4.69-3,40.81,40.81,0,0,1,4-1.94l.91-.37a41,41,0,0,1,5.31-1.68,41.58,41.58,0,0,1,5.3-.91l.38,0c1.32-.13,2.64-.2,4-.2h.91a42.88,42.88,0,0,1,5,.41c1.23.18,2.45.41,3.64.69.56.13,1.11.28,1.66.43A42,42,0,0,1,57.41,3.7L58,4a40,40,0,0,1,5.45,2.91c.91.57,1.79,1.18,2.64,1.82s1.54,1.19,2.27,1.84A38.33,38.33,0,0,1,71.87,14q.93,1,1.77,2.07A36.91,36.91,0,0,1,76,19.36a38.8,38.8,0,0,1,2.94,5.42,0,0,0,0,1,0,0,37.06,37.06,0,0,1,1.82,4.91A37.4,37.4,0,0,1,82,35a38.29,38.29,0,0,1,.5,5.38C82.5,40.77,82.5,41.13,82.5,41.5Z"/>
      </g>
    </g>
  </g>
</svg>
