<svg xmlns="http://www.w3.org/2000/svg" viewBox="0 0 83 83">
  <defs>
    <style>
      .cls-1 {
        fill: none;
        stroke: #eb593d;
        stroke-miterlimit: 10;
      }

      .cls-2 {
        fill: #fff;
        opacity: 0.71;
      }
    </style>
  </defs>
  <g id="Livello_2" data-name="Livello 2">
    <g id="Livello_1-2" data-name="Livello 1">
      <path d="M41.5,83a41.35,41.35,0,0,1-9.37-1.08,40.73,40.73,0,0,1-12.07-5c-.56-.34-1.1-.7-1.64-1.06h0A41,41,0,0,1,37.52,1.2c1.31-.13,2.63-.2,4-.2a41,41,0,0,1,0,82Z"/>
      <path class="cls-1" d="M41.5,82.5a41.35,41.35,0,0,1-9.37-1.08,40.73,40.73,0,0,1-12.07-5c-.56-.34-1.1-.7-1.64-1.06h0A41,41,0,0,1,37.52.7c1.31-.13,2.63-.2,4-.2a41,41,0,0,1,0,82Z"/>
      <path class="cls-2" d="M22.62,52.68a11.95,11.95,0,1,1,0-21.49,12,12,0,0,0,0,21.49Z"/>
      <path class="cls-2" d="M61.21,52.68a11.95,11.95,0,1,0,0-21.49,12,12,0,0,1,0,21.49Z"/>
      <circle class="cls-2" cx="41.5" cy="41.94" r="16.42"/>
    </g>
  </g>
</svg>
