<svg xmlns="http://www.w3.org/2000/svg" xmlns:xlink="http://www.w3.org/1999/xlink" viewBox="0 0 100.6 100.6">
  <defs>
    <style>
      .cls-1 {
        isolation: isolate;
      }

      .cls-2 {
        fill: url(#Sfumatura_senza_nome_162);
      }

      .cls-3 {
        fill: none;
        stroke: #eb593d;
        stroke-miterlimit: 10;
        stroke-width: 1.21px;
      }

      .cls-4 {
        fill: url(#Sfumatura_senza_nome_135);
      }
    </style>
    <linearGradient id="Sfumatura_senza_nome_162" data-name="Sfumatura senza nome 162" x1="25.48" y1="50.3" x2="106.71" y2="50.3" gradientUnits="userSpaceOnUse">
      <stop offset="0" stop-color="#e29ba4"/>
      <stop offset="1" stop-color="#c62132"/>
    </linearGradient>
    <linearGradient id="Sfumatura_senza_nome_135" data-name="Sfumatura senza nome 135" x1="50.6" y1="52.28" x2="50.6" y2="-1.4" gradientUnits="userSpaceOnUse">
      <stop offset="0" stop-color="#754230"/>
      <stop offset="0.57" stop-color="#643828"/>
      <stop offset="1" stop-color="#5e3525"/>
    </linearGradient>
  </defs>
  <g id="Livello_2" data-name="Livello 2">
    <g id="Livello_1-2" data-name="Livello 1">
      <g class="cls-1">
        <path class="cls-2" d="M100,50.3A49.69,49.69,0,0,1,50.3,100a49.47,49.47,0,0,1-26-7.32c-.66-.42-1.33-.85-2-1.3h0A49.71,49.71,0,0,1,1.45,59.46c-.08-.46-.17-.93-.24-1.4A49.69,49.69,0,0,1,45.48.85,48,48,0,0,1,50.3.61,50.48,50.48,0,0,1,61.84,2,49.72,49.72,0,0,1,100,50.3Z"/>
      </g>
      <path class="cls-3" d="M100,50.3A49.69,49.69,0,0,1,50.3,100a49.47,49.47,0,0,1-26-7.32c-.66-.42-1.33-.85-2-1.3h0A49.71,49.71,0,0,1,1.45,59.46c-.08-.46-.17-.93-.24-1.4A49.69,49.69,0,0,1,45.48.85,48,48,0,0,1,50.3.61,50.48,50.48,0,0,1,61.84,2,49.72,49.72,0,0,1,100,50.3Z"/>
      <g class="cls-1">
        <path class="cls-4" d="M94.92,72.2C97,27.39,76.78,20,68.54,26.06c-7.16,5.28-7.44,19.76-12.28,28.2-4.12,7.17-10.9,7.71-14.88.25-3.22-6-4.41-13.84-6.82-20.57-3.23-9-8.69-18.07-16-15.94C13.7,19.43,9.47,25.08,6.68,31.25a51.7,51.7,0,0,0-4,18.51,60.57,60.57,0,0,1-1.18,9.7c-.07.38-.15.74-.24,1.11v-18A49.72,49.72,0,0,1,45.48.85,48,48,0,0,1,50.3.61,50.48,50.48,0,0,1,61.84,2,49.72,49.72,0,0,1,94.92,72.2Z"/>
      </g>
    </g>
  </g>
</svg>
