<svg xmlns="http://www.w3.org/2000/svg" xmlns:xlink="http://www.w3.org/1999/xlink" viewBox="0 0 236 164">
  <defs>
    <style>
      .cls-1 {
        fill: none;
      }

      .cls-2 {
        isolation: isolate;
      }

      .cls-3 {
        clip-path: url(#clip-path);
      }

      .cls-4 {
        fill: #fae0c3;
      }

      .cls-5 {
        clip-path: url(#clip-path-2);
      }

      .cls-6 {
        clip-path: url(#clip-path-3);
      }

      .cls-7 {
        fill: #eb593d;
      }

      .cls-8 {
        clip-path: url(#clip-path-4);
      }
    </style>
    <clipPath id="clip-path">
      <polygon class="cls-1" points="74.58 87.08 110.25 51.69 132.38 68.04 96.7 103.44 74.58 87.08"/>
    </clipPath>
    <clipPath id="clip-path-2">
      <polygon class="cls-1" points="104.43 109.29 139.11 74.89 168.24 96.43 133.56 130.83 104.43 109.29"/>
    </clipPath>
    <clipPath id="clip-path-3">
      <polygon class="cls-1" points="71.13 67.53 106.81 32.14 128.93 48.49 93.26 83.89 71.13 67.53"/>
    </clipPath>
    <clipPath id="clip-path-4">
      <polygon class="cls-1" points="100.98 89.74 135.65 55.34 164.78 76.88 130.11 111.28 100.98 89.74"/>
    </clipPath>
  </defs>
  <g id="Livello_2" data-name="Livello 2">
    <g id="Livello_1-2" data-name="Livello 1">
      <g class="cls-2">
        <g class="cls-3">
          <path class="cls-4" d="M121.21,59.78a15.48,15.48,0,0,0-14.12-2.35,14.39,14.39,0,0,0-6,3.79l-.1.17,4.55,3.37a10.59,10.59,0,0,1,3.87-2.52,8.7,8.7,0,0,1,4.18-.46,8.58,8.58,0,0,1,4,1.67c1.94,1.43,2.89,3,2.86,4.79s-1,3.62-3,5.59a14,14,0,0,1-3.74,2.74,6.89,6.89,0,0,1-3.87.64,8.68,8.68,0,0,1-4.07-1.79l-4.15-3.06L97.85,76,102,79.06c2.18,1.61,3.27,3.3,3.27,5s-1.08,3.7-3.23,5.83a10.94,10.94,0,0,1-6.49,3.48,8.89,8.89,0,0,1-6.34-1.88,7.36,7.36,0,0,1-2.65-3.24,5.59,5.59,0,0,1-.13-3.68,8.91,8.91,0,0,1,2.41-3.71L84.3,77.56l-.22.09a12.13,12.13,0,0,0-3.72,6A9.33,9.33,0,0,0,81,89.81a13.67,13.67,0,0,0,4.55,5.37,16.31,16.31,0,0,0,7,3,15.28,15.28,0,0,0,7.46-.54,17.48,17.48,0,0,0,6.88-4.34,13.44,13.44,0,0,0,3.59-5.84A7.86,7.86,0,0,0,109.22,81a13.22,13.22,0,0,0,7.18-.32A14,14,0,0,0,122,77.43q4.74-4.7,4.41-9.38t-5.19-8.27"/>
        </g>
      </g>
      <g class="cls-2">
        <g class="cls-5">
          <path class="cls-4" d="M116.76,112.06,144.08,85l5,3.74a9.45,9.45,0,0,1,4,5.94,12.75,12.75,0,0,1-1,7.41,25.09,25.09,0,0,1-5.49,7.67l-.79.78a29,29,0,0,1-8,5.67,19.86,19.86,0,0,1-8.49,2.06,12.16,12.16,0,0,1-7.5-2.43l-5.06-3.74m36.06-27L143,77.79l-3.92-2.9-3,3,3.26,3.56L112,108.55l-4.59-2.24-3,3,14,10.32a18.68,18.68,0,0,0,10.27,3.75A24.93,24.93,0,0,0,140,121.22,33.8,33.8,0,0,0,150.52,114l.74-.74a27.9,27.9,0,0,0,6.83-10.11,16.24,16.24,0,0,0,.65-10A15,15,0,0,0,152.82,85"/>
        </g>
      </g>
      <g class="cls-2">
        <g class="cls-6">
          <path class="cls-7" d="M117.76,40.23a15.41,15.41,0,0,0-14.12-2.35,14.39,14.39,0,0,0-6,3.79l-.1.17,4.55,3.37a10.63,10.63,0,0,1,3.86-2.52,8.75,8.75,0,0,1,4.19-.46,8.63,8.63,0,0,1,3.95,1.66c1.94,1.44,2.9,3,2.86,4.8s-1.05,3.62-3,5.59A13.68,13.68,0,0,1,110.15,57a7,7,0,0,1-3.87.65,8.78,8.78,0,0,1-4.06-1.8L98.07,52.8l-3.66,3.64,4.14,3.07c2.18,1.61,3.26,3.3,3.26,5.05s-1.08,3.7-3.22,5.83a11,11,0,0,1-6.5,3.48A8.89,8.89,0,0,1,85.75,72a7.34,7.34,0,0,1-2.65-3.25A5.49,5.49,0,0,1,83,65.07a9,9,0,0,1,2.39-3.71L80.85,58l-.21.09a12.17,12.17,0,0,0-3.74,6,9.53,9.53,0,0,0,.63,6.15,13.84,13.84,0,0,0,4.55,5.37,16.48,16.48,0,0,0,7,3.06,15.41,15.41,0,0,0,7.46-.56,17.34,17.34,0,0,0,6.88-4.33A13.29,13.29,0,0,0,107,68a7.81,7.81,0,0,0-1.25-6.49,13.22,13.22,0,0,0,7.18-.32,14.12,14.12,0,0,0,5.6-3.27q4.73-4.71,4.4-9.37c-.21-3.12-2-5.88-5.19-8.28"/>
        </g>
      </g>
      <g class="cls-2">
        <g class="cls-8">
          <path class="cls-7" d="M113.31,92.51l27.32-27.1,5.05,3.74a9.45,9.45,0,0,1,4,5.94,12.6,12.6,0,0,1-1.06,7.41,24.93,24.93,0,0,1-5.48,7.67l-.79.78a28.83,28.83,0,0,1-8,5.68,20,20,0,0,1-8.48,2.06,12.21,12.21,0,0,1-7.5-2.44l-5.06-3.74m36.06-27-9.8-7.25-3.92-2.9-3,3,3.25,3.57L108.57,89,104,86.77l-3,3,14,10.33a18.6,18.6,0,0,0,10.27,3.74,25,25,0,0,0,11.33-2.13,34,34,0,0,0,10.51-7.22l.74-.74a27.81,27.81,0,0,0,6.84-10.11,16.24,16.24,0,0,0,.65-10,15,15,0,0,0-5.92-8.16"/>
        </g>
      </g>
      <rect class="cls-1" width="236" height="164" rx="12"/>
    </g>
  </g>
</svg>
