<svg xmlns="http://www.w3.org/2000/svg" viewBox="0 0 63.49 98.99">
  <defs>
    <style>
      .cls-1 {
        fill: #fae0c3;
      }

      .cls-2 {
        fill: none;
        stroke: #eb593d;
        stroke-miterlimit: 10;
        stroke-width: 0.99px;
      }
    </style>
  </defs>
  <g id="Livello_2" data-name="Livello 2">
    <g id="Livello_1-2" data-name="Livello 1">
      <path class="cls-1" d="M63.49,82.49a16.5,16.5,0,0,1-14.3,16.35h0A15.79,15.79,0,0,1,47,99a16.43,16.43,0,0,1-8.13-2.14A47.52,47.52,0,0,1,36.32,7h0a16.5,16.5,0,0,1,14.4-3h0A16.51,16.51,0,0,1,61.1,12.33,16.33,16.33,0,0,1,63,20,16.49,16.49,0,0,1,43,36.12,15.77,15.77,0,0,0,34.49,50c0,5.25,3,14,8.42,16.51a16.51,16.51,0,0,1,20.58,16Z"/>
      <path class="cls-2" d="M58.49,79.49a16.5,16.5,0,0,1-14.3,16.35h0A15.79,15.79,0,0,1,42,96a16.43,16.43,0,0,1-8.13-2.14A47.52,47.52,0,0,1,31.32,4h0a16.5,16.5,0,0,1,14.4-3h0A16.51,16.51,0,0,1,56.1,9.33,16.33,16.33,0,0,1,58,17,16.49,16.49,0,0,1,38,33.12,15.77,15.77,0,0,0,29.49,47c0,5.25,3,14,8.42,16.51a16.51,16.51,0,0,1,20.58,16Z"/>
    </g>
  </g>
</svg>
