<svg xmlns="http://www.w3.org/2000/svg" viewBox="0 0 120.2 62.17">
  <defs>
    <style>
      .cls-1 {
        fill: #fae0c3;
      }

      .cls-2 {
        fill: #eb593d;
      }
    </style>
  </defs>
  <g id="Livello_2" data-name="Livello 2">
    <g id="Livello_1-2" data-name="Livello 1">
      <g>
        <path class="cls-1" d="M22.18,30.39a23.6,23.6,0,0,1-7.79,1.39c-3.85,0-7-1-9.49-3.35A13,13,0,0,1,1.36,19c0-7.57,5.23-13.1,13.74-13.1A15.67,15.67,0,0,1,21.43,7l-.79,2.68A13,13,0,0,0,15,8.62c-6.18,0-10.21,3.84-10.21,10.21S8.7,29.07,14.61,29.07A10.6,10.6,0,0,0,19,28.39V20.83H13.82V18.19h8.36Z" transform="translate(-1.36 -4.78)"/>
        <path class="cls-1" d="M27.08,19c0-2.15,0-4-.15-5.69h2.9l.11,3.58h.15a5.46,5.46,0,0,1,5-4,3.87,3.87,0,0,1,.95.11v3.13A4.72,4.72,0,0,0,35,16c-2.34,0-4,1.78-4.45,4.26a9.92,9.92,0,0,0-.15,1.54v9.72H27.08Z" transform="translate(-1.36 -4.78)"/>
        <path class="cls-1" d="M49.29,31.52,49,29.22h-.11a6.81,6.81,0,0,1-5.58,2.71,5.18,5.18,0,0,1-5.57-5.23c0-4.41,3.92-6.82,11-6.78v-.38c0-1.5-.41-4.21-4.14-4.21a9.07,9.07,0,0,0-4.75,1.35l-.75-2.18a11.31,11.31,0,0,1,6-1.62c5.57,0,6.93,3.8,6.93,7.46v6.81a25.27,25.27,0,0,0,.3,4.37Zm-.48-9.3c-3.62-.08-7.73.56-7.73,4.1a2.94,2.94,0,0,0,3.13,3.17,4.55,4.55,0,0,0,4.41-3,3.59,3.59,0,0,0,.19-1.06Z" transform="translate(-1.36 -4.78)"/>
        <path class="cls-1" d="M57.35,19.24c0-2.33-.07-4.21-.15-5.95h3l.15,3.13h.07a7.18,7.18,0,0,1,6.48-3.54c4.41,0,7.72,3.73,7.72,9.26,0,6.56-4,9.79-8.28,9.79a6.38,6.38,0,0,1-5.61-2.86h-.08V39H57.35Zm3.28,4.86a8.08,8.08,0,0,0,.15,1.36,5.12,5.12,0,0,0,5,3.88c3.5,0,5.54-2.87,5.54-7,0-3.65-1.92-6.77-5.43-6.77a5.27,5.27,0,0,0-5,4.1A5,5,0,0,0,60.63,21Z" transform="translate(-1.36 -4.78)"/>
        <path class="cls-1" d="M78.78,4.78h3.31V16.16h.08a6.2,6.2,0,0,1,2.37-2.34,6.88,6.88,0,0,1,3.39-.94c2.45,0,6.37,1.51,6.37,7.79V31.52H91V21.05c0-2.94-1.09-5.42-4.22-5.42a4.75,4.75,0,0,0-4.44,3.31,4,4,0,0,0-.23,1.58v11H78.78Z" transform="translate(-1.36 -4.78)"/>
        <path class="cls-1" d="M103.37,8.17a2.05,2.05,0,0,1-4.1,0,2,2,0,0,1,2.07-2.07A2,2,0,0,1,103.37,8.17ZM99.68,31.52V13.29H103V31.52Z" transform="translate(-1.36 -4.78)"/>
        <path class="cls-1" d="M121.48,30.84a12.16,12.16,0,0,1-5.23,1.06c-5.5,0-9.08-3.73-9.08-9.3s3.85-9.68,9.8-9.68a11.11,11.11,0,0,1,4.59.94l-.75,2.56a7.71,7.71,0,0,0-3.84-.87c-4.18,0-6.44,3.09-6.44,6.89,0,4.22,2.71,6.82,6.32,6.82a9.47,9.47,0,0,0,4.07-.9Z" transform="translate(-1.36 -4.78)"/>
      </g>
      <g>
        <path class="cls-2" d="M119.75,66.43a47.1,47.1,0,0,1-7,.52c-4.71,0-8.06-1.09-10.29-3.16s-3.57-5-3.57-9.11,1.28-7.53,3.65-9.87,6.29-3.65,11.22-3.65a52.48,52.48,0,0,1,6,.3ZM116.48,44a20.83,20.83,0,0,0-3.32-.19c-7,0-10.81,3.92-10.81,10.77,0,6,3.36,9.8,10.28,9.8a18.57,18.57,0,0,0,3.85-.34Z" transform="translate(-1.36 -4.78)"/>
        <path class="cls-2" d="M92.79,49.89c-.08-4.48-2.94-6.32-6.25-6.32a12,12,0,0,0-5.05.94l-.56-2.37A14.67,14.67,0,0,1,87,41c5.61,0,9,3.69,9,9.19S92.71,60,87.4,60c-6,0-7.53-5.23-7.53-8.58A11.88,11.88,0,0,1,80,49.89Zm-9.72,2.38c0,2.11.87,5.38,4.6,5.38,3.35,0,4.82-3.09,5.08-5.38Z" transform="translate(-1.36 -4.78)"/>
        <path class="cls-2" d="M76.22,44.77a8.69,8.69,0,0,0-4.37-1.31c-2.41,0-3.54,1.2-3.54,2.71s.94,2.44,3.39,3.35c3.28,1.17,4.82,3,4.82,5.16,0,2.93-2.37,5.34-6.29,5.34a9.15,9.15,0,0,1-4.48-1.12l.83-2.41a7.09,7.09,0,0,0,3.73,1c2,0,3-1.13,3-2.49S72.27,52.87,69.89,52c-3.16-1.21-4.78-2.79-4.78-5.5,0-3.2,2.49-5.46,6.82-5.46a10.44,10.44,0,0,1,5.12,1.24Z" transform="translate(-1.36 -4.78)"/>
        <path class="cls-2" d="M57.17,64.73a2.05,2.05,0,0,1,4.1,0A2,2,0,0,1,59.2,66.8,2,2,0,0,1,57.17,64.73Zm3.69-23.35V59.61H57.54V41.38Z" transform="translate(-1.36 -4.78)"/>
        <path class="cls-2" d="M36.34,59.61c.08-1.32.15-2.79.15-5V44c0-4.18.83-6.74,2.6-8.32a9.65,9.65,0,0,1,6.63-2.19A11.76,11.76,0,0,1,51.78,35L51,37.54a10.3,10.3,0,0,0-5.35-1.43c-3.39,0-5.87,1.77-5.87,6.37v2h.07a6.51,6.51,0,0,1,5.8-3c4.52,0,7.76,3.84,7.76,8.89,0,6.17-4,9.67-8.21,9.67a6,6,0,0,1-5.68-3.16h-.08l-.15,2.75Zm3.43-7.19a4.44,4.44,0,0,0,.19,1.5,4.78,4.78,0,0,0,4.63,3.51c3.16,0,5.42-2.68,5.42-6.89C50,47,48.2,44,44.62,44A4.85,4.85,0,0,0,40,47.37a5.75,5.75,0,0,0-.26,1.77Z" transform="translate(-1.36 -4.78)"/>
        <path class="cls-2" d="M31.22,54.68c0,1.88,0,3.42.15,4.93H28.43l-.19-3h-.07a6.71,6.71,0,0,1-6,3.42c-2.52,0-6.44-1.5-6.44-7.75V41.38H19V51.89c0,2.94,1.09,5.39,4.22,5.39a4.72,4.72,0,0,0,4.44-3.39,4.83,4.83,0,0,0,.22-1.55v-11h3.32Z" transform="translate(-1.36 -4.78)"/>
      </g>
    </g>
  </g>
</svg>
