<svg xmlns="http://www.w3.org/2000/svg" viewBox="0 0 236 164">
  <defs>
    <style>
      .cls-1, .cls-2, .cls-3, .cls-4, .cls-5 {
        fill: none;
      }

      .cls-1 {
        stroke: #fae0c3;
      }

      .cls-1, .cls-2, .cls-3, .cls-4 {
        stroke-miterlimit: 10;
      }

      .cls-2, .cls-3, .cls-4 {
        stroke: #eb593d;
      }

      .cls-2 {
        stroke-width: 0.75px;
      }

      .cls-4 {
        stroke-width: 0.59px;
      }
    </style>
  </defs>
  <g id="Livello_2" data-name="Livello 2">
    <g id="Livello_1-2" data-name="Livello 1">
      <g>
        <path class="cls-1" d="M85.86,106.89V44.73a17.09,17.09,0,0,1,14.23-13.56H132"/>
        <path class="cls-1" d="M85.86,91.47a20.09,20.09,0,0,1,15.26-14.68h30.93"/>
      </g>
      <g>
        <line class="cls-1" x1="101.19" y1="117.53" x2="101.19" y2="147.79"/>
        <polyline class="cls-1" points="131.67 125.03 115.97 125.03 115.98 125.02 115.69 125.02 101.19 125.02 101.08 125.02"/>
        <path class="cls-1" d="M131.66,125h.06a7.66,7.66,0,0,1,7.5,6.49V148"/>
      </g>
      <g>
        <path class="cls-1" d="M148.7,92.82v13.65a17,17,0,0,1-7.31,8H118.7a16.83,16.83,0,0,1-7.15-7.63V92.48a16.89,16.89,0,0,1,8.61-8.35h19.77A16.91,16.91,0,0,1,148.7,92.82Z"/>
        <line class="cls-1" x1="148.7" y1="106.47" x2="148.7" y2="92.82"/>
        <line class="cls-1" x1="139.93" y1="84.13" x2="120.16" y2="84.13"/>
        <line class="cls-1" x1="141.39" y1="114.45" x2="118.7" y2="114.45"/>
      </g>
      <g>
        <g>
          <g>
            <path class="cls-1" d="M162.81,125.54a8.71,8.71,0,0,1,2.44-5.31,7.77,7.77,0,0,1,5.25-2.38"/>
            <line class="cls-1" x1="162.8" y1="140.24" x2="162.8" y2="140.24"/>
          </g>
          <g>
            <g>
              <path class="cls-1" d="M155.12,117.85a7.75,7.75,0,0,1,5.25,2.38,8.71,8.71,0,0,1,2.44,5.31v38h0"/>
              <line class="cls-1" x1="143.94" y1="117.84" x2="155.12" y2="117.86"/>
            </g>
            <line class="cls-1" x1="162.83" y1="140.24" x2="162.83" y2="140.24"/>
          </g>
          <line class="cls-1" x1="170.5" y1="117.85" x2="182.18" y2="117.85"/>
        </g>
        <line class="cls-1" x1="162.82" y1="102.27" x2="162.82" y2="128.98"/>
      </g>
      <g>
        <polyline class="cls-2" points="143.56 26.34 143.56 42.73 143.56 61.35"/>
        <path class="cls-2" d="M150.73,33.22a8.25,8.25,0,0,0-7.17-6.88V42.73"/>
        <polyline class="cls-2" points="156.99 33.3 153.77 46.95 150.73 33.22"/>
        <path class="cls-2" d="M164.15,61.2V26.42A8.26,8.26,0,0,0,157,33.31"/>
      </g>
      <g>
        <g>
          <path class="cls-2" d="M166.83,68.15a3.17,3.17,0,0,0,3.26,3.1h.31l13.71,0"/>
          <line class="cls-2" x1="170.36" y1="71.25" x2="170.36" y2="71.25"/>
        </g>
        <g>
          <line class="cls-2" x1="184.09" y1="71.47" x2="184.09" y2="50.75"/>
          <polyline class="cls-2" points="170.13 60.94 177.32 60.94 177.31 60.94 177.45 60.94 184.09 60.94"/>
          <path class="cls-2" d="M170.14,60.94h0a3.5,3.5,0,0,1-3.43-3V50.65"/>
        </g>
      </g>
      <g>
        <line class="cls-3" x1="96.94" y1="112.43" x2="96.94" y2="142.69"/>
        <polyline class="cls-3" points="127.42 119.93 111.72 119.93 111.73 119.92 111.44 119.92 96.94 119.92 96.83 119.92"/>
        <path class="cls-3" d="M127.41,119.92h.06a7.66,7.66,0,0,1,7.5,6.49v16.5"/>
      </g>
      <g>
        <path class="cls-3" d="M143.6,87.72v13.65a16.91,16.91,0,0,1-7.31,8H113.6a16.83,16.83,0,0,1-7.15-7.63V87.38A16.93,16.93,0,0,1,115.06,79h19.77A16.91,16.91,0,0,1,143.6,87.72Z"/>
        <line class="cls-3" x1="143.6" y1="101.37" x2="143.6" y2="87.72"/>
        <line class="cls-3" x1="134.83" y1="79.03" x2="115.06" y2="79.03"/>
        <line class="cls-3" x1="136.29" y1="109.35" x2="113.6" y2="109.35"/>
      </g>
      <g>
        <g>
          <g>
            <path class="cls-4" d="M158.56,120.44a8.66,8.66,0,0,1,2.44-5.3,7.68,7.68,0,0,1,5.25-2.38"/>
            <line class="cls-4" x1="158.55" y1="135.14" x2="158.55" y2="135.14"/>
          </g>
          <g>
            <g>
              <path class="cls-4" d="M150.87,112.76a7.66,7.66,0,0,1,5.25,2.38,8.66,8.66,0,0,1,2.44,5.3v38h0"/>
              <line class="cls-4" x1="139.69" y1="112.74" x2="150.87" y2="112.76"/>
            </g>
            <line class="cls-4" x1="158.58" y1="135.14" x2="158.58" y2="135.14"/>
          </g>
          <line class="cls-4" x1="166.25" y1="112.76" x2="177.93" y2="112.76"/>
        </g>
        <line class="cls-4" x1="158.57" y1="97.17" x2="158.57" y2="123.88"/>
      </g>
      <g>
        <path class="cls-3" d="M80.77,101.79V39.64A17.07,17.07,0,0,1,95,26.07h31.86"/>
        <path class="cls-3" d="M80.77,86.37A20.07,20.07,0,0,1,96,71.69H127"/>
      </g>
      <rect class="cls-5" width="236" height="164" rx="12"/>
    </g>
  </g>
</svg>
