<svg xmlns="http://www.w3.org/2000/svg" viewBox="0 0 83 83">
  <defs>
    <style>
      .cls-1 {
        fill: none;
        stroke: #eb593d;
        stroke-miterlimit: 10;
      }

      .cls-2 {
        fill: #fff;
      }
    </style>
  </defs>
  <g id="Livello_2" data-name="Livello 2">
    <g id="Livello_1-2" data-name="Livello 1">
      <path class="cls-1" d="M41.5,82.5a41.35,41.35,0,0,1-9.37-1.08,40.73,40.73,0,0,1-12.07-5c-.56-.34-1.1-.7-1.64-1.06h0A41,41,0,0,1,37.52.7c1.31-.13,2.63-.2,4-.2a41,41,0,0,1,0,82Z"/>
      <path class="cls-2" d="M19.47,27.49A54.53,54.53,0,0,1,47.79,35.3q9.93,6.3,9.93,13.48T50.08,59a28.12,28.12,0,0,1-9.72,1.63,35.68,35.68,0,0,1-7.32-1c-.21,2.38-.72,3.57-1.54,3.57h-.38c-.49,0-.88-.65-1.16-1.94-.12-1-.25-1.88-.38-2.68Q19.74,55,19.74,50q0-2.93,4.44-5a29.13,29.13,0,0,1,6-1.36q.68-6.73,1.54-6.74h.09q.83,0,1.45,6.65h1q8.57,0,11.67,3a.84.84,0,0,1,.18.58c0,1.16-.9,2.06-2.68,2.7a2.23,2.23,0,0,1-1.05.13c-.43-.09-.66-.28-.69-.58s.3-.63,1-1,.88-.54.67-.61a39.57,39.57,0,0,0-8.66-.67H33.33q-.09,6.23-.09,10a35.94,35.94,0,0,0,6.54.78q10.22-.41,13-6.05a7.21,7.21,0,0,0,.69-3.21q0-6.51-11-13.1A52.86,52.86,0,0,0,17,29.41c-1.22,0-1.83.14-1.83.4s.26.28.76.48.77.42.78.66-.12.51-.38.49c-2-.33-3-1-3-2.12S15.35,27.66,19.47,27.49Zm2,22.72q0,2.94,8.19,5.91,0-3.79.2-8.88C24.28,47.66,21.48,48.64,21.48,50.21Z"/>
    </g>
  </g>
</svg>
