<svg xmlns="http://www.w3.org/2000/svg" viewBox="0 0 82.51 82.51">
  <defs>
    <style>
      .cls-1 {
        fill: none;
        stroke: #eb593d;
        stroke-miterlimit: 10;
        stroke-width: 0.51px;
      }

      .cls-2, .cls-3 {
        fill: #fff;
      }

      .cls-3 {
        opacity: 0.01;
      }
    </style>
  </defs>
  <g id="Livello_2" data-name="Livello 2">
    <g id="Livello_1-2" data-name="Livello 1">
      <path class="cls-1" d="M82.25,41.25a40.74,40.74,0,0,1-6,21.45c-.35.55-.7,1.1-1.07,1.64h0A41,41,0,0,1,.45,45.23c-.13-1.31-.2-2.63-.2-4a41,41,0,0,1,82,0Z"/>
      <path class="cls-2" d="M27.68,50.33a10.67,10.67,0,0,1-5.25,3.22,10.3,10.3,0,0,1-3.13.33,10.36,10.36,0,0,1-3.12-.57A10.81,10.81,0,0,1,11,49.66a11,11,0,0,1-2.33-5.91,10.45,10.45,0,0,1,3.39-8.62,11.8,11.8,0,0,1,2.55-1.78,11,11,0,0,1,11.67.71.1.1,0,0,1,0,.14.09.09,0,0,1-.13,0h0a10.37,10.37,0,0,0-11.43-.63A10.26,10.26,0,0,0,10.88,38,12.91,12.91,0,0,0,10,40.77a12.62,12.62,0,0,0-.13,2.88,10.36,10.36,0,0,0,6.62,8.77,10.67,10.67,0,0,0,11-2.22.1.1,0,0,1,.14,0A.11.11,0,0,1,27.68,50.33Z"/>
      <path class="cls-2" d="M56.19,35.26A10.59,10.59,0,0,1,61.44,32a10.37,10.37,0,0,1,3.14-.33,10.47,10.47,0,0,1,3.12.57,10.81,10.81,0,0,1,5.16,3.65,11.06,11.06,0,0,1,2.33,5.91,11.52,11.52,0,0,1-.2,3.21,10.77,10.77,0,0,1-1.2,3,11.24,11.24,0,0,1-2,2.45,12.7,12.7,0,0,1-2.55,1.78,11.54,11.54,0,0,1-6,1.32,11.29,11.29,0,0,1-5.73-2,.09.09,0,0,1,.11-.15h0A10,10,0,0,0,73,47.59a13.06,13.06,0,0,0,.86-2.77A12.08,12.08,0,0,0,74,41.94a10.37,10.37,0,0,0-6.62-8.77,10.69,10.69,0,0,0-11,2.22.09.09,0,0,1-.13,0A.09.09,0,0,1,56.19,35.26Z"/>
      <path class="cls-2" d="M53.37,42.79a11.16,11.16,0,0,1-3.18,8.33,11.93,11.93,0,0,1-8.33,3.65,12.07,12.07,0,0,1-8.59-3.38,12.26,12.26,0,0,1-3.75-8.6,12.18,12.18,0,0,1,3.76-8.58,12,12,0,0,1,8.58-3.35,11.87,11.87,0,0,1,8.29,3.64A11.68,11.68,0,0,1,53.37,42.79Zm-.07,0a11.35,11.35,0,0,0-3.5-7.94,11.11,11.11,0,0,0-7.94-3.09,10.94,10.94,0,0,0-7.64,3.39,10.74,10.74,0,0,0-3,7.64,10.67,10.67,0,0,0,3,7.64,10.92,10.92,0,0,0,7.63,3.36,11.1,11.1,0,0,0,7.9-3.09,11.25,11.25,0,0,0,2.51-3.59c.13-.35.27-.69.39-1s.21-.71.29-1.07l.19-1.09,0-.56,0-.28C53.2,43,53.3,42.89,53.3,42.79Z"/>
      <g>
        <path class="cls-3" d="M36.3,32a7.61,7.61,0,0,0-3.84,2.76,19.66,19.66,0,0,0-2.88,5.06c-1.45,3.57-2.06,7-.39,10.59,1.42,3,4.15,6.68,7.38,8s6.93.58,9.89-.74a17.42,17.42,0,0,0,8.84-8.08c1.58-3.18,2.58-7.33,1.28-10.8a16.5,16.5,0,0,0-3.06-4.39,14.46,14.46,0,0,0-3.17-2.93c-3.85-2.41-8.93.52-12.47,1.77.1,0,1.16,2.34,1.44,2.24,3.22-1.15,7.31-4.07,10.4-1.18,1.64,1.54,3.56,4.5,3.72,6.8a6,6,0,0,1-.54,2.77,11.81,11.81,0,0,1-2,4.52,13.33,13.33,0,0,1-7.4,5.17c-2.21.62-4,.8-6-.35a10.89,10.89,0,0,1-4.6-5.45c-1-2.51-.26-5.06.81-7.4A20.34,20.34,0,0,1,36.1,36.4a7,7,0,0,1,3.46-2.27S38,33,38,33,36.51,31.85,36.3,32Z"/>
        <path class="cls-3" d="M35.15,31a7.48,7.48,0,0,0-3.92,2.6,16.65,16.65,0,0,0-2.91,5,18.46,18.46,0,0,0-1.39,5.15A7.55,7.55,0,0,0,28,48.81c1.39,2.74,4,6.12,7,7.23s6.45.35,9.15-.84a16.06,16.06,0,0,0,8.4-7.5c1.47-3,2.52-6.82,1.24-10.06a13.36,13.36,0,0,0-2.68-3.73,18.48,18.48,0,0,0-2.81-2.57c-3.22-2.11-8.74.47-11.59,1.22.05,0,1.79,2.35,1.77,2.33s1.6,2.32,1.87,2.26c3.51-.7,5.81-3,7.49-.37.79,1.23,1.78,2.51,1.83,4.06a1.78,1.78,0,0,1-.41,1.41,8.9,8.9,0,0,1-1.66,4,9.62,9.62,0,0,1-6.45,4c-1.9.3-2.76.31-4.25-1a3.28,3.28,0,0,1-1.43-1.8,7.59,7.59,0,0,0-.81-2.36c-.37-1.73.69-3.68,1.53-5.1a27.78,27.78,0,0,1,2.29-2.9,5.85,5.85,0,0,1,3.33-1.59c-.3.09-3.19-2.2-3.3-2.28S35.52,30.85,35.15,31Z"/>
        <path class="cls-3" d="M34.67,27.37a7.15,7.15,0,0,0-4,2.72,20.66,20.66,0,0,0-2.86,5.13,20.7,20.7,0,0,0-1.45,5.28,9.2,9.2,0,0,0,1,5.51c1.36,3.16,4.21,7.16,7.54,8.52s7.51.5,10.44-1A18,18,0,0,0,54.1,45c1.46-3.23,2.34-7.54.91-11-1.08-2.59-3.88-5.23-6.25-6.68-3.48-2.13-9.15.57-12.28,1.42,0,0,1.52,2,1.5,2s1.36,2,1.6,1.94c2.77-.55,6.35-2.5,9-.45a11.39,11.39,0,0,1,3.65,4.21c1,2.39.42,5.47-.52,7.78a14.72,14.72,0,0,1-7.16,7.31c-2.34,1.22-5.94,1.78-8.41.42s-4.51-5.26-4.89-8c-.42-3.06.74-5.37,2.51-7.78a36,36,0,0,1,3-3.21,7.21,7.21,0,0,1,3.7-1.68,20.64,20.64,0,0,1-2.82-2C37.44,29.2,35,27.23,34.67,27.37Z"/>
        <path class="cls-3" d="M33.88,27.78a7.09,7.09,0,0,0-4,2.72,19.76,19.76,0,0,0-2.87,5.16c-1.47,3.67-2,7-.33,10.69A18,18,0,0,0,30,51.27a14,14,0,0,0,4.24,3.57c3.18,1.34,7.52.59,10.46-.89a18,18,0,0,0,8.81-8.64C55,42,55.9,37.65,54.38,34.19c-1.13-2.57-4-5.07-6.37-6.51-3.56-2.17-9.08.56-12.31,1.48,0,0,1.5,2,1.48,2s1.35,2,1.57,1.89c2.38-.55,6.38-2.68,9-.91a11.18,11.18,0,0,1,4.08,4c1.24,2.56.47,5.9-.54,8.38C49.91,48,47.07,50.34,43.77,52a5.55,5.55,0,0,1-3.77.94A10.21,10.21,0,0,1,35.38,52a12.55,12.55,0,0,1-3-3.65,9.69,9.69,0,0,1-1.57-4.46c-.29-2.83.9-5,2.51-7.24a40.9,40.9,0,0,1,2.86-3.17,6.82,6.82,0,0,1,3.62-1.66,20.49,20.49,0,0,1-3-2.08C36.78,29.68,34.22,27.63,33.88,27.78Z"/>
        <path class="cls-3" d="M37.45,30.57a7.19,7.19,0,0,0-3.87,2.56A16.57,16.57,0,0,0,30.74,38a17.93,17.93,0,0,0-1.38,5,7.29,7.29,0,0,0,1,4.91c1.29,2.67,3.8,6,6.69,7.18s6.39.43,9-.78a16.26,16.26,0,0,0,8.06-7.48c1.41-2.89,2.42-6.82,1.07-9.95a11.91,11.91,0,0,0-2.7-3.37,17.68,17.68,0,0,0-2.65-2.23A3.39,3.39,0,0,0,47,30.63q-4,.68-8,1.58c.11,0,2.12,2.76,2.11,2.75.12.15,1.79,2.69,2.2,2.67l5.37.63-.09-2c0-.16.45,3.94,0,4.75,0,.22-.13.37-.39.46a3.75,3.75,0,0,1-.58,2.32,4.38,4.38,0,0,1-1.56,2A5.76,5.76,0,0,1,43.36,48l-1.79.44a2.14,2.14,0,0,1-1.81.24,5.24,5.24,0,0,1-2.34-2.17,7,7,0,0,1-.85-3.38,9.16,9.16,0,0,1,1.72-3.77,28.66,28.66,0,0,1,2.43-2.74,6.23,6.23,0,0,1,3.4-1.48,4.74,4.74,0,0,0-.67-.51c-.88-.61-1.75-1.21-2.63-1.8C40.69,32.69,37.82,30.41,37.45,30.57Z"/>
        <path class="cls-3" d="M33.67,30.19a7.39,7.39,0,0,0-4,2.67,17.86,17.86,0,0,0-2.92,5.08c-1.44,3.58-2.05,6.94-.27,10.5,1.43,2.86,4.07,6.43,7.13,7.68s7,.71,9.87-.59c3.84-1.73,7-4.17,8.91-8,1.55-3.18,2.66-7.44,1.24-10.89a13.37,13.37,0,0,0-3-3.91A25.23,25.23,0,0,0,47.49,30c-3.54-2.2-8.86.56-12.08,1.54,0,0,1.48,1.94,1.46,1.92s1.35,1.9,1.56,1.84c1.91-.54,6.25-3.1,8.73-1.29,1.49,1.1,3.28,2.74,3.85,4.56.8,2.53-.42,5.77-1.64,7.94a12.26,12.26,0,0,1-7.84,5.67,4.29,4.29,0,0,1-3.17.23,7.11,7.11,0,0,1-3.46-1.68,9.68,9.68,0,0,1-2.72-5.87c-.21-2.06.87-4.13,1.89-5.82A34,34,0,0,1,36.49,36a5.93,5.93,0,0,1,3.37-1.68,21,21,0,0,1-3.06-2.12C36.67,32.13,34,30,33.67,30.19Z"/>
        <path class="cls-3" d="M36.45,27.18a7.17,7.17,0,0,0-4,2.7A22.22,22.22,0,0,0,29.57,35,20.13,20.13,0,0,0,28,40.4a8.68,8.68,0,0,0,1,5.73c1.41,3.2,4.35,7.06,7.77,8.33,3.2,1.19,7.33.3,10.24-1.18a18.11,18.11,0,0,0,8.47-8.42C57,41.62,58,37.44,56.56,34a16.21,16.21,0,0,0-6.12-6.78,4.37,4.37,0,0,0-3.52-.74,66.71,66.71,0,0,0-8.67,2.09s1.41,1.92,1.39,1.9,1.24,1.86,1.49,1.82c3.55-.51,6.52-2.32,8.93.46A14.85,14.85,0,0,1,53,37.25c.81,2.11.08,4.89-.76,6.9a14.13,14.13,0,0,1-6.37,7c-2.26,1.23-5.49,2.09-8,1.08C35,51.1,32.71,47.61,32,44.8c-.85-3.35.29-6.34,2.23-9.09a25.25,25.25,0,0,1,3.13-3.48,7.91,7.91,0,0,1,3.81-1.79,19.23,19.23,0,0,1-2.33-1.68C38.75,28.69,36.73,27.06,36.45,27.18Z"/>
        <path class="cls-3" d="M37.18,28.6a7.07,7.07,0,0,0-3.9,2.63,19.05,19.05,0,0,0-2.84,4.95A20.41,20.41,0,0,0,29,41.25a7.8,7.8,0,0,0,.92,5.07c1.27,2.85,3.87,6.49,6.87,7.74s6.76.57,9.48-.71a17.18,17.18,0,0,0,8.54-7.89c1.47-3,2.49-7.15,1.12-10.44a11.63,11.63,0,0,0-2.81-3.65,23.09,23.09,0,0,0-2.89-2.43,3.78,3.78,0,0,0-3.14-.61q-4.17.83-8.29,1.83c.08,0,1.86,2.49,1.85,2.47s1.6,2.43,1.94,2.4q5.58-2.62,6.71.8A1.08,1.08,0,0,0,49.93,37a2.59,2.59,0,0,1,.59,1.81l.18.52a11.36,11.36,0,0,1-9.09,10.87c-4.2.75-7.42-3.58-7.32-7.5a10,10,0,0,1,2.33-5.46,28.63,28.63,0,0,1,2.81-3,7,7,0,0,1,3.64-1.59,20.82,20.82,0,0,1-2.91-2.07C40,30.49,37.51,28.45,37.18,28.6Z"/>
        <path class="cls-3" d="M36.72,29.6a7.11,7.11,0,0,0-3.87,2.6,17.17,17.17,0,0,0-2.8,4.9,17.71,17.71,0,0,0-1.34,5A7.3,7.3,0,0,0,29.76,47c1.3,2.63,3.79,6,6.64,7.1s6.35.49,8.92-.7A16.16,16.16,0,0,0,53.47,46c1.43-2.9,2.49-6.85,1.17-10A11.74,11.74,0,0,0,52,32.5a18.7,18.7,0,0,0-2.72-2.3,3.27,3.27,0,0,0-2.9-.56c-2.67.56-5.34,1.12-8,1.66.13,0,2.31,3,2.31,3,.13.16,2,2.93,2.4,2.92,1.52-.05,6.09.25,5.39,2.91a19.61,19.61,0,0,1-.81,3.09A9,9,0,0,1,43,47.81c-1.09.39-2.85,1-4,.5-2.14-1-3.17-4-2.8-6.08a10.06,10.06,0,0,1,1.94-3.61c.8-.91,1.63-1.78,2.5-2.61a6.24,6.24,0,0,1,3.43-1.39,6.74,6.74,0,0,0-.75-.57l-2.91-2C40.31,32,37.13,29.43,36.72,29.6Z"/>
        <path class="cls-3" d="M34.81,32.2A7.69,7.69,0,0,0,31,35a19.72,19.72,0,0,0-2.9,5.11c-1.45,3.6-2.07,7.07-.37,10.7,1.44,3.06,4.17,6.71,7.42,8s7.08.6,10.1-.76a17.55,17.55,0,0,0,9-8.24c1.62-3.3,2.83-7.84,1.39-11.45A15.89,15.89,0,0,0,52.22,34a16,16,0,0,0-3.43-2.77c-4-2.19-8.9.71-12.56,2.1,0,0,1,2.21,1.22,2.13,3.12-1.3,7.17-4.19,10.69-2.12,2,1.17,4.65,3.9,5.24,6.19.75,3-.88,6.74-2.39,9.14a13.17,13.17,0,0,1-8.13,5.74A8,8,0,0,1,36,53.56a11.46,11.46,0,0,1-4.32-5.69c-.89-2.45-.2-4.95.81-7.25a21.21,21.21,0,0,1,2.34-3.87,6.59,6.59,0,0,1,3.41-2.25c-.06,0-1.7-1.2-1.7-1.2S35,32.09,34.81,32.2Z"/>
        <path class="cls-3" d="M38.05,29.79a7.21,7.21,0,0,0-3.87,2.63,19.54,19.54,0,0,0-2.88,4.91c-1.47,3.44-2.15,6.7-.58,10.23,1.3,2.93,3.93,6.54,7,7.81s6.8.6,9.61-.67A17,17,0,0,0,56,46.83c1.51-3.08,2.47-7.12,1.09-10.42a12.59,12.59,0,0,0-2.78-3.73,18.69,18.69,0,0,0-2.83-2.5c-3.17-1.95-8.95.4-11.69,1,0,0,1.47,1.94,1.46,1.93S42.5,35,42.78,35c3.76-.37,6.78-2.37,8,1.3.42,1.29,1.17,2.67.88,4.08a1,1,0,0,1-.37,1,7.94,7.94,0,0,1-1.09,3.89,11.85,11.85,0,0,1-6.05,5.16c-1.92.72-3.65,1.17-5.57.12a9.22,9.22,0,0,1-4-5.6c-.64-2.49.47-4.82,1.77-6.89A24.18,24.18,0,0,1,39,34.72a7.29,7.29,0,0,1,3.61-1.81,19.79,19.79,0,0,1-2.25-1.61C40.28,31.23,38.33,29.66,38.05,29.79Z"/>
        <path class="cls-3" d="M34.88,30.1A7.32,7.32,0,0,0,31,32.72a16.7,16.7,0,0,0-2.86,5,18.07,18.07,0,0,0-1.36,5.15,7.52,7.52,0,0,0,1.16,5.05c1.41,2.7,4,6,6.9,7.13s6.44.57,9.13-.65c3.6-1.64,6.6-3.93,8.38-7.55,1.47-3,2.54-6.85,1.22-10.09a12.8,12.8,0,0,0-2.69-3.63A21.46,21.46,0,0,0,48,30.62c-3.16-2.06-8.69.43-11.48,1.13.08,0,2,2.66,2,2.64S40.39,37,40.7,37l6.43-1-.27-.63A9.29,9.29,0,0,0,48.4,38a4,4,0,0,1,.87,2.72,8.64,8.64,0,0,0-.76,2.78A10.08,10.08,0,0,1,46,47.24c-1.67,1.59-4.33,3-6.71,2.72a4.91,4.91,0,0,1-3.51-2.21,5.65,5.65,0,0,1-.79-2.5,2,2,0,0,1-.29-1.67,9.59,9.59,0,0,1,1.81-4.3c.75-1,1.54-1.86,2.38-2.74a5.86,5.86,0,0,1,3.35-1.48,6.64,6.64,0,0,0-.75-.56l-2.91-2C38.47,32.44,35.29,29.92,34.88,30.1Z"/>
        <path class="cls-3" d="M37.67,31a7.35,7.35,0,0,0-3.86,2.63A17.93,17.93,0,0,0,31,38.51c-1.42,3.41-2.08,6.66-.46,10.12,1.33,2.83,3.93,6.3,7,7.5s6.62.49,9.35-.77a16.66,16.66,0,0,0,8.3-7.73c1.45-3,2.39-6.93,1-10.15a12.68,12.68,0,0,0-2.71-3.63,19.06,19.06,0,0,0-2.73-2.42c-3.08-1.95-8.81.44-11.44,1,0,0,1.52,2.05,1.51,2s1.32,2,1.6,2c3.64-.45,6.55-2.64,7.49.84.33,1.22,1.09,2.55.72,3.86a1.2,1.2,0,0,1-.53,1,6.61,6.61,0,0,1-1.19,3.48A10.68,10.68,0,0,1,43.4,50c-1.73.52-2.86,1-4.56.08a8,8,0,0,1-3.51-4.5c-.69-2.11.34-4.32,1.37-6.13a21.2,21.2,0,0,1,2.5-3.24,6.58,6.58,0,0,1,3.47-1.8,21.35,21.35,0,0,1-2.47-1.74C40.1,32.57,38,30.86,37.67,31Z"/>
        <path class="cls-3" d="M35.69,31.75a7.54,7.54,0,0,0-3.9,2.61,16.6,16.6,0,0,0-2.9,4.94c-1.43,3.46-2.08,6.77-.37,10.25,1.37,2.8,4,6.25,7,7.39s6.54.35,9.25-.91a17,17,0,0,0,8.32-7.62c1.53-3,2.57-6.76,1.29-10a14,14,0,0,0-2.68-3.83,16.69,16.69,0,0,0-2.81-2.63c-3.3-2.2-8.79.46-11.74,1.27,0,0,1.52,2,1.5,2s1.36,2,1.6,1.94c3-.68,6.28-3.21,8.18-.35.88,1.31,2,3,1.87,4.69A2.13,2.13,0,0,1,49.76,43,8.74,8.74,0,0,1,48,46.81a10.22,10.22,0,0,1-6.29,3.94q-1.06.21-2.16.33a2.78,2.78,0,0,1-2.08-1,3.45,3.45,0,0,1-1.68-1.73,9.47,9.47,0,0,0-1.08-2.38c-.58-1.83.35-3.9,1.19-5.48a21.66,21.66,0,0,1,2.26-3.11,5.89,5.89,0,0,1,3.32-1.75,20.74,20.74,0,0,1-2.84-2C38.48,33.54,36,31.6,35.69,31.75Z"/>
        <path class="cls-3" d="M33.41,29.33a7.32,7.32,0,0,0-4,2.69,18.45,18.45,0,0,0-2.9,5.13c-1.43,3.61-2,7-.27,10.57,1.43,2.93,4.15,6.65,7.27,8s7.24.75,10.17-.62c3.89-1.82,7.14-4.38,9-8.36,1.52-3.25,2.59-7.64,1.07-11.12a13.14,13.14,0,0,0-3.12-3.83,37.72,37.72,0,0,0-3.27-2.64c-3.58-2.17-8.93.6-12.18,1.59,0,0,1.45,1.92,1.42,1.89s1.32,1.87,1.53,1.82c1.89-.54,6.34-3,8.91-1.38,1.59,1,3.52,2.47,4.29,4.26,1.13,2.63,0,6.09-1.11,8.49-1.62,3.38-4.53,5.36-8,6.64a4.5,4.5,0,0,1-3.5.47,8.7,8.7,0,0,1-4-1.52,10.78,10.78,0,0,1-3.4-6.88c-.16-2.27,1-4.4,2.17-6.25a34.9,34.9,0,0,1,2.57-3.12,6.12,6.12,0,0,1,3.45-1.68,22.33,22.33,0,0,1-3-2.11C36.39,31.26,33.75,29.18,33.41,29.33Z"/>
        <path class="cls-3" d="M36.31,31a7.31,7.31,0,0,0-3.89,2.57,16.22,16.22,0,0,0-2.87,4.88,18,18,0,0,0-1.37,5,7.26,7.26,0,0,0,1.05,5c1.34,2.66,3.89,6,6.8,7.11s6.36.32,8.94-.89a16.14,16.14,0,0,0,8-7.42c1.4-2.86,2.43-6.72,1.16-9.83A12.14,12.14,0,0,0,51.52,34a19.48,19.48,0,0,0-2.64-2.33c-2.94-1.88-8.52.42-11,1C38,32.6,40,35.35,40,35.34S41.79,38,42.15,38l6-.6-3.63-6.05a22.14,22.14,0,0,0,3.8,8.14,2.13,2.13,0,0,1,.14,1.66l-.07.38a2.22,2.22,0,0,0-.78,2.1,10.41,10.41,0,0,1-3.46,4,6.33,6.33,0,0,1-3.5,1.1,1.33,1.33,0,0,1-1.22.12,4.26,4.26,0,0,1-2.46-2.29,7.56,7.56,0,0,1-.69-3.11,9.44,9.44,0,0,1,1.56-3.56,32.78,32.78,0,0,1,2.3-2.7,5.83,5.83,0,0,1,3.31-1.47,4.83,4.83,0,0,0-.72-.54l-2.8-1.9C39.76,33.22,36.7,30.8,36.31,31Z"/>
        <path class="cls-3" d="M35.9,32.08A7.53,7.53,0,0,0,32,34.73a17.32,17.32,0,0,0-2.92,5c-1.44,3.53-2.09,6.91-.43,10.48,1.39,3,4.07,6.6,7.24,7.88s6.84.55,9.75-.75a17.27,17.27,0,0,0,8.78-8C56,46.23,57,42.14,55.74,38.69a15.89,15.89,0,0,0-3-4.31,14.72,14.72,0,0,0-3.12-2.88c-3.66-2.29-8.85.59-12.19,1.7.23-.08,1.51,2.7,1.92,2.56,2.78-.9,6.92-3.7,9.69-1.1,1.55,1.46,3.39,4.22,3.56,6.39a5.59,5.59,0,0,1-.53,2.66,11.61,11.61,0,0,1-2,4.46A12.52,12.52,0,0,1,42.62,53c-2.16.51-3.71.55-5.65-.7A10.35,10.35,0,0,1,33,47.14c-.8-2.29,0-4.67,1-6.76a16.82,16.82,0,0,1,2.39-3.62,6.49,6.49,0,0,1,3.46-2c-.1,0-1.93-1.37-1.95-1.38S36.15,32,35.9,32.08Z"/>
        <path class="cls-3" d="M35.62,29.05a7,7,0,0,0-3.89,2.64,17.14,17.14,0,0,0-2.79,5,18,18,0,0,0-1.32,5.08,7.51,7.51,0,0,0,1.11,5c1.34,2.64,3.83,6.1,6.69,7.27s6.48.55,9.09-.66a16.6,16.6,0,0,0,8.34-7.59c1.46-3,2.54-6.92,1.23-10.14A12,12,0,0,0,51.38,32a21,21,0,0,0-2.81-2.44,3.5,3.5,0,0,0-3-.66q-4.14.78-8.23,1.81c.11,0,2.26,2.93,2.25,2.92s1.95,2.88,2.34,2.84l6-.58L44,29.44a11.79,11.79,0,0,0,4.3,8.21,2.23,2.23,0,0,1,.63,1.66,9.17,9.17,0,0,1-.38,3.08c-1.06,3.75-5.81,7.91-9.87,6.72-2.71-.8-4.12-4.6-3.5-7.17a11.79,11.79,0,0,1,2.06-3.69c.82-.91,1.67-1.8,2.55-2.65a6.28,6.28,0,0,1,3.44-1.4,6.13,6.13,0,0,0-.77-.57l-3-2.05C39.32,31.49,36,28.87,35.62,29.05Z"/>
        <path class="cls-3" d="M37.9,28.38a7.86,7.86,0,0,0-4,2.8,19.72,19.72,0,0,0-3.07,5.29,17.55,17.55,0,0,0-1.53,5.67,8.36,8.36,0,0,0,1.2,5.68c1.55,3.1,4.56,6.77,8,7.94,3.19,1.09,6.93.11,9.83-1.27a18,18,0,0,0,8.84-8.35c1.55-3.22,2.5-7.42,1.09-10.88a13.24,13.24,0,0,0-3-4.09,21,21,0,0,0-3.14-2.74c-3.51-2.16-9.12.42-12.3,1.27.32-.09,1.45,2.82,2,2.73,4-.7,7.2-2.67,9.74.78a14,14,0,0,1,2.65,5.5,2.05,2.05,0,0,1-.05,1.63A11.78,11.78,0,0,1,53,45.19a14.24,14.24,0,0,1-6.67,6.71c-2.13,1.08-4.45,2.19-6.9,1.48-2.84-.82-5.38-3.85-6.55-6.42-1.51-3.35-.56-6.57,1.09-9.68a15.66,15.66,0,0,1,3.16-4.35,9.24,9.24,0,0,1,4-2.32s-1.59-1.17-1.59-1.17S38.11,28.28,37.9,28.38Z"/>
        <path class="cls-3" d="M33.46,28.5a7.25,7.25,0,0,0-4,2.71,19.36,19.36,0,0,0-2.89,5.15c-1.43,3.63-2,7-.26,10.59a21.83,21.83,0,0,0,3.22,4.73,13.44,13.44,0,0,0,4.15,3.5c3.12,1.34,7.34.69,10.27-.72,3.88-1.87,7.14-4.51,8.95-8.5,1.48-3.28,2.49-7.65,1-11.12-1.12-2.55-4-5-6.35-6.44-3.58-2.19-9,.55-12.26,1.51,0,0,1.52,2,1.5,2s1.37,2,1.59,1.91c2.09-.55,6.32-2.86,8.92-1.17,1.55,1,3.36,2.29,4.16,4,1.21,2.59.29,6-.79,8.45-1.52,3.48-4.44,5.63-7.85,7.08a5,5,0,0,1-3.62.69,9.1,9.1,0,0,1-4.25-1.26c-2.08-1.52-3.72-5.08-3.88-7.6s1.08-4.58,2.42-6.53a40.11,40.11,0,0,1,2.7-3.11,6.48,6.48,0,0,1,3.52-1.65,21.49,21.49,0,0,1-3.09-2.15C36.49,30.48,33.81,28.35,33.46,28.5Z"/>
        <path class="cls-3" d="M37.23,31.4a7.65,7.65,0,0,0-3.86,2.73,20.26,20.26,0,0,0-2.88,5c-1.46,3.54-2.09,7-.43,10.53,1.4,3,4.13,6.62,7.32,7.92s6.91.58,9.84-.73a17.24,17.24,0,0,0,8.76-8c1.54-3.14,2.45-7.1,1.13-10.48a16,16,0,0,0-2.9-4.24,15.74,15.74,0,0,0-3-2.87c-3.63-2.4-8.86.36-12.23,1.39.23-.07,1.38,2.6,1.8,2.49,3.49-1,7.22-3.53,9.8-.15,1.24,1.63,2.73,4.35,2.63,6.46a3,3,0,0,1-.61,1.79,10.27,10.27,0,0,1-1.7,4.21,13.1,13.1,0,0,1-6.82,5.12c-2.09.68-3.81,1-5.86,0a10.36,10.36,0,0,1-4.66-5.37c-1-2.56-.18-5.17,1-7.53a20.55,20.55,0,0,1,2.54-3.81,7.13,7.13,0,0,1,3.52-2.19c-.05,0-1.64-1.18-1.65-1.18S37.44,31.3,37.23,31.4Z"/>
        <path class="cls-3" d="M37.79,29.57a7.19,7.19,0,0,0-3.88,2.6,18.3,18.3,0,0,0-2.83,4.88,18.56,18.56,0,0,0-1.42,5,7.58,7.58,0,0,0,.95,5c1.28,2.75,3.82,6.22,6.74,7.41s6.57.56,9.24-.67a16.71,16.71,0,0,0,8.34-7.65c1.46-3,2.48-7,1.1-10.25a11.75,11.75,0,0,0-2.78-3.49,19.75,19.75,0,0,0-2.78-2.3,3.59,3.59,0,0,0-3-.57q-4.08.75-8.12,1.67c.09,0,1.92,2.55,1.91,2.54s1.64,2.49,2,2.47l6,.1-1.64-6.06,1.67,6.69-.07-.78a1.75,1.75,0,0,0,.36,2.18,2,2,0,0,1,.16,1.57c-.15.81-.17,1.72-.38,2.61-.87,3.64-5.18,7.27-8.94,7-3-.21-5.23-4.23-4.92-7a10.84,10.84,0,0,1,2-4.32,27.57,27.57,0,0,1,2.66-2.95,6.91,6.91,0,0,1,3.55-1.58,20.72,20.72,0,0,1-2.94-2.08C40.69,31.48,38.13,29.42,37.79,29.57Z"/>
        <path class="cls-3" d="M33.7,31.34a7.51,7.51,0,0,0-3.89,2.71,19.35,19.35,0,0,0-2.94,5.1c-1.47,3.6-2.12,7.05-.38,10.68,1.44,3,4.16,6.62,7.36,7.9S41,58.42,44,57.05c3.93-1.8,7.15-4.35,9-8.32,1.59-3.31,2.79-7.93,1.27-11.51A14.84,14.84,0,0,0,51,33.09a20.78,20.78,0,0,0-3.45-2.67c-3.76-2.05-8.81.87-12.16,2.06.22-.08,1.59,2.72,2,2.58,2.14-.81,6.66-3.69,9.55-2.19,2,1,4.64,3.3,5.41,5.43,1.06,3-.39,6.88-1.81,9.41-1.84,3.29-4.72,5.1-8.25,6.18a5,5,0,0,1-3.43.33A8.56,8.56,0,0,1,35,52.64a11.13,11.13,0,0,1-3.66-6c-.53-2.29.32-4.62,1.33-6.64A25.24,25.24,0,0,1,35,36.42a6,6,0,0,1,3.35-2,22.64,22.64,0,0,1-2.29-1.59C36,32.76,34,31.21,33.7,31.34Z"/>
        <path class="cls-3" d="M37.61,28.19a7.33,7.33,0,0,0-4,2.66,20,20,0,0,0-3,5A19.39,19.39,0,0,0,29.1,41.3a8.3,8.3,0,0,0,1,5.59c1.41,3.08,4.27,6.79,7.57,8,3.12,1.16,6.91.3,9.78-1.06a17.78,17.78,0,0,0,8.77-8.21c1.53-3.18,2.5-7.34,1.12-10.75A12.4,12.4,0,0,0,54.45,31a21.16,21.16,0,0,0-3-2.64c-3.31-2-9.16.51-12,1.21,0,0,1.32,1.82,1.3,1.8S41.8,33.08,42.05,33c3.8-.47,6.77-2.35,8.81,1a14.84,14.84,0,0,1,2,4.53,1.54,1.54,0,0,1,0,1.4,10.93,10.93,0,0,1-1,4.68,13.4,13.4,0,0,1-6.58,6.43c-2.08,1-4.39,1.85-6.7.94-2.59-1-4.73-4.06-5.53-6.61-1-3.16.13-6.16,1.86-8.84A19.13,19.13,0,0,1,38,33a8.1,8.1,0,0,1,3.82-1.86,20.05,20.05,0,0,1-2.08-1.5C39.66,29.53,37.87,28.08,37.61,28.19Z"/>
        <path class="cls-3" d="M37.53,30.72a8.31,8.31,0,0,0-4,2.93,19.77,19.77,0,0,0-2.94,5.27c-1.45,3.68-2.05,7.25-.2,10.9,1.52,3,4.31,6.45,7.56,7.71s7,.56,10-.8a17.69,17.69,0,0,0,8.91-8.21c1.57-3.2,2.47-7.28,1.11-10.72a15.74,15.74,0,0,0-3-4.34,15.7,15.7,0,0,0-3.12-2.92c-3.83-2.46-9.08.38-12.63,1.53.07,0,1,2.25,1.24,2.17,3.76-1.13,7.75-3.89,10.71-.35,1.45,1.72,3.06,4.56,3.11,6.86a3.51,3.51,0,0,1-.48,2,11.05,11.05,0,0,1-1.6,4.51,14.42,14.42,0,0,1-7,5.85C43,54,41,54.51,38.67,53.61a11.26,11.26,0,0,1-5.48-5.31c-1.47-2.85-.73-5.87.5-8.66a18.39,18.39,0,0,1,2.72-4.44,9,9,0,0,1,3.77-2.69C39.81,32.7,38.05,30.45,37.53,30.72Z"/>
        <path class="cls-3" d="M35.79,27.83a6.92,6.92,0,0,0-3.9,2.67,20.77,20.77,0,0,0-2.83,5c-1.44,3.51-2,6.72-.45,10.29a17.88,17.88,0,0,0,3.05,4.68,13.43,13.43,0,0,0,4,3.44c3,1.26,6.92.55,9.7-.75a17.12,17.12,0,0,0,8.68-8C55.56,42,56.56,38,55.21,34.6a12.19,12.19,0,0,0-2.8-3.87,22.3,22.3,0,0,0-3-2.66,3.94,3.94,0,0,0-3.32-.72,83.83,83.83,0,0,0-8.54,2c.07,0,1.88,2.44,1.86,2.42s1.64,2.39,2,2.35c3-.37,6-2.38,7.62.36a2.43,2.43,0,0,0,1.07,1.43,4.17,4.17,0,0,1,1,2.24c.64,1.85-.16,4.42-1,6.12a12.21,12.21,0,0,1-6.76,6c-2.09.85-4.59,1.2-6.61-.15S33.13,45.5,33,43.09s1.15-4.58,2.64-6.49c.91-1,1.86-2,2.87-2.94a7,7,0,0,1,3.62-1.52c-.3.07-3-2.13-3.12-2.21S36.14,27.68,35.79,27.83Z"/>
        <path class="cls-3" d="M37.91,30a8,8,0,0,0-4,2.85,20,20,0,0,0-3,5.25,17.81,17.81,0,0,0-1.46,5.54,8.29,8.29,0,0,0,1.17,5.45c1.52,3,4.32,6.45,7.58,7.69s7,.49,9.93-.86a17.8,17.8,0,0,0,8.9-8.21c1.56-3.19,2.47-7.28,1.08-10.7a14.54,14.54,0,0,0-3-4.16A18.29,18.29,0,0,0,52.13,30c-3.62-2.33-9,.32-12.34,1.29.23-.06,1.27,2.5,1.68,2.4,3.89-.91,7.41-3.2,10,.41A12.34,12.34,0,0,1,54,40.29,2.39,2.39,0,0,1,53.65,42a10.54,10.54,0,0,1-1.36,4.48,14.2,14.2,0,0,1-6.81,6c-2.15.93-4.18,1.54-6.49.69a11.09,11.09,0,0,1-5.6-5.49c-1.46-3-.6-6.06.76-8.91A18,18,0,0,1,37,34.43,8.86,8.86,0,0,1,40.83,32S39.39,30.9,39.4,30.9,38.1,29.86,37.91,30Z"/>
      </g>
      <g>
        <path class="cls-3" d="M17,33.43a8.71,8.71,0,0,0-4.15,4.45,16.73,16.73,0,0,0-1.4,8.19,11.51,11.51,0,0,0,2.33,6.27c2.07,2.65,4.79,4.74,7.31,6.92,0,0,.92-2.42.9-2.39a11.85,11.85,0,0,0,.8-2.42c-1.92-1.51-4.48-3.24-5.78-5.37A8.08,8.08,0,0,1,15.53,45a12.89,12.89,0,0,1,1.39-6.22,7.31,7.31,0,0,1,3.49-3.34c-.05,0-1.68-1.06-1.68-1.06S17.19,33.31,17,33.43Z"/>
        <path class="cls-3" d="M15.85,32.42a8.38,8.38,0,0,0-4.32,4.31,15.32,15.32,0,0,0-1.27,8,10.65,10.65,0,0,0,2.38,6,56.88,56.88,0,0,0,6.84,6.23s1.42-3.25,1.4-3.2a18.68,18.68,0,0,0,1.3-3.25c-2.17-1.87-4.6-4-4.25-7.13a9.36,9.36,0,0,1,1.49-4.46,5.66,5.66,0,0,1,3.39-2.34,4.16,4.16,0,0,0-.71-.47c-.91-.55-1.82-1.1-2.74-1.64C19.22,34.36,16.22,32.24,15.85,32.42Z"/>
        <path class="cls-3" d="M15.36,28.83a8.13,8.13,0,0,0-4.26,4.49,16.85,16.85,0,0,0-1.38,8.2A11.34,11.34,0,0,0,12.13,48a62.23,62.23,0,0,0,7.23,7.2c-.12-.11,1.59-2.22,1.35-2.49-1.9-2.07-4.35-4.42-5.51-7l-1-2.81a5.72,5.72,0,0,1,.41-2.35c.66-2.06,1.12-4,2.61-5.67a7.57,7.57,0,0,1,4-2.51,18.73,18.73,0,0,1-2.88-1.82C18.19,30.48,15.67,28.67,15.36,28.83Z"/>
        <path class="cls-3" d="M14.56,29.24a8.17,8.17,0,0,0-4.29,4.5A16.5,16.5,0,0,0,9,41.94a11.7,11.7,0,0,0,2.47,6.43,64.05,64.05,0,0,0,7.17,7.19c-.15-.14,1.73-2.45,1.46-2.76-1.82-2.11-4.17-4.5-5.24-7.12-.68-1.69-1.17-3.08-.48-4.83.78-2,1-3.69,2.49-5.42a7.15,7.15,0,0,1,3.87-2.49,20.76,20.76,0,0,1-3-1.9C17.55,31,14.89,29.07,14.56,29.24Z"/>
        <path class="cls-3" d="M18.17,32a8.15,8.15,0,0,0-4.23,4.2,15.11,15.11,0,0,0-1.28,7.72,10.12,10.12,0,0,0,2.24,5.79,56.07,56.07,0,0,0,6.64,6.25S23,52.6,23,52.64a20.28,20.28,0,0,0,1.3-3.32c-2.13-1.66-4.87-3.72-4.37-6.71a9.17,9.17,0,0,1,1.66-4.33,6.11,6.11,0,0,1,3.52-2.18,4.76,4.76,0,0,0-.7-.47L21.65,34C21.51,33.9,18.54,31.78,18.17,32Z"/>
        <path class="cls-3" d="M14.35,31.63A8.43,8.43,0,0,0,10,36.05a15.73,15.73,0,0,0-1.27,8.14,11.62,11.62,0,0,0,2.44,6.22A61,61,0,0,0,18.11,57s1-2.55,1-2.51S20.17,52.16,20,52c-2.25-2.51-5.17-5.56-4.42-9.17a12.11,12.11,0,0,1,1.78-4.85,6,6,0,0,1,3.46-2.47,3.54,3.54,0,0,0-.65-.44c-.85-.52-1.7-1-2.56-1.53C17.49,33.42,14.69,31.46,14.35,31.63Z"/>
        <path class="cls-3" d="M17.14,28.64a8.2,8.2,0,0,0-4.27,4.41,17.43,17.43,0,0,0-1.58,8.35,10.82,10.82,0,0,0,2.37,6.74,55.47,55.47,0,0,0,7.43,7c-.05,0,1.42-2,1.22-2.18-2.07-1.89-4.77-4-6.16-6.51l-1.23-2.64a9.05,9.05,0,0,1,.19-3,13.85,13.85,0,0,1,2.68-6.54,8.44,8.44,0,0,1,4.14-2.69,17.65,17.65,0,0,1-2.36-1.52C19.46,30,17.41,28.5,17.14,28.64Z"/>
        <path class="cls-3" d="M17.88,30a8,8,0,0,0-4.21,4.31,16.07,16.07,0,0,0-1.37,7.88,10.45,10.45,0,0,0,2.2,6A57.8,57.8,0,0,0,21.29,55s.85-2.13.84-2.1.89-2,.73-2.15c-1.6-1.6-3.79-3.51-4.68-5.66-.55-1.31-1-2.57-.43-3.93.79-1.87.84-3.43,2.27-5.09a7.38,7.38,0,0,1,3.88-2.38,20,20,0,0,1-3-1.88C20.81,31.73,18.21,29.86,17.88,30Z"/>
        <path class="cls-3" d="M17.45,31a8,8,0,0,0-4.21,4.27A15,15,0,0,0,12,43a10.45,10.45,0,0,0,2.31,5.8A59.28,59.28,0,0,0,20.93,55s1.32-3.09,1.3-3,1.38-2.94,1.2-3.1c-2-1.8-4.7-4.13-3.83-7.08a10.17,10.17,0,0,1,1.88-4.14,6.19,6.19,0,0,1,3.57-2,5.77,5.77,0,0,0-.77-.52l-3-1.82C21.14,33.17,17.84,30.81,17.45,31Z"/>
        <path class="cls-3" d="M15.51,33.68a8.83,8.83,0,0,0-4.2,4.48A16.68,16.68,0,0,0,9.93,46.4a11.65,11.65,0,0,0,2.34,6.37c2.06,2.64,4.79,4.72,7.3,6.9,0,0,.94-2.43.92-2.39a11.46,11.46,0,0,0,.81-2.44c-1.84-1.58-4.3-3.4-5.51-5.57a8.38,8.38,0,0,1-1.35-4,13.38,13.38,0,0,1,1.32-6.09,7,7,0,0,1,3.41-3.32c-.06,0-1.8-1.12-1.8-1.12S15.72,33.56,15.51,33.68Z"/>
        <path class="cls-3" d="M18.75,31.22a8.19,8.19,0,0,0-4.19,4.26,16.1,16.1,0,0,0-1.48,7.93,10.64,10.64,0,0,0,2.2,6.06,55.73,55.73,0,0,0,7,6.88s.84-2.25.83-2.23a9.33,9.33,0,0,0,.72-2.26c-1.77-1.55-4.19-3.36-5.31-5.5a5.84,5.84,0,0,1-.91-4c.46-2,.7-3.89,2-5.62a7.37,7.37,0,0,1,3.78-2.66,19.43,19.43,0,0,1-2.32-1.47C21,32.53,19,31.08,18.75,31.22Z"/>
        <path class="cls-3" d="M15.58,31.51a8.36,8.36,0,0,0-4.3,4.36,15.29,15.29,0,0,0-1.19,8,10.81,10.81,0,0,0,2.45,6A60.59,60.59,0,0,0,19.29,56s1.36-3.1,1.34-3.05S22,50,21.85,49.8c-2-1.94-4.45-4.26-3.74-7.29a9.91,9.91,0,0,1,1.69-4.23,5.75,5.75,0,0,1,3.45-2.19,4.6,4.6,0,0,0-.78-.52l-3-1.82C19.31,33.67,16,31.31,15.58,31.51Z"/>
        <path class="cls-3" d="M18.37,32.41a8.35,8.35,0,0,0-4.19,4.27,15.7,15.7,0,0,0-1.37,7.87,10.43,10.43,0,0,0,2.22,6A53.63,53.63,0,0,0,22,57s1.17-2.88,1.15-2.84a16.92,16.92,0,0,0,1.05-2.88c-2.57-2-6-4.33-5.8-7.93A10.47,10.47,0,0,1,20,38.17a6.7,6.7,0,0,1,3.58-2.66A19.39,19.39,0,0,1,21,33.91C20.88,33.85,18.65,32.26,18.37,32.41Z"/>
        <path class="cls-3" d="M16.39,33.17a8.45,8.45,0,0,0-4.28,4.29,15.55,15.55,0,0,0-1.33,7.95,10.71,10.71,0,0,0,2.31,6.05A53.47,53.47,0,0,0,20,57.83s1.42-3.29,1.4-3.25a19.81,19.81,0,0,0,1.29-3.28c-2.35-1.85-5-3.95-5-7.21a9.38,9.38,0,0,1,1.34-4.8,5.8,5.8,0,0,1,3.35-2.56,21.2,21.2,0,0,1-3-1.83C19.31,34.83,16.71,33,16.39,33.17Z"/>
        <path class="cls-3" d="M14.09,30.78a8.38,8.38,0,0,0-4.33,4.47,16.06,16.06,0,0,0-1.25,8.18A11.6,11.6,0,0,0,11,49.73,63.72,63.72,0,0,0,18,56.62s1-2,1-2,1-1.87.86-2c-1.61-1.89-3.74-4.06-4.61-6.44l-.73-2.6a2.42,2.42,0,0,1,.33-1.45,13.72,13.72,0,0,1,2-5,6.36,6.36,0,0,1,3.6-2.49,3.54,3.54,0,0,0-.65-.44c-.83-.51-1.67-1-2.51-1.51C17.18,32.55,14.43,30.61,14.09,30.78Z"/>
        <path class="cls-3" d="M17,32.36a8.33,8.33,0,0,0-4.27,4.24,15.1,15.1,0,0,0-1.26,7.8,10.33,10.33,0,0,0,2.32,5.87,56.46,56.46,0,0,0,6.69,6.15s1.58-3.56,1.56-3.51a22.93,22.93,0,0,0,1.45-3.55c-2-1.59-4.38-3.47-4-6.3A8.49,8.49,0,0,1,21,38.93a5.58,5.58,0,0,1,3.38-2.16,5.15,5.15,0,0,0-.75-.5l-2.92-1.75C20.6,34.43,17.4,32.17,17,32.36Z"/>
        <path class="cls-3" d="M16.57,33.51a8.51,8.51,0,0,0-4.24,4.34A16.3,16.3,0,0,0,10.94,46a11.3,11.3,0,0,0,2.28,6.22A52.66,52.66,0,0,0,20.39,59s1-2.7,1-2.66a13.4,13.4,0,0,0,.91-2.7c-2.77-2.3-6.33-5-6.44-8.91A11.46,11.46,0,0,1,17.24,39a6.64,6.64,0,0,1,3.49-3,21.63,21.63,0,0,1-2.05-1.28C18.58,34.63,16.81,33.38,16.57,33.51Z"/>
        <path class="cls-3" d="M16.34,30.47a8.07,8.07,0,0,0-4.23,4.36A15.31,15.31,0,0,0,11,42.7a11.13,11.13,0,0,0,2.37,5.92A62.64,62.64,0,0,0,19.91,55s1.21-2.83,1.19-2.79,1.26-2.65,1.08-2.84c-2-2.11-4.67-4.78-3.62-7.87a11.33,11.33,0,0,1,2-4.21,6.21,6.21,0,0,1,3.61-2.07,5.25,5.25,0,0,0-.79-.54l-3.09-1.87C20.14,32.69,16.73,30.27,16.34,30.47Z"/>
        <path class="cls-3" d="M18.54,29.83a9.21,9.21,0,0,0-4.42,4.6,17.42,17.42,0,0,0-1.54,8.7,11.21,11.21,0,0,0,2.53,6.65,50.79,50.79,0,0,0,7.66,6.75s1.4-2.14,1.21-2.28c-2.23-1.64-5.14-3.46-6.77-5.77l-1.44-2.4A9.09,9.09,0,0,1,15.39,43a14.2,14.2,0,0,1,2.05-7.56,10.69,10.69,0,0,1,4.38-3.63s-1.61-1-1.61-1S18.74,29.72,18.54,29.83Z"/>
        <path class="cls-3" d="M14.14,30a8.25,8.25,0,0,0-4.3,4.5,15.9,15.9,0,0,0-1.27,8.19A11.77,11.77,0,0,0,11.06,49a65.62,65.62,0,0,0,7.07,7c-.25-.23,2-3,1.62-3.46-1.67-2-3.86-4.27-4.78-6.75-.54-1.46-1-2.85-.35-4.33.87-1.86.87-3.38,2.27-5.12a6.61,6.61,0,0,1,3.71-2.45,4.18,4.18,0,0,0-.65-.45L17.4,31.84C17.28,31.77,14.48,29.78,14.14,30Z"/>
        <path class="cls-3" d="M17.91,32.86a8.63,8.63,0,0,0-4.15,4.41,16.59,16.59,0,0,0-1.43,8.16,11.14,11.14,0,0,0,2.31,6.23,52.18,52.18,0,0,0,7.29,6.88s.87-2.34.86-2.3a11.13,11.13,0,0,0,.75-2.35c-3-2.29-7.35-5.21-7.26-9.46a12.66,12.66,0,0,1,1.54-6.24A7.5,7.5,0,0,1,21.41,35c-.06,0-1.71-1.09-1.72-1.09S18.12,32.75,17.91,32.86Z"/>
        <path class="cls-3" d="M18.5,31a8,8,0,0,0-4.2,4.25A15.54,15.54,0,0,0,13,43a10.4,10.4,0,0,0,2.21,5.88,56.45,56.45,0,0,0,6.72,6.58s1.07-2.64,1.05-2.61a12.08,12.08,0,0,0,.95-2.65c-2.38-2.12-5.75-4.82-5-8.34a11,11,0,0,1,2-4.85,6.89,6.89,0,0,1,3.74-2.33,19.55,19.55,0,0,1-3-1.9C21.47,32.7,18.83,30.81,18.5,31Z"/>
        <path class="cls-3" d="M14.38,32.79a8.73,8.73,0,0,0-4.26,4.47,16.37,16.37,0,0,0-1.38,8.22,11.54,11.54,0,0,0,2.38,6.35c2,2.58,4.7,4.63,7.15,6.79,0,0,.95-2.42.94-2.39A10.45,10.45,0,0,0,20,53.81c-2.62-2.61-5.9-5.65-5.67-9.64a12.47,12.47,0,0,1,1.53-5.55,6.29,6.29,0,0,1,3.38-2.95,21.42,21.42,0,0,1-2.42-1.49C16.75,34.12,14.64,32.65,14.38,32.79Z"/>
        <path class="cls-3" d="M18.29,29.64A8.31,8.31,0,0,0,14,34a17,17,0,0,0-1.59,8.32,10.74,10.74,0,0,0,2.34,6.59,53,53,0,0,0,7.39,6.89c-.12-.1,1.58-2.52,1.31-2.75-2.05-1.72-4.75-3.67-6.14-6l-1.24-2.48a7.8,7.8,0,0,1,0-2.85A13.39,13.39,0,0,1,18.46,35a8.51,8.51,0,0,1,4.13-2.77,18.26,18.26,0,0,1-2.12-1.36C20.37,30.84,18.55,29.51,18.29,29.64Z"/>
        <path class="cls-3" d="M18.19,32.2a9.56,9.56,0,0,0-4.29,4.73,17,17,0,0,0-1.34,8.45A11.55,11.55,0,0,0,15,51.77c2.12,2.58,4.88,4.58,7.45,6.66-.24-.19,1.63-3.36,1.24-3.63C20.12,52.32,16,49.71,15.59,45A13.18,13.18,0,0,1,17,37.91a10.31,10.31,0,0,1,3.95-4.07C20.59,34.05,18.69,31.9,18.19,32.2Z"/>
        <path class="cls-3" d="M16.49,29.27a8,8,0,0,0-4.2,4.4,16,16,0,0,0-1.35,8,11.24,11.24,0,0,0,2.33,6.18,61.78,61.78,0,0,0,6.94,7.07c-.25-.24,2-3.1,1.62-3.52-1.7-1.92-4-4.14-4.93-6.58-.59-1.49-1.09-2.8-.35-4.3.9-1.84,1-3.39,2.51-5a7.16,7.16,0,0,1,3.87-2.27,4.18,4.18,0,0,0-.65-.45l-2.54-1.55C19.62,31.1,16.83,29.1,16.49,29.27Z"/>
        <path class="cls-3" d="M18.57,31.42a9.33,9.33,0,0,0-4.31,4.64,17,17,0,0,0-1.43,8.51A11.34,11.34,0,0,0,15.27,51a48.71,48.71,0,0,0,7.42,6.63c-.22-.18,1.51-3.09,1.14-3.35-3.61-2.55-7.72-5.2-8-10A13.65,13.65,0,0,1,17.51,37a10,10,0,0,1,4.06-3.79s-1.49-1-1.47-1S18.75,31.32,18.57,31.42Z"/>
      </g>
      <g>
        <path class="cls-3" d="M65.62,60.1a8.09,8.09,0,0,0,4.28-4.45,16.54,16.54,0,0,0,1.35-8.15,11.38,11.38,0,0,0-2.42-6.4,64.54,64.54,0,0,0-7.14-7.18c.16.15-1.7,2.47-1.42,2.78,2.66,3,7.48,7.44,5.8,11.84-.77,2-1.09,3.75-2.58,5.45a7.4,7.4,0,0,1-3.93,2.43c.29-.08,2.87,1.82,3,1.89S65.3,60.27,65.62,60.1Z"/>
        <path class="cls-3" d="M62.88,58.13a8.14,8.14,0,0,0,4.24-4.26A15.7,15.7,0,0,0,68.47,46a10.43,10.43,0,0,0-2.24-5.92,59.15,59.15,0,0,0-6.77-6.66s-1,2.5-1,2.47a11.73,11.73,0,0,0-.88,2.5c2.46,2.24,5.94,5.06,5.19,8.73a11.52,11.52,0,0,1-2,5A7,7,0,0,1,57,54.58a19.74,19.74,0,0,1,2.9,1.82C60,56.48,62.56,58.29,62.88,58.13Z"/>
        <path class="cls-3" d="M64.3,55.7a8.9,8.9,0,0,0,4.12-4.53,16.7,16.7,0,0,0,1.39-8.3,11.49,11.49,0,0,0-2.38-6.37c-2.1-2.64-4.84-4.72-7.38-6.89,0,0-.85,2.24-.84,2.21a10.76,10.76,0,0,0-.72,2.25c3.19,2.43,7.42,5.31,7.57,9.74a13.41,13.41,0,0,1-1.37,6.54,7.76,7.76,0,0,1-3.45,3.53s1.51,1,1.5,1S64.12,55.8,64.3,55.7Z"/>
        <path class="cls-3" d="M63.67,56.19a9.22,9.22,0,0,0,4.18-4.65,17,17,0,0,0,1.36-8.4,11.65,11.65,0,0,0-2.44-6.42c-2.12-2.6-4.88-4.63-7.44-6.76.28.24-1.81,3.68-1.37,4,3.49,2.48,7.61,5.17,7.95,9.84a13.21,13.21,0,0,1-1.34,6.87,9,9,0,0,1-3.66,3.89C61.26,54.34,63.17,56.49,63.67,56.19Z"/>
        <path class="cls-3" d="M64.63,57.33A8.3,8.3,0,0,0,68.91,53a14.76,14.76,0,0,0,1.18-7.83,10.4,10.4,0,0,0-2.43-5.84A65.71,65.71,0,0,0,61,33.3s-1.55,3.48-1.53,3.43-1.6,3.33-1.43,3.48c1.92,1.61,4.19,3.6,3.51,6.32A9.15,9.15,0,0,1,60,50.46a5.54,5.54,0,0,1-3.39,2,5.59,5.59,0,0,0,.82.55L60.57,55C60.72,55.06,64.22,57.53,64.63,57.33Z"/>
        <path class="cls-3" d="M62.41,58a8.31,8.31,0,0,0,4.45-4.2,16.51,16.51,0,0,0,1.51-8.24,10.86,10.86,0,0,0-2.31-6.38,52.65,52.65,0,0,0-7.22-6.78c.28.24-1.68,3.32-1.25,3.67,3.28,2.63,7.42,5.59,7,10.29-.18,2.13-.65,4.73-2,6.45a8.12,8.12,0,0,1-4.12,2.81,18.73,18.73,0,0,1,1.93,1.24C60.52,56.88,62.16,58.07,62.41,58Z"/>
        <path class="cls-3" d="M65.6,55.21A8.62,8.62,0,0,0,70,50.86a16.42,16.42,0,0,0,1.37-8.23A11.48,11.48,0,0,0,69,36.31c-2-2.62-4.76-4.69-7.24-6.86,0,0-1,2.59-1,2.55a12.22,12.22,0,0,0-.87,2.6c2.84,2.43,6.34,5.23,6.52,9.26a11.76,11.76,0,0,1-1.26,5.92,6.71,6.71,0,0,1-3.55,3.08,20.45,20.45,0,0,1,2,1.23C63.67,54.15,65.35,55.34,65.6,55.21Z"/>
        <path class="cls-3" d="M65.13,55.86a8.56,8.56,0,0,0,4.32-4.31,15.48,15.48,0,0,0,1.32-8,10.76,10.76,0,0,0-2.36-6.08,58.17,58.17,0,0,0-6.93-6.38s-1.4,3.25-1.38,3.21a20.61,20.61,0,0,0-1.28,3.24c2.37,1.9,5,4,4.94,7.33a9.49,9.49,0,0,1-1.31,4.83,5.72,5.72,0,0,1-3.33,2.6,19.79,19.79,0,0,1,3,1.83C62.22,54.21,64.81,56,65.13,55.86Z"/>
        <path class="cls-3" d="M63.92,56.39a8.35,8.35,0,0,0,4.3-4.22,15,15,0,0,0,1.27-7.8,10.23,10.23,0,0,0-2.32-5.86,60.62,60.62,0,0,0-6.7-6.21c.05,0-1.59,3.6-1.57,3.55a26.45,26.45,0,0,0-1.47,3.61c2.09,1.56,4.48,3.38,4.2,6.25a8.44,8.44,0,0,1-1.44,4.23,5.51,5.51,0,0,1-3.35,2.23,4.51,4.51,0,0,0,.72.48l2.79,1.68C60.49,54.41,63.55,56.57,63.92,56.39Z"/>
        <path class="cls-3" d="M64.3,60.45A8.3,8.3,0,0,0,68.6,56a17.58,17.58,0,0,0,1.59-8.44,10.93,10.93,0,0,0-2.41-6.8,57,57,0,0,0-7.49-7s-1.35,1.87-1.17,2c2.11,1.88,4.84,4,6.26,6.49L66.64,45a9.91,9.91,0,0,1-.18,3.17,14.08,14.08,0,0,1-2.67,6.72,8.56,8.56,0,0,1-4.16,2.75,19.3,19.3,0,0,1,2.31,1.47C62,59.14,64,60.59,64.3,60.45Z"/>
        <path class="cls-3" d="M66.45,57.33A8.4,8.4,0,0,0,70.81,53a15.36,15.36,0,0,0,1.24-8.07,11.21,11.21,0,0,0-2.49-6.11,66.21,66.21,0,0,0-6.83-6.46s-1.2,2.93-1.18,2.9-1.26,2.73-1.07,2.93c2.06,2.23,4.7,5,3.89,8.21a11.36,11.36,0,0,1-1.72,4.44,5.52,5.52,0,0,1-3.38,2.27,4.44,4.44,0,0,0,.73.49l2.83,1.7C63,55.33,66.08,57.52,66.45,57.33Z"/>
        <path class="cls-3" d="M62.61,57.22A8.26,8.26,0,0,0,66.88,53a15.67,15.67,0,0,0,1.36-7.83A10.25,10.25,0,0,0,66,39.27a58.66,58.66,0,0,0-6.84-6.53s-1.12,2.77-1.1,2.73a14.79,14.79,0,0,0-1,2.78c2.5,2,5.91,4.49,5.47,8.07a10.72,10.72,0,0,1-1.77,5.07,6.73,6.73,0,0,1-3.66,2.5,19.39,19.39,0,0,1,2.73,1.72C59.94,55.68,62.31,57.38,62.61,57.22Z"/>
        <path class="cls-3" d="M65.63,58.26a8.25,8.25,0,0,0,4.3-4.39,15.15,15.15,0,0,0,1.14-8,11.25,11.25,0,0,0-2.46-6A64.58,64.58,0,0,0,62,33.55s-1.2,2.82-1.19,2.78S59.5,39,59.68,39.17c2,2.17,4.61,4.82,3.64,8a11.05,11.05,0,0,1-1.88,4.29,6,6,0,0,1-3.54,2.17,5.19,5.19,0,0,0,.79.53c1,.62,2,1.23,3.05,1.84C61.88,56.08,65.24,58.46,65.63,58.26Z"/>
        <path class="cls-3" d="M63.53,59a8.09,8.09,0,0,0,4.23-4.32,15.77,15.77,0,0,0,1.32-7.86,10.57,10.57,0,0,0-2.24-6,62.42,62.42,0,0,0-6.72-6.69s-.91,2.27-.9,2.24-.94,2.11-.78,2.28C60,40.17,62.07,42,62.89,44.13a5.09,5.09,0,0,1,.31,3.74A12.29,12.29,0,0,1,61,52.76a7,7,0,0,1-3.8,2.32,3.67,3.67,0,0,0,.64.45c.83.52,1.67,1,2.5,1.53C60.45,57.14,63.2,59.12,63.53,59Z"/>
        <path class="cls-3" d="M62.83,57.51A9,9,0,0,0,67.06,53a17,17,0,0,0,1.47-8.43,11.17,11.17,0,0,0-2.4-6.43,51.94,51.94,0,0,0-7.36-6.69c.25.21-1.61,3.26-1.21,3.55,3.52,2.58,7.62,5.31,7.66,10.12a13.64,13.64,0,0,1-1.76,7,9,9,0,0,1-3.86,3.47s1.59,1,1.58,1S62.63,57.62,62.83,57.51Z"/>
        <path class="cls-3" d="M63.48,57.73a8.06,8.06,0,0,0,4.24-4.24A15,15,0,0,0,69,45.74,10.33,10.33,0,0,0,66.63,40,61.68,61.68,0,0,0,60,33.73s-1.34,3.15-1.32,3.11-1.4,3-1.22,3.15c2.06,1.77,4.78,4,4,7a9.9,9.9,0,0,1-1.8,4.22,6.06,6.06,0,0,1-3.54,2.11,4.58,4.58,0,0,0,.74.5c1,.59,1.92,1.18,2.89,1.76C59.93,55.66,63.1,57.92,63.48,57.73Z"/>
        <path class="cls-3" d="M64.75,59.91A8.08,8.08,0,0,0,69,55.5a16.61,16.61,0,0,0,1.4-8.07A11.12,11.12,0,0,0,68,41.09,62.72,62.72,0,0,0,60.94,34c.19.18-1.76,2.69-1.45,3,2.67,2.86,7.44,7.12,5.86,11.46-.72,2-1.06,3.77-2.54,5.46a7.49,7.49,0,0,1-3.92,2.44,19,19,0,0,1,2.9,1.83C61.9,58.25,64.43,60.07,64.75,59.91Z"/>
        <path class="cls-3" d="M63.26,56.12a8.42,8.42,0,0,0,4.26-4.22,15.6,15.6,0,0,0,1.33-7.84,10.5,10.5,0,0,0-2.26-5.92,56.76,56.76,0,0,0-6.83-6.41S58.37,35,58.39,35a22.21,22.21,0,0,0-1.26,3.29c2.39,1.74,5.31,3.79,5.21,7.06a9.44,9.44,0,0,1-1.43,4.84,6.13,6.13,0,0,1-3.44,2.51,19.93,19.93,0,0,1,2.86,1.77C60.45,54.51,62.94,56.28,63.26,56.12Z"/>
        <path class="cls-3" d="M67.4,56.63a8.7,8.7,0,0,0,4.35-4.47,16.18,16.18,0,0,0,1.33-8.26,11.71,11.71,0,0,0-2.46-6.37,59.92,59.92,0,0,0-7.13-6.75s-.93,2.36-.92,2.32a9.77,9.77,0,0,0-.82,2.37c2.53,2.69,5.69,5.82,5.26,9.78a12.82,12.82,0,0,1-1.59,5.38A6.18,6.18,0,0,1,62,53.47a22,22,0,0,1,2.66,1.63C64.8,55.17,67.11,56.79,67.4,56.63Z"/>
        <path class="cls-3" d="M63.07,56.8a9.11,9.11,0,0,0,4.23-4.59,16.93,16.93,0,0,0,1.4-8.42,11.32,11.32,0,0,0-2.43-6.4,51.33,51.33,0,0,0-7.41-6.71c.26.22-1.71,3.49-1.29,3.79,3.52,2.49,7.64,5.16,7.88,9.89a13.4,13.4,0,0,1-1.51,7A9.2,9.2,0,0,1,60.12,55s1.46.94,1.45.93S62.89,56.91,63.07,56.8Z"/>
        <path class="cls-3" d="M66.4,59.45A8.18,8.18,0,0,0,70.69,55a15.83,15.83,0,0,0,1.24-8.12,11.64,11.64,0,0,0-2.49-6.22,68.45,68.45,0,0,0-7-7c.27.26-2,3.18-1.66,3.62,1.62,1.95,3.76,4.19,4.63,6.62.52,1.46,1,2.79.23,4.21A4.35,4.35,0,0,0,65,49.79,6.41,6.41,0,0,1,63.32,53a6.62,6.62,0,0,1-3.73,2.32,4.43,4.43,0,0,0,.69.47c.89.55,1.79,1.09,2.69,1.63C63.09,57.53,66.05,59.63,66.4,59.45Z"/>
        <path class="cls-3" d="M65.37,56.59a8.41,8.41,0,0,0,4.35-4.3A15,15,0,0,0,71,44.35a10.6,10.6,0,0,0-2.43-6,63.1,63.1,0,0,0-6.8-6.17s-1.53,3.43-1.51,3.38S58.67,38.84,58.84,39c2.08,1.76,4.34,3.76,4,6.71A8.92,8.92,0,0,1,61.36,50,5.45,5.45,0,0,1,58,52.23a4.58,4.58,0,0,0,.74.5l2.9,1.73C61.81,54.55,65,56.78,65.37,56.59Z"/>
        <path class="cls-3" d="M63.08,59.5a8.68,8.68,0,0,0,4.36-4.43,17.41,17.41,0,0,0,1.62-8.66,11,11,0,0,0-2.48-6.68A52.44,52.44,0,0,0,59,32.9S57.56,35,57.76,35.17c2.18,1.71,5,3.61,6.59,6l1.38,2.47a9,9,0,0,1,.19,3.06,14.6,14.6,0,0,1-2.36,7.41,9.22,9.22,0,0,1-4.2,3.15,19.15,19.15,0,0,1,1.83,1.19C61.28,58.47,62.86,59.62,63.08,59.5Z"/>
        <path class="cls-3" d="M66.55,56.08a8.64,8.64,0,0,0,4.3-4.41,16.08,16.08,0,0,0,1.36-8.17,11.5,11.5,0,0,0-2.4-6.29,59.65,59.65,0,0,0-7.08-6.68s-1.08,2.74-1.07,2.7-1.14,2.57-1,2.74c2.48,2.41,5.48,5.19,5.25,8.92a11.7,11.7,0,0,1-1.46,5.24,5.94,5.94,0,0,1-3.31,2.79,20.63,20.63,0,0,1,2.65,1.63C63.94,54.61,66.26,56.23,66.55,56.08Z"/>
        <path class="cls-3" d="M67.27,59.14a8.34,8.34,0,0,0,4.34-4.51,16,16,0,0,0,1.25-8.23,11.79,11.79,0,0,0-2.54-6.34,69,69,0,0,0-7.09-7c.23.22-1.94,3-1.6,3.35,1.68,2,3.88,4.32,4.81,6.83.56,1.51,1.06,2.89.35,4.4a5.85,5.85,0,0,0-.6,1.78,6.71,6.71,0,0,1-1.67,3.38,6.57,6.57,0,0,1-3.7,2.48,4.18,4.18,0,0,0,.65.45L64,57.26C64.14,57.33,66.93,59.31,67.27,59.14Z"/>
        <path class="cls-3" d="M64.38,55.5a8.55,8.55,0,0,0,4.19-4.33,16.09,16.09,0,0,0,1.39-8A11,11,0,0,0,67.69,37a55.18,55.18,0,0,0-7.07-6.77s-1.14,2.94-1.13,2.91a15.45,15.45,0,0,0-1,2.94c2.64,2.14,6,4.64,6,8.35a11,11,0,0,1-1.35,5.47,6.29,6.29,0,0,1-3.36,2.89,19.4,19.4,0,0,1,2.25,1.4C62.16,54.26,64.12,55.64,64.38,55.5Z"/>
        <path class="cls-3" d="M67.46,58.25a8.42,8.42,0,0,0,4.36-4.48,16.09,16.09,0,0,0,1.25-8.24,11.83,11.83,0,0,0-2.54-6.32,68.75,68.75,0,0,0-7.08-6.89s-1,2-1,2-1,1.84-.87,2c1.61,1.9,3.73,4.1,4.6,6.5l.73,2.63a2.43,2.43,0,0,1-.35,1.45,14.25,14.25,0,0,1-2,5A6.25,6.25,0,0,1,61,54.42a4.12,4.12,0,0,0,.65.44l2.54,1.52C64.34,56.46,67.12,58.42,67.46,58.25Z"/>
      </g>
    </g>
  </g>
</svg>
