<svg xmlns="http://www.w3.org/2000/svg" xmlns:xlink="http://www.w3.org/1999/xlink" viewBox="0 0 82 82">
  <defs>
    <style>
      .cls-1 {
        fill: url(#Sfumatura_senza_nome_13);
      }

      .cls-2 {
        fill: #fff;
      }
    </style>
    <linearGradient id="Sfumatura_senza_nome_13" data-name="Sfumatura senza nome 13" y1="41" x2="82" y2="41" gradientTransform="translate(82) rotate(90)" gradientUnits="userSpaceOnUse">
      <stop offset="0" stop-color="#272858"/>
      <stop offset="0.05" stop-color="#3b2b59"/>
      <stop offset="0.23" stop-color="#8a395e"/>
      <stop offset="0.32" stop-color="#a93e60"/>
      <stop offset="0.68" stop-color="#f8bb93"/>
      <stop offset="0.78" stop-color="#f8bd96"/>
      <stop offset="0.85" stop-color="#f9c39f"/>
      <stop offset="0.9" stop-color="#fbceae"/>
      <stop offset="0.96" stop-color="#fddec4"/>
      <stop offset="1" stop-color="#fff0dd"/>
    </linearGradient>
  </defs>
  <g id="Livello_2" data-name="Livello 2">
    <g id="Livello_1-2" data-name="Livello 1">
      <path class="cls-1" d="M41,82a41.35,41.35,0,0,1-9.37-1.08,40.73,40.73,0,0,1-12.07-5c-.56-.34-1.1-.7-1.64-1.06h0A41,41,0,0,1,37,.2C38.33.07,39.65,0,41,0a41,41,0,0,1,0,82Z"/>
      <g>
        <path class="cls-2" d="M13.27,25a62.83,62.83,0,0,1,32.65,9Q57.36,41.21,57.37,49.5q0,8.13-8.8,11.78a32.37,32.37,0,0,1-11.22,1.88,41.17,41.17,0,0,1-8.44-1.11c-.24,2.74-.83,4.12-1.77,4.12H26.7c-.56,0-1-.75-1.34-2.24-.13-1.13-.28-2.16-.43-3.09q-11.35-4.22-11.35-9.9,0-3.37,5.12-5.77a34.14,34.14,0,0,1,6.9-1.57q.76-7.76,1.77-7.76h.1q1,0,1.68,7.66h1.21q9.87,0,13.45,3.45a1,1,0,0,1,.21.67C44,49,43,50,40.93,50.73a2.55,2.55,0,0,1-1.21.16c-.5-.11-.76-.33-.8-.67s.35-.74,1.11-1.12,1-.62.77-.71a46.12,46.12,0,0,0-10-.77H29.25q-.11,7.17-.1,11.55a39.32,39.32,0,0,0,7.53.9q11.79-.47,15-7a8.33,8.33,0,0,0,.8-3.71q0-7.5-12.68-15.1a61,61,0,0,0-29.43-7.12c-1.41,0-2.11.15-2.11.46,0,.14.29.32.87.55s.89.49.9.76-.14.58-.44.57c-2.29-.38-3.44-1.19-3.44-2.45S8.52,25.14,13.27,25Zm2.32,26.19q0,3.4,9.44,6.82,0-4.38.23-10.24Q15.58,48.44,15.59,51.14Z"/>
        <path class="cls-2" d="M68.46,45q3.62-.08,4.86,1.29a1.53,1.53,0,0,1,0,1.51c-.6.45-2,.67-4.11.67H65.52q-.64,1-1.44,5.25h.11q4.14-.33,4.47-.33c1.2.05,1.8.45,1.8,1.21a3.61,3.61,0,0,1-3.21,1.92c-1.31.13-2.55.2-3.73.24l-.11,2.47C63.52,60.43,64,61,65,61q5.76-.29,7-.54c.38,0,.57.1.57.34,0,1.35-2.28,2.58-6.85,3.67a8.74,8.74,0,0,1-2,.24q-3.81,0-3.81-3.81a27.61,27.61,0,0,1,.57-4.58c-1.2-.34-1.8-.78-1.8-1.31s.74-.69,2.23-.93a46.18,46.18,0,0,1,1.47-5.71h-.13c-1.71-.15-2.57-.57-2.57-1.23Q59.86,45.53,68.46,45Z"/>
      </g>
    </g>
  </g>
</svg>
