<svg xmlns="http://www.w3.org/2000/svg" viewBox="0 0 82.51 82.51">
  <defs>
    <style>
      .cls-1 {
        fill: #fff;
      }

      .cls-2 {
        fill: none;
        stroke: #eb593d;
        stroke-miterlimit: 10;
        stroke-width: 0.51px;
      }
    </style>
  </defs>
  <g id="Livello_2" data-name="Livello 2">
    <g id="Livello_1-2" data-name="Livello 1">
      <path class="cls-1" d="M82.25,41.25a41.35,41.35,0,0,1-1.07,9.37,40.73,40.73,0,0,1-5,12.07c-.34.56-.7,1.1-1.07,1.64h0a41.17,41.17,0,0,1-7.57,8.35c0-.18.06-.36.09-.54,4.06-22-9.27-25.72-14.43-23.14-4.11,2.05-4.27,7.68-7,11-2.35,2.79-6.24,3-8.52.1-1.84-2.34-2.52-5.39-3.9-8-1.85-3.49-5-7-9.14-6.19-2.8.55-5.23,2.75-6.82,5.14a14.92,14.92,0,0,0-2.32,7.2c-.34,4.86-2.34,8.17-5.11,10a40.82,40.82,0,0,1-9.93-23c-.13-1.31-.2-2.63-.2-4a41,41,0,0,1,82,0Z"/>
      <path class="cls-2" d="M82.25,41.25a41.35,41.35,0,0,1-1.07,9.37,40.73,40.73,0,0,1-5,12.07c-.34.56-.7,1.1-1.07,1.64h0A41,41,0,0,1,.45,45.23c-.13-1.31-.2-2.63-.2-4a41,41,0,0,1,82,0Z"/>
    </g>
  </g>
</svg>
