<svg xmlns="http://www.w3.org/2000/svg" viewBox="0 0 82.51 82.51">
  <defs>
    <style>
      .cls-1, .cls-2 {
        stroke: #fff;
        stroke-width: 0.08px;
      }

      .cls-1, .cls-2, .cls-3 {
        stroke-miterlimit: 10;
      }

      .cls-2, .cls-3 {
        fill: none;
      }

      .cls-3 {
        stroke: #eb593d;
        stroke-width: 0.51px;
      }
    </style>
  </defs>
  <g id="Livello_2" data-name="Livello 2">
    <g id="Livello_1-2" data-name="Livello 1">
      <path class="cls-1" d="M81.18,50.63l-.05,0,0,0-.44.21-.14.07-.17.08-.13.06s0,0-.08,0l0,0-.15.06a2.85,2.85,0,0,1-.35.17l-.08,0-.17.08-.16.08-.27.13-.06,0h0l-.13.07-.33.15c-.28.14-.56.28-.83.4l-.22.11-.19.1a1,1,0,0,0-.18.08l-.44.22-.17.09h0a2.79,2.79,0,0,0-.34.18l0,0-.06,0,0,0,0,0,0,0,0,0,0,0h-.07l-.1,0h-.13c-1.4-.2-2.72-.49-4.08-.68h-.22a16,16,0,0,0-2.22-.16h-.32l-.37,0h-.26c-.31,0-.63.08-.94.13l-.12,0-.16,0-.7.11c-.57.08-1.13.14-1.69.17H62.18l-1,0h-.56a4.19,4.19,0,0,0-.5,0l-.26,0H57.17l-.27,0-.2,0-.15,0-.55.06-.17,0h0a3.92,3.92,0,0,0-.4.06l-.33.06-.09,0a5.38,5.38,0,0,0-3.27.44,1.45,1.45,0,0,1-2-.42,0,0,0,0,0,0,0,1.64,1.64,0,0,1-.17-.26h0l-.08-.13-.06-.13a1,1,0,0,0-.07-.15c0-.11-.09-.21-.13-.31v0s0,0,0,0a.08.08,0,0,1,0-.05,0,0,0,0,0,0,0s0,0,0,0,0,0,0-.07h0v0l0-.09a1,1,0,0,0,0-.12.14.14,0,0,0,0-.06.24.24,0,0,0,0-.09c0-.13-.06-.2-.07-.28a.18.18,0,0,1,0-.1v0a.62.62,0,0,1,0-.13,6.53,6.53,0,0,1,.52-2.49h0V48.4a.45.45,0,0,0,0-.11.17.17,0,0,1,0-.07v-.15a2.13,2.13,0,0,1,0-.27h0v0a.87.87,0,0,0,0-.1.22.22,0,0,1,0-.08h0a.08.08,0,0,1,0,0,1.71,1.71,0,0,0-.13-.38s0,0,0,0a1.65,1.65,0,0,0-.35-.4h0l0,0a.39.39,0,0,0-.11-.06.69.69,0,0,0-.51,0l-.05,0h0l-.05,0v0l0,0h0l0,0,0,0,0,0-.16.18s0,0,0,0l0,0a.13.13,0,0,0-.05.07l0,0,0,.07a4.51,4.51,0,0,0-.22.44l0,0a1,1,0,0,0-.07.15l0,.05a2.68,2.68,0,0,1-.12.3c0,.08,0,.16-.07.22l0,.13a1.62,1.62,0,0,1-.06.17.34.34,0,0,1,0,.08c-.1.29-.21.58-.33.86h0c0,.08-.14.29-.18.39l0,0a1.58,1.58,0,0,0-.11.23l-.09.16c-.11.2-.24.4-.35.59h0l0,.06h0l-.26.46,0,0a.07.07,0,0,0,0,.06,2.44,2.44,0,0,0,0,.27,3.18,3.18,0,0,0,.17.58,1.88,1.88,0,0,0,0,.2,1.45,1.45,0,0,1,.06.19l0,.12h0c.25.79.48,1.61.81,2.38-.35-.44-.7-.87-1.08-1.3,0,0,0,0,0,0l-.06-.07h0L45.39,54l-.15-.18v0l-.29-.34a.17.17,0,0,0-.06-.08h0l-.06-.08-.12-.15,0-.07L44.59,53l-.11-.18a.17.17,0,0,0,0-.05l-.06-.13c-.22-.57-.59-1.87-.75-2.45v0c0-.07,0-.12,0-.17a.31.31,0,0,1,0-.08h0v0c0-.06,0,0,0-.05l0,0a1.19,1.19,0,0,0-.08-.16l0,0,0,0h0l0-.06h0l-.17-.24-.35-.36-.18-.16a.86.86,0,0,0-.17-.13l0,0-.07,0a1.05,1.05,0,0,0-.11-.07h0s-.06,0-.07,0h0l-.1,0-.11,0a.34.34,0,0,0-.22,0,.12.12,0,0,0-.08,0l-.08,0h0l-.08,0h0l0,0,0,0-.07.07a.13.13,0,0,0-.05.07.74.74,0,0,0-.08.13.33.33,0,0,0-.05.16.8.8,0,0,0,0,.15h0a2.91,2.91,0,0,0,0,.3v0c0,.09,0,.19,0,.29,0,.71,0,1.48,0,2.17,0,.08,0,.17,0,.26v.15s0,.07,0,.09h0a11.5,11.5,0,0,0,0,1.44v0a3.92,3.92,0,0,0,.56,2c0,.08,0,0,.09.09l.18.19a0,0,0,0,1,0,0l.2.19c.06.07.14.13.21.21l.21.23.21.22,1.05,1.07.1.09,0,0,.15.14.08.07.09.07.11.08a.34.34,0,0,0,.12.06l.13.05h1.12c1.27.07,2.55.16,3.8.31-1.16.05-2.49.21-3.6.35a1.89,1.89,0,0,1-1.45-.39h0s0,0,0,0c-.63-.54-1.28-1.1-1.94-1.62l-.26-.21a.79.79,0,0,0-.15-.12l0,0-.13-.1c-.13-.11-.27-.22-.35-.3l-.27-.26s0,0,0,0h0a.15.15,0,0,1,0-.08s0,0,0,0l0,0s0,0,0,0,0,0,0,0a2.16,2.16,0,0,0-.69-1.11.76.76,0,0,1-.09-.09,9.07,9.07,0,0,0-1.64-1.08.46.46,0,0,0-.1-.05l-.09-.06-.18-.1a.64.64,0,0,1-.18-.1L38,53.3a.24.24,0,0,0-.1,0s0,0,0,0h0a2.83,2.83,0,0,0-.93-.27l-.21,0-.11,0,0,0h0a.47.47,0,0,0-.22.27s0,0,0,0v0a.35.35,0,0,0,0,.22.78.78,0,0,0,0,.14l.12.18.1.15c.05.1.11.2.17.3.35.55.75,1.19,1,1.74l.15.28a.3.3,0,0,1,0,.1l.07.17a1.76,1.76,0,0,1,.09.2.92.92,0,0,1,0,.09s0,.05,0,.07l0,0a.51.51,0,0,1,0,.14c0,.05,0,.1,0,.14.07.23.16.44.25.66,0,0,0,.08,0,.12a.6.6,0,0,1,.06.11,2.2,2.2,0,0,0,.19.3l.06.08,0,0,0,.07.08.09,0,.06.07.09.14.13h0l.2.21h0l.09.09a1,1,0,0,1,.19.15.13.13,0,0,1,.05.06h0a1.64,1.64,0,0,0,.5.48l0,0,.23.19c.09.07.16.2.28.25l.39.38.22.21.37.41.09.09,0,0,0,.06.1.08a4.5,4.5,0,0,0,.51.37l.07.05.07,0a.59.59,0,0,0,.14.06l.07,0,.05,0h0l.53.19c.58.18,1.18.33,1.76.48h0l.48.13c.36.08.71.13,1.07.19H47c.12,0,.26,0,.38,0h.07c.37,0,.83.07,1.17.08h0c.81,0,1.49,0,2.27.06l-.33.06-.14,0a29,29,0,0,0-2.82.7,7.1,7.1,0,0,0-2.17.83l0,0s0,0,0,0l0,0-.06.07h0l-.84-.38-.3-.11-.07,0c-.26-.1-.53-.19-.84-.29a.3.3,0,0,0-.11,0h0l-.2-.07-.15,0h0l-.43-.12h0l-.3-.09c-.44-.12-1-.26-1.35-.35l-.15,0h0L40,63.53a2.7,2.7,0,0,0-.33-.13l0,0c-.39-.14-.83-.26-1.27-.37l-.5-.09-.13,0-.13,0a7.53,7.53,0,0,0-.8-.09l-.29,0h-.33l-.45,0-.1,0h0a.35.35,0,0,0-.13,0c-.06,0-.1,0-.12,0a2.1,2.1,0,0,0-.53.29h0a1,1,0,0,0-.22.26h0a.43.43,0,0,1,0,0s0,0,0,0,0,0,0,.08-.07,0,0,0,.17.15.13.15-.54-.19.29.29c.21.13.52.3.9.5l0,0c.79.45,1.84,1,2.88,1.6s2.06,1.08,2.77,1.4a.88.88,0,0,1,.12.07h.06l.13,0,.1,0,0,0,.33.13h0l.06,0h0l0,0,.15.06h0a0,0,0,0,0,0,0l0,0,.12,0h0l.16,0h0s0,0,0,0l.12,0a.13.13,0,0,0,.08,0l.16,0h0l.18,0h0l.18,0h.11l.07,0h.17l.06,0h0l.12,0h.42s0,0,0,0h.79a0,0,0,0,0,0,0h1.53a0,0,0,0,1,0,0h5.41c1.65,0,3.33,0,5,0h0l.36,0c.23,0,.47,0,.71,0h.15l.61,0,.65,0h.06l.69-.07.19,0h0a6.61,6.61,0,0,0,1-.2c3.08-.84,6.29-1.71,9.38-2.66L72,65.4,73.2,65l.47-.15.23-.08.65-.21.19-.06.12,0,.08,0,.2-.06.18,0-.18,0c.37-.54.72-1.09,1.07-1.64A41.11,41.11,0,0,0,81.18,50.63Z"/>
      <path class="cls-1" d="M44.58,68.61c1.92.12,4.42.09,6.47.1a20.12,20.12,0,0,0-9.42-1A8.93,8.93,0,0,0,44.58,68.61Z"/>
      <path class="cls-1" d="M41.1,56c-.51-1.53-2.94-3-4.52-2.95-.31,0-.4.4-.24.67a24.71,24.71,0,0,1,1.73,3.08c.82,2.35,2.25,3.14,3.9,4.85a3.67,3.67,0,0,0,1,.69A13.24,13.24,0,0,0,45,63l.38.09c-.21-2.2-1.55-4.09-2.92-5.77L42,56.89C41.65,56.61,41.26,56.42,41.1,56Z"/>
      <path class="cls-1" d="M45.56,54.17c-.1-.14-.25-.27-.33-.4-.31-.47-.63-.6-.82-1.2-.49-1.6-.61-3.08-2.18-4.17-.42-.29-1.06.15-1.1.67-.15,1.75-.4,5.44.43,6.6a8.75,8.75,0,0,0,3,2.94c.31.19.63-.08,1,.06,0,0,.1,0,.14,0A7.37,7.37,0,0,0,45.56,54.17Z"/>
      <path class="cls-1" d="M48.91,51.08c.37-1.1,1.14-3.8-.22-4.31s-2.41,3.87-3.17,4.89a.07.07,0,0,0,0,.06,4.79,4.79,0,0,0,.32,1.37,3.66,3.66,0,0,0,3.7-.09,6.19,6.19,0,0,1-.44-1C49,51.65,48.82,51.36,48.91,51.08Z"/>
      <path class="cls-1" d="M45.5,65.17a.7.7,0,0,0-.14.16,14.26,14.26,0,0,0-2.59-1c-.38-.12-1.42-.4-2.08-.56a4,4,0,0,1-1.11-.43c-.5-.27-3.75-.87-4-.47s-2.24.1-.5,1.24,6.37,4.1,9.58,4.48c1.31.16,4.45.1,6.15.12H52.6"/>
      <path class="cls-1" d="M43.58,49.83a3.27,3.27,0,0,0-.4-.64,3,3,0,0,0-.92-.78.75.75,0,0,0-1.12.68c0,.86,0,1.89,0,2.79,0,.15,0,.36,0,.51A13.18,13.18,0,0,0,43.58,49.83Z"/>
      <path class="cls-1" d="M49.39,47.76c-.16-.46-.09-1-.72-1.11-1.23-.27-1.76,2.11-2.08,3,0,.08-.14.3-.18.39a6.5,6.5,0,0,0,3-1.5A4.4,4.4,0,0,0,49.39,47.76Z"/>
      <path class="cls-1" d="M51,68.7a25.13,25.13,0,0,0-5.66-1.2,14.77,14.77,0,0,0-3.75.2,10.4,10.4,0,0,0,2.88.92H45l.68,0H51Z"/>
      <path class="cls-1" d="M47.31,68.7h0a22.94,22.94,0,0,0-2-1.21,15.3,15.3,0,0,0-3.64.21,10,10,0,0,0,2.86.92H45l.68,0H46.7C46.87,68.71,47.23,68.9,47.31,68.7Z"/>
      <path class="cls-1" d="M76.21,62.7c-.35.55-.7,1.1-1.07,1.64h0l-.2.06c-4,1.15-8.75,2.72-12.91,3.82a9.3,9.3,0,0,1-1,.2h0l-.19,0-.69.07h-.06l-.65,0-.61,0h-.15c-.24,0-.48,0-.71,0l-.36,0c1-.6,2-1.16,3.08-1.67,0,0,0,0,0,0A41.48,41.48,0,0,1,76.21,62.7Z"/>
      <path class="cls-1" d="M60.81,67a7.19,7.19,0,0,1-3.38-2"/>
      <path class="cls-1" d="M58.91,59c1.78-2.13,4.69-3,7.32-3.13"/>
      <path class="cls-1" d="M68.3,55.57a14.47,14.47,0,0,1,5.52,2.08"/>
      <path class="cls-1" d="M69.23,56.38a15.34,15.34,0,0,1,3.43,1.79"/>
      <path class="cls-1" d="M45.38,67.5c.19-.67.53-1.57,0-2.18"/>
      <path class="cls-1" d="M51.23,66.31c-.15-.48-.09-2.46-.66-2.57s-.57,2.51-.63,2.89"/>
      <path class="cls-1" d="M44.87,60.57a3.26,3.26,0,0,0-.44-1.65"/>
      <path class="cls-1" d="M40.72,57.58c.55-1,.55-1.07.49-1.39"/>
      <path class="cls-1" d="M50.55,59.53A7.34,7.34,0,0,1,52.88,56"/>
      <path class="cls-1" d="M48.22,54.41a2.14,2.14,0,0,1,1.52-1.16"/>
      <path class="cls-1" d="M47.5,51.94c.52-.2,1.29-.36,1.63.18"/>
      <path class="cls-1" d="M57.56,57c.71-.6,1.43-1.19,2.13-1.81"/>
      <path class="cls-1" d="M61.54,62.85a3,3,0,0,1,1.33-.47"/>
      <path class="cls-1" d="M61.91,60a18.65,18.65,0,0,1-6.69-.35,14.36,14.36,0,0,0-7.12.47A2.2,2.2,0,0,0,46.56,62,2.66,2.66,0,0,0,47,63.45l.06.06a.15.15,0,0,0,.09,0c1,0,2,0,3,0,.05-.67.06-1.34.16-2-.65,0-1.06-.11-1.77,0A1.6,1.6,0,0,0,47,63.52"/>
      <path class="cls-1" d="M70.93,52.59a15.66,15.66,0,0,1,5.95,2.64"/>
      <path class="cls-1" d="M47.58,28.78l0,0,0,.06a2,2,0,0,1-.39.36l-.19.13-.3.13-.06,0h-.07l-.08,0-.07,0-.22.05a6.49,6.49,0,0,1-1.13.13l-.18,0h-.59c-.27,0-.55,0-.8,0l-.48,0-.31,0-.15,0-.14,0a1.47,1.47,0,0,0-.27,0l-.82-.13h-.12c-.68,0-1.29-.08-1.82-.12h0l-.26,0-.22,0h0l-.35-.05-.17,0a2.79,2.79,0,0,1-.33-.06l-.28-.05c-.34-.06-.63-.13-.87-.19l-.17-.05-.1,0h0l-.15,0-.22-.08-.13,0h0a.34.34,0,0,1-.06.06h0a0,0,0,0,0,0,0,0,0,0,0,0,0,0h0l-.05,0a6.61,6.61,0,0,1-2.32,1c-.94.33-1.89.64-2.86.92h0l-.13,0-.32.09c.37,0,1.24-.08,2.28-.11h.06c.42,0,.88,0,1.34,0l.44,0h.1a9.6,9.6,0,0,1,1.23.16l.58.12a16.53,16.53,0,0,1,2.22.61l.21.08.18.08.05,0L39,32l.31.17a3.09,3.09,0,0,1,.67.52l.12.13.49.56c.07.09.16.17.23.25l.42.47.3.32.79.88c.09.09.16.19.24.28l.1.12h0l.19.26a0,0,0,0,1,0,0c0,.06.09.12.13.19a.35.35,0,0,1,.06.09l.05.08.07.12,0,.08,0,.07a.36.36,0,0,1,0,.09c.06.13.11.25.16.38s0,.09,0,.14a.74.74,0,0,1,0,.14,4.46,4.46,0,0,1,.14.79,1.1,1.1,0,0,1,0,.18c0,.05,0,.11,0,.16s0,.16,0,.24a19.24,19.24,0,0,0,1.19,3.71.51.51,0,0,1-.39.68h-.09a.89.89,0,0,1-.23,0,2.51,2.51,0,0,1-1.05-.52L43,42.43a1.07,1.07,0,0,1-.16-.14l-.16-.15-.07-.07a.6.6,0,0,1-.08-.08,7,7,0,0,1-1.85-3v-.07s0,0,0,0a.61.61,0,0,0-.07-.14,2.24,2.24,0,0,0-.23-.33c-.12-.15-.27-.33-.44-.51s-.3-.32-.46-.48c-.66-.68-1.45-1.41-2-1.92l0,0h0A2,2,0,0,0,35.87,35l-3.77.47s2.45.13,4,.23h.32l.18,0h.07l.46,0h.15a.42.42,0,0,1,.15.06.28.28,0,0,1,.12.08l.12.09a.71.71,0,0,1,.09.07l.09.08.18.19.1.1c.33.35.7.8,1,1.25l.2.27.2.27.2.25.18.25.16.22a1,1,0,0,0,.08.11,8.52,8.52,0,0,1,.43,3.56v.49c0,.13,0,.26,0,.4s0,.5,0,.75,0,.57,0,.84v.09c0,.14,0,.27,0,.39s0,.23,0,.34a.66.66,0,0,1-.08.29s-.05.09-.07.13l-.1.11a.54.54,0,0,1-.12.09l-.06,0a.15.15,0,0,1-.07,0l-.12,0h-.14a.84.84,0,0,1-.45-.13,2.6,2.6,0,0,1-.31-.25l-.14-.13L38.7,46a.2.2,0,0,1-.06-.07,3,3,0,0,1-.22-.28,3.48,3.48,0,0,1-.37-.68,6,6,0,0,1-.44-1.72,11.48,11.48,0,0,0-.18-1.2,1.37,1.37,0,0,0-.16-.37.6.6,0,0,0-.06-.11l0-.06s-.07-.11-.11-.17L37,41.16l-.27-.37c-.09-.14-.2-.29-.31-.43-.41-.54-.83-1.07-1.07-1.38a17.51,17.51,0,0,1,.81,2.45,2.58,2.58,0,0,1,.09.35,1.46,1.46,0,0,1,0,.2,3.78,3.78,0,0,1,.15.86.08.08,0,0,1,0,0A7.94,7.94,0,0,1,35.74,44a1.13,1.13,0,0,0-.1.13l-.15.21,0,0c-.08.12-.17.23-.26.34s-.09.12-.14.17a.05.05,0,0,1,0,0,8.07,8.07,0,0,1-1.75,1.72l-.07,0a.05.05,0,0,1,0,0,1.16,1.16,0,0,1-.27.14h0l0,0h0a1.47,1.47,0,0,1-.27,0l-.1,0h-.06a.55.55,0,0,1-.26-.14.75.75,0,0,1-.14-.17s0,0,0-.05a.46.46,0,0,1-.07-.14.31.31,0,0,1-.05-.12,1.49,1.49,0,0,1-.06-.56s0-.09,0-.13a.31.31,0,0,0,0-.1s0,0,0,0a1.55,1.55,0,0,1,.06-.23.45.45,0,0,0,0-.08.32.32,0,0,1,0-.09v0l0-.09a.42.42,0,0,1,0-.1l0,0A16.09,16.09,0,0,1,33,43a.73.73,0,0,0,0-.4c0-.08,0-.16,0-.24l0-.09a.38.38,0,0,0,0-.1l0-.09c0-.08-.06-.15-.1-.23a1.86,1.86,0,0,0-.1-.2l-.13-.25-.17-.23,0,0A1.21,1.21,0,0,0,30.43,41a4.82,4.82,0,0,1-3,.85l-.09,0-.29.11-.38.13-.17,0-.5.16-.13,0-.19,0-.25.07-.19,0-.07,0-.11,0-.18,0-.13,0H24.7l-.12,0-.11,0-.26,0h-.05l-.15,0-.14,0-.22,0-.09,0h0l-.16,0h-.07l-.27,0-.27,0-.28,0-.52,0h-.26l-.34,0c-.35,0-.71,0-1.08.05h-.38l-.38,0c-.2,0-.39,0-.6,0l-.36,0-.48,0-.22,0c-.59.06-1.23.14-1.91.25l-.8.14-.18,0-.13,0-1,.14-.28,0h0l-.43,0H13c-3.87.2-6.43-1-7.44-1.15H5.35l-.06,0h0l0,0h0s0,0,0,0,0,0,0,0l-.07,0,0,0a3.08,3.08,0,0,1-.36.17h0a1.59,1.59,0,0,1-.18.08l-.3.13-.17.08a1,1,0,0,0-.19.08l-.19.08-.25.1-.88.35-.34.14-.16.05h0l-.06,0s-.64.47-1.41,1.06c-.13-1.31-.2-2.63-.2-4a41.39,41.39,0,0,1,1.11-9.51A4.48,4.48,0,0,0,2,32l.18,0h.09l.12,0,.23,0H3.8l.26,0h.05s0,0,0,0h.26l.1,0h.1l.06,0,.11,0L5,31.65H5l.37-.1.4-.11.1,0,.36-.11.09,0,.11,0,.19-.05.65-.2.23-.07L8,30.76l1.23-.39.52-.16,2.61-.87c1-.33,2-.67,2.88-1,1.51-.52,2.82-1,3.64-1.3a11.09,11.09,0,0,1,1.8-.45l.25-.05,1-.16.57-.08.71-.09c1.52-.2,3.23-.36,4.92-.51l1.56-.12h.06l.22,0h0l.27,0h0l.2,0h.61l.19,0h.84l.33,0,.32,0H33l.15,0h0a0,0,0,0,0,0,0h.46l.22,0h1.74a0,0,0,0,0,0,0h.53l.35,0H37c.1,0,.19,0,.3,0l.1,0,.14,0h.19l.35.07.1,0,.08,0h0l.14,0h0l.19.05h0l.44.1a3.31,3.31,0,0,0,.45.12h0l.08,0c.6.16,1.22.34,1.85.53a2.1,2.1,0,0,1,.24.06l.21.07,2.36.74.31.1.48.16.14,0,.13.05,2,.7h0l.08.06,0,.05v0l0,0h0l0,.05A.45.45,0,0,1,47.58,28.78Z"/>
      <path class="cls-1" d="M35.12,38.7c-.09-.08,0,0,.18.28A1,1,0,0,0,35.12,38.7Z"/>
      <path class="cls-1" d="M36.45,25.13c-.87.06-3.63.21-6.74.45,4.79,1.29,7.93.82,9.84.09A12.56,12.56,0,0,0,36.45,25.13Z"/>
      <path class="cls-1" d="M35.12,38.7c-.09-.08,0,0,.18.28A1,1,0,0,0,35.12,38.7Z"/>
      <path class="cls-1" d="M30,25.56l-1.86.15c1.66,1.25,4.91,2.34,7.61,3.1a2.09,2.09,0,0,0,.14-.17,11.68,11.68,0,0,0,2.86.66,23.94,23.94,0,0,0,2.39.19s.12,0,1.22.18,3.65.24,4.57-.3c1.21-.73.47-1.22.47-1.22s-8.92-3.16-11-3C35.61,25.19,33,25.33,30,25.56Z"/>
      <path class="cls-1" d="M38.05,45a4.11,4.11,0,0,0,.37.68,3.47,3.47,0,0,0,.88.87.77.77,0,0,0,1.2-.6c0-.74.09-1.77.11-2.81v-.5A11.09,11.09,0,0,0,38.05,45Z"/>
      <path class="cls-1" d="M35.3,39a1,1,0,0,0-.18-.28C35,38.62,35.11,38.74,35.3,39Z"/>
      <path class="cls-1" d="M31.81,45.43a1.27,1.27,0,0,0,.32,1.26c.7.66,2.08-.73,3.08-2l.26-.34a13.74,13.74,0,0,0-3.46.44A3.41,3.41,0,0,0,31.81,45.43Z"/>
      <path class="cls-1" d="M35.12,38.7c-.09-.08,0,0,.18.28A1,1,0,0,0,35.12,38.7Z"/>
      <path class="cls-1" d="M35.3,39a1,1,0,0,0-.18-.28C35,38.62,35.11,38.74,35.3,39Z"/>
      <path class="cls-1" d="M20.18,28.21s2.56.55,3.47,1.77"/>
      <path class="cls-1" d="M19.51,29.67c.24,0,3.72.12,4.27,1.1s3.23-.25,3.9-.25a9.51,9.51,0,0,1,2.11.51"/>
      <path class="cls-1" d="M22.92,36.44a8.93,8.93,0,0,1-7.38,3.84"/>
      <path class="cls-1" d="M13.29,40.65a18.77,18.77,0,0,1-5.92-2.32"/>
      <path class="cls-1" d="M12.25,39.79a22,22,0,0,1-3.66-1.95"/>
      <path class="cls-1" d="M35.85,26.56c0,.31-.73,1.89,0,2.2"/>
      <path class="cls-1" d="M29.69,28s.42,2.62.79,2.8S31,27.6,31,27.6"/>
      <path class="cls-1" d="M36.86,33.7s.18,1.46.55,1.76"/>
      <path class="cls-2" d="M40.67,36.87V38.7"/>
      <path class="cls-1" d="M29.81,35s.13,4.75-3.47,7.19"/>
      <path class="cls-1" d="M31,35s-.79,3.29-1.83,3.78"/>
      <path class="cls-1" d="M33.78,40a2,2,0,0,1-1.47,1.16"/>
      <path class="cls-1" d="M34.51,42.48s-1.28.36-1.46-.25"/>
      <path class="cls-1" d="M36,37.05c-.3.24-1.4,1.16-1,1.71"/>
      <line class="cls-2" x1="24.57" y1="38.39" x2="22.8" y2="40.59"/>
      <path class="cls-1" d="M19.81,32.66a3.52,3.52,0,0,1-1.28.61"/>
      <path class="cls-1" d="M19.75,35.65a16.72,16.72,0,0,1,6.65-.31c2.27,0,4.89-.1,7-1.14a2.28,2.28,0,0,0,1.5-2,2.75,2.75,0,0,0-.6-1.45.23.23,0,0,0-.07-.07h-.1l-3.2.24V33l1.77-.06c2.14-.07,1.52-2.25,1.52-2.25"/>
      <path class="cls-1" d="M10.42,43.7s-4.85-1.28-6.31-3"/>
      <path class="cls-3" d="M82.25,41.25a40.74,40.74,0,0,1-6,21.45c-.35.55-.7,1.1-1.07,1.64h0A41,41,0,0,1,.45,45.23c-.13-1.31-.2-2.63-.2-4a41,41,0,0,1,82,0Z"/>
    </g>
  </g>
</svg>
