<svg xmlns="http://www.w3.org/2000/svg" viewBox="0 0 85.79 91.14">
  <defs>
    <style>
      .cls-1 {
        fill: #fae0c3;
      }

      .cls-2 {
        fill: none;
        stroke: #eb593d;
        stroke-miterlimit: 10;
        stroke-width: 0.82px;
      }
    </style>
  </defs>
  <g id="Livello_2" data-name="Livello 2">
    <g id="Livello_1-2" data-name="Livello 1">
      <path class="cls-1" d="M18.1,18.61S16.45,7.07,19.75,3c0,0,10.71.83,14.83,5.77,0,0,16.48-4.94,29.67,0,0,0,11.13-6.59,14.63-5.77,0,0,3.5,9.07,1.44,15.66,0,0,21,35.44-19.37,42.86,0,0,3.3,6.59,3.3,8.24V91.14H34a3.68,3.68,0,0,0,1.45-3.3V78.78s-13.19,3.29-19-5.77-4.12-8.24-9.89-13.19c0,0,6.59-2.47,10.71,3.3s4.95,7.41,9.89,7.41,6.6,0,7.42-.82,4.12-8.24,4.12-8.24S-.86,58.17,18.1,18.61Z"/>
      <path class="cls-2" d="M12.33,16.14S10.68,4.6,14,.48c0,0,10.71.82,14.83,5.77,0,0,16.49-4.95,29.67,0,0,0,11.13-6.6,14.63-5.77,0,0,3.5,9.07,1.44,15.66,0,0,21,35.44-19.36,42.86,0,0,3.29,6.59,3.29,8.24V88.67H28.19a3.68,3.68,0,0,0,1.45-3.3V76.3s-13.19,3.3-19-5.77S6.56,62.29.79,57.35c0,0,6.59-2.47,10.71,3.29s4.95,7.42,9.89,7.42,6.6,0,7.42-.82S32.93,59,32.93,59-6.63,55.7,12.33,16.14Z"/>
    </g>
  </g>
</svg>
