<svg xmlns="http://www.w3.org/2000/svg" viewBox="0 0 236 164">
  <defs>
    <style>
      .cls-1 {
        fill: #fae0c3;
      }

      .cls-2, .cls-4, .cls-5 {
        fill: none;
      }

      .cls-2, .cls-4 {
        stroke: #eb593d;
        stroke-miterlimit: 10;
      }

      .cls-3 {
        fill: #eb593d;
      }

      .cls-4 {
        stroke-linecap: round;
        stroke-width: 0.25px;
      }
    </style>
  </defs>
  <g id="Livello_2" data-name="Livello 2">
    <g id="Livello_1-2" data-name="Livello 1">
      <g>
        <rect class="cls-1" x="138.58" y="54.92" width="68.12" height="68.12" rx="12" transform="translate(45.32 -57.69) rotate(21.77)"/>
        <rect class="cls-2" x="137.58" y="51.92" width="68.12" height="68.12" rx="12" transform="translate(44.13 -57.53) rotate(21.77)"/>
        <g>
          <path class="cls-3" d="M168.06,68.21l-11.56,29-3.73-1.5,11.56-28.95Z"/>
          <path class="cls-3" d="M193,76.39l-10,25.12c-.74,1.85-1.54,4-2,5.44l-3.4-1.35,1.27-3.68-.08,0a8.29,8.29,0,0,1-8.72,1.24c-5-2-7.19-7.8-4.67-14.11,2.72-6.93,8.71-9.47,13.78-7.45,3.18,1.27,4.73,3.63,5,5.69l.09,0,4.95-12.41ZM182,93.05a7.3,7.3,0,0,0,.46-1.66,6,6,0,0,0-3.7-6.56c-3.91-1.56-7.6,1-9.44,5.54-1.68,4.21-1,8.51,3.07,10.14a6.1,6.1,0,0,0,7.34-2.29,7.07,7.07,0,0,0,.83-1.57Z"/>
        </g>
        <rect class="cls-1" x="80.16" y="35.56" width="68.12" height="68.12" rx="12"/>
        <rect class="cls-2" x="77.16" y="33.56" width="68.12" height="68.12" rx="12"/>
        <g>
          <path class="cls-3" d="M98.24,52.4a45.82,45.82,0,0,1,7.72-.61c4,0,6.89.93,8.74,2.59a8.38,8.38,0,0,1,2.73,6.53,9.19,9.19,0,0,1-2.4,6.66c-2.13,2.26-5.6,3.42-9.53,3.42a14,14,0,0,1-3.24-.28V83.2h-4Zm4,15a13.59,13.59,0,0,0,3.33.32c4.86,0,7.82-2.36,7.82-6.66,0-4.12-2.91-6.1-7.35-6.1a16.75,16.75,0,0,0-3.8.32Z"/>
          <path class="cls-3" d="M121.13,79a10.76,10.76,0,0,0,5.37,1.61c3,0,4.35-1.48,4.35-3.32s-1.16-3-4.17-4.12c-4-1.44-5.92-3.66-5.92-6.34,0-3.61,2.92-6.57,7.73-6.57a11.18,11.18,0,0,1,5.5,1.39l-1,3a8.7,8.7,0,0,0-4.57-1.29c-2.41,0-3.75,1.39-3.75,3,0,1.85,1.34,2.68,4.25,3.79,3.89,1.48,5.88,3.42,5.88,6.76,0,3.93-3.05,6.7-8.37,6.7a12.71,12.71,0,0,1-6.29-1.53Z"/>
        </g>
        <line class="cls-4" x1="97.21" y1="87.56" x2="135.81" y2="87.56"/>
        <line class="cls-4" x1="184.44" y1="111.72" x2="148.59" y2="97.4"/>
        <rect class="cls-1" x="31.2" y="56.81" width="68.12" height="68.12" rx="12" transform="translate(-23.81 23.17) rotate(-17.07)"/>
        <rect class="cls-2" x="28.2" y="56.81" width="68.12" height="68.12" rx="12" transform="translate(-23.94 22.29) rotate(-17.07)"/>
        <g>
          <path class="cls-3" d="M55.91,97.69,55.69,108l-4,1.22,1-32.9,4.64-1.43,19.32,26.68-4.11,1.26-6.06-8.4Zm8.85-6L59.2,84C57.94,82.26,57,80.63,56,79l-.09,0c.1,1.91.17,3.87.15,5.86l-.27,9.52Z"/>
          <path class="cls-3" d="M76.67,71.57a2.52,2.52,0,0,1-4.81,1.48,2.49,2.49,0,0,1,1.68-3.18A2.41,2.41,0,0,1,76.67,71.57Zm4.09,28.74-6.57-21.4,3.89-1.19,6.57,21.4Z"/>
        </g>
        <line class="cls-4" x1="52.01" y1="112.06" x2="89.01" y2="101.06"/>
      </g>
      <rect class="cls-5" width="236" height="164" rx="12"/>
    </g>
  </g>
</svg>
