<svg xmlns="http://www.w3.org/2000/svg" viewBox="0 0 68 68">
  <defs>
    <style>
      .cls-1 {
        fill: #18233d;
      }

      .cls-2 {
        fill: none;
        stroke: #fff;
        stroke-miterlimit: 10;
        stroke-width: 0.5px;
        stroke-dasharray: 2 2;
      }

      .cls-3 {
        fill: #fff;
      }
    </style>
  </defs>
  <g id="Livello_2" data-name="Livello 2">
    <g id="Livello_1-2" data-name="Livello 1">
      <circle class="cls-1" cx="34" cy="34" r="34"/>
      <circle class="cls-2" cx="34" cy="34" r="30"/>
      <g>
        <g>
          <path class="cls-3" d="M16,45a11.12,11.12,0,0,1-4.29-.79,7.06,7.06,0,0,1-3-2.32,6.13,6.13,0,0,1-1.14-3.76A6.33,6.33,0,0,1,9,33.92a8.19,8.19,0,0,1,3.92-2.53,4.09,4.09,0,0,1-1.22-3,3.62,3.62,0,0,1,.72-2.29,4.36,4.36,0,0,1,1.88-1.4,6.75,6.75,0,0,1,2.51-.47,5.25,5.25,0,0,1,1.9.35,3.59,3.59,0,0,1,1.46,1,2.35,2.35,0,0,1,.56,1.6,2.08,2.08,0,0,1-.6,1.46,2.05,2.05,0,0,1-1.52.64A1.42,1.42,0,0,1,17.16,28q0-.24.15-.24t.24.3a1.77,1.77,0,0,0,.41.58,1,1,0,0,0,.66.27,1.2,1.2,0,0,0,1-.5,1.84,1.84,0,0,0,.4-1.14,2.28,2.28,0,0,0-.93-1.9,3.36,3.36,0,0,0-2.12-.72,3.59,3.59,0,0,0-2.78,1.11,4.13,4.13,0,0,0-1,2.91,3.82,3.82,0,0,0,.79,2.46,7.37,7.37,0,0,1,1-.2,8.93,8.93,0,0,1,1.11-.07c1.36,0,2,.33,2,1a.83.83,0,0,1-.5.73,2.53,2.53,0,0,1-1.2.27,4.14,4.14,0,0,1-1.69-.32,7.85,7.85,0,0,1-1.44-.8A5.42,5.42,0,0,0,11,33.23a7,7,0,0,0-1.42,2.44,9,9,0,0,0-.47,2.9A5.5,5.5,0,0,0,10,41.65a6.14,6.14,0,0,0,2.36,2.13,6.87,6.87,0,0,0,3.27.78,8.44,8.44,0,0,0,3.57-.73,6.2,6.2,0,0,0,2.54-2.08,5.65,5.65,0,0,0,.94-3.3A3.85,3.85,0,0,0,21.85,36a2.67,2.67,0,0,0-2.23-1,2.14,2.14,0,0,0-1.41.44,1.42,1.42,0,0,0-.54,1.14.5.5,0,0,0,.14.41.45.45,0,0,0,.26.11,0,0,0,0,1,0,0q0,.18-.24.18a.52.52,0,0,1-.4-.21,1.09,1.09,0,0,1-.18-.7A1.64,1.64,0,0,1,18,35a2.5,2.5,0,0,1,1.58-.54,3.92,3.92,0,0,1,3,1.17,4.24,4.24,0,0,1,1.11,3,5.6,5.6,0,0,1-1.08,3.47,6.8,6.8,0,0,1-2.82,2.17A9.53,9.53,0,0,1,16,45Zm.43-12.58a1.84,1.84,0,0,0,.82-.17c.22-.11.33-.25.33-.41s-.13-.38-.41-.49a3.18,3.18,0,0,0-1.08-.15,7.07,7.07,0,0,0-.91.06,8.6,8.6,0,0,0-.94.18,4.06,4.06,0,0,0,1,.72A2.67,2.67,0,0,0,16.4,32.43Z"/>
          <path class="cls-3" d="M27.37,44a2,2,0,0,1-1.76-.82A4.76,4.76,0,0,1,24.85,41a21.49,21.49,0,0,1-.18-2.88,26.5,26.5,0,0,1,.23-3.48,34.46,34.46,0,0,1,.63-3.54,28.2,28.2,0,0,1,.95-3.19,10.53,10.53,0,0,1,1.17-2.4C28.34,24.47,29,24,29.71,24a.81.81,0,0,1,.81.59,4.47,4.47,0,0,1,.23,1.56,14.38,14.38,0,0,1-.31,2.79,20.06,20.06,0,0,1-.73,2.81,28.21,28.21,0,0,1-3.89,7.54,14.89,14.89,0,0,0,.14,2,4.67,4.67,0,0,0,.5,1.64,1.11,1.11,0,0,0,1,.66A1.47,1.47,0,0,0,28.51,43a5.63,5.63,0,0,0,.93-1.31,12.42,12.42,0,0,0,.72-1.63,9.16,9.16,0,0,0,.38-1.44q.06-.21.21-.21t.15.21a13.26,13.26,0,0,1-.68,2.48,7.1,7.1,0,0,1-1.17,2A2.18,2.18,0,0,1,27.37,44Zm-1.55-5.47a19,19,0,0,0,1.86-3.13,33.84,33.84,0,0,0,1.49-3.8c.18-.57.36-1.22.53-2s.31-1.48.42-2.22a11.92,11.92,0,0,0,.17-1.87,3,3,0,0,0-.09-.82c-.06-.21-.16-.31-.3-.31s-.42.18-.64.55a16.11,16.11,0,0,0-.91,1.88c-.39.9-.72,1.77-1,2.62a24,24,0,0,0-.67,2.46c-.26,1.2-.46,2.34-.59,3.44S25.86,37.5,25.82,38.51Z"/>
          <path class="cls-3" d="M32.75,43.89A1.81,1.81,0,0,1,31,42.81a6,6,0,0,1-.51-2.57,12.29,12.29,0,0,1,.19-2.16c.24-1.46.51-3,.82-4.74a1.48,1.48,0,0,0,.45.09,1.1,1.1,0,0,0,1-.73q.06-.15.18-.15t.09.21c-.08.33-.21.92-.4,1.78s-.42,2-.73,3.36c-.1.51-.18,1-.25,1.6a10.89,10.89,0,0,0-.11,1.56,5.15,5.15,0,0,0,.27,1.77,1,1,0,0,0,1,.73,1.79,1.79,0,0,0,1.49-.8,6.94,6.94,0,0,0,.94-1.93c.24-.76.43-1.48.58-2.17q0-.21.21-.21t.15.21a12.34,12.34,0,0,1-1.38,4A2.45,2.45,0,0,1,32.75,43.89ZM32.6,30.82a.89.89,0,0,1-.91-.92,1,1,0,0,1,.32-.73,1,1,0,0,1,.74-.3.86.86,0,0,1,.63.26.89.89,0,0,1,.26.65,1,1,0,0,1-.31.73A1,1,0,0,1,32.6,30.82Z"/>
        </g>
        <path class="cls-3" d="M51.87,43.61A1.66,1.66,0,0,1,50.5,43a3.89,3.89,0,0,1-.75-1.64,9.31,9.31,0,0,1-.23-2,11.23,11.23,0,0,1,.41-3,6.55,6.55,0,0,1,1.22-2.45,2.48,2.48,0,0,1,2-1q1.71,0,1.92,2.58L55.33,33a.91.91,0,0,0,.27,0,1.1,1.1,0,0,0,.95-.67q0-.12.12-.12t.15.18l-.64,5.41a26.23,26.23,0,0,0-.18,3,6.67,6.67,0,0,0,.17,1.73c.11.39.32.58.62.58a1.23,1.23,0,0,0,.94-.47,4.32,4.32,0,0,0,.76-1.22,13.66,13.66,0,0,0,.6-1.56,14,14,0,0,0,.38-1.52c0-.22.11-.34.21-.34s.17.12.15.34a22.48,22.48,0,0,1-.61,2.45,5.61,5.61,0,0,1-1,2,2.06,2.06,0,0,1-1.67.78A1.33,1.33,0,0,1,55.41,43a3.47,3.47,0,0,1-.57-1.4,9.4,9.4,0,0,1-.15-1.66q-.88,3.34-2.4,3.65l-.21,0Zm.27-.4a1.7,1.7,0,0,0,1.17-.91,8.69,8.69,0,0,0,.85-2,14.9,14.9,0,0,0,.5-2.17,10.19,10.19,0,0,0,.09-1.4,10.05,10.05,0,0,0-.13-1.66,4.14,4.14,0,0,0-.44-1.34,1,1,0,0,0-.86-.53,1.19,1.19,0,0,0-1,.64,6,6,0,0,0-.76,1.63,15.07,15.07,0,0,0-.51,2,11.27,11.27,0,0,0-.18,1.87A13.4,13.4,0,0,0,51,41.15a5.67,5.67,0,0,0,.4,1.52C51.62,43.07,51.85,43.25,52.14,43.21Z"/>
        <path class="cls-3" d="M51.51,42.84a1.94,1.94,0,0,1-1.42.74A1.88,1.88,0,0,1,48.72,43a7.23,7.23,0,0,1-1.43-2.2,21.18,21.18,0,0,0-2.66-4.23,5,5,0,0,0-4.46-1.72A3.56,3.56,0,0,0,38,35.92a3.12,3.12,0,0,0-.84,2.23h0l-.3-.08a2.76,2.76,0,0,1,1.2-1.44,2,2,0,0,1,2,0,3.58,3.58,0,0,1,.42.25,1.67,1.67,0,0,1,.38.37,3.31,3.31,0,0,1,.48.86,3.14,3.14,0,0,1,.08,1.94,3.48,3.48,0,0,1-2.76,2.4,6,6,0,0,1-3.54-.61l.15-.35a6,6,0,0,0,3.27.36,2.87,2.87,0,0,0,2.19-2,2.3,2.3,0,0,0-1-2.6,1.49,1.49,0,0,0-1.36-.1,3.13,3.13,0,0,0-1.19,1l-.46.63.16-.71h0a4.13,4.13,0,0,1,1-2.34,3.8,3.8,0,0,1,2.28-1.07,5.43,5.43,0,0,1,4.58,1.75,24.47,24.47,0,0,1,2.94,4.12,6.54,6.54,0,0,0,1.46,1.9,1,1,0,0,0,1.59-.18Z"/>
      </g>
    </g>
  </g>
</svg>
