<svg xmlns="http://www.w3.org/2000/svg" viewBox="0 0 64.41 25.93">
  <defs>
    <style>
      .cls-1 {
        fill: #18233d;
      }
    </style>
  </defs>
  <g id="Livello_2" data-name="Livello 2">
    <g id="Livello_1-2" data-name="Livello 1">
      <g>
        <g>
          <path class="cls-1" d="M11.86,32.26a13.91,13.91,0,0,1-5.28-1,8.76,8.76,0,0,1-3.76-2.87,7.57,7.57,0,0,1-1.4-4.62,7.81,7.81,0,0,1,1.83-5.2,10.13,10.13,0,0,1,4.83-3.1,5,5,0,0,1-1.5-3.71A4.52,4.52,0,0,1,7.46,9,5.47,5.47,0,0,1,9.78,7.25a8.13,8.13,0,0,1,3.09-.58,6.35,6.35,0,0,1,2.34.43A4.55,4.55,0,0,1,17,8.33a2.93,2.93,0,0,1,.7,2A2.51,2.51,0,0,1,17,12.09a2.47,2.47,0,0,1-1.87.79,1.73,1.73,0,0,1-1.76-1.61q0-.3.18-.3c.1,0,.2.13.3.38a2.15,2.15,0,0,0,.51.71,1.15,1.15,0,0,0,.8.33,1.46,1.46,0,0,0,1.2-.61,2.26,2.26,0,0,0,.49-1.41A2.82,2.82,0,0,0,15.66,8a4.18,4.18,0,0,0-2.6-.87A4.43,4.43,0,0,0,9.63,8.52a5.09,5.09,0,0,0-1.25,3.57,4.61,4.61,0,0,0,1,3,8.34,8.34,0,0,1,1.26-.24A11.07,11.07,0,0,1,12,14.79c1.67,0,2.51.41,2.51,1.23a1,1,0,0,1-.62.9,3.08,3.08,0,0,1-1.48.34,5.23,5.23,0,0,1-2.07-.4,9.78,9.78,0,0,1-1.78-1,6.93,6.93,0,0,0-2.81,1.89,8.68,8.68,0,0,0-1.74,3,11.24,11.24,0,0,0-.58,3.58,6.81,6.81,0,0,0,1.09,3.79,7.56,7.56,0,0,0,2.9,2.62,8.46,8.46,0,0,0,4,1,10.46,10.46,0,0,0,4.4-.9,7.5,7.5,0,0,0,3.12-2.56,7,7,0,0,0,1.16-4.06,4.75,4.75,0,0,0-1-3.05,3.3,3.3,0,0,0-2.75-1.25,2.62,2.62,0,0,0-1.74.54,1.73,1.73,0,0,0-.66,1.4.64.64,0,0,0,.17.51.57.57,0,0,0,.32.13s0,0,0,0-.1.23-.3.23a.65.65,0,0,1-.49-.26,1.32,1.32,0,0,1-.22-.86,2,2,0,0,1,.86-1.71,3.15,3.15,0,0,1,1.94-.65A4.84,4.84,0,0,1,20,20.68a5.18,5.18,0,0,1,1.36,3.72A6.93,6.93,0,0,1,20,28.67a8.44,8.44,0,0,1-3.48,2.67A11.81,11.81,0,0,1,11.86,32.26Zm.52-15.49a2.19,2.19,0,0,0,1-.21c.28-.13.41-.3.41-.5s-.16-.47-.5-.6A4,4,0,0,0,12,15.27a8.44,8.44,0,0,0-1.12.08,10.24,10.24,0,0,0-1.16.22,5.11,5.11,0,0,0,1.23.88A3.27,3.27,0,0,0,12.38,16.77Z" transform="translate(-1.42 -6.33)"/>
          <path class="cls-1" d="M25.89,31a2.48,2.48,0,0,1-2.17-1,5.94,5.94,0,0,1-.94-2.64,26.06,26.06,0,0,1-.22-3.54,33.64,33.64,0,0,1,.28-4.28,44.1,44.1,0,0,1,.78-4.36,37.65,37.65,0,0,1,1.16-3.93,14,14,0,0,1,1.44-3q1.28-1.95,2.55-1.95a1,1,0,0,1,1,.73A5.43,5.43,0,0,1,30,9a18,18,0,0,1-.37,3.42,25.83,25.83,0,0,1-.9,3.46A35.21,35.21,0,0,1,24,25.15a18.48,18.48,0,0,0,.17,2.49,5.73,5.73,0,0,0,.62,2,1.37,1.37,0,0,0,1.23.8,1.8,1.8,0,0,0,1.29-.63,7.38,7.38,0,0,0,1.14-1.61,14.13,14.13,0,0,0,.88-2,10.57,10.57,0,0,0,.47-1.78c0-.18.14-.26.26-.26s.21.08.19.26a17.1,17.1,0,0,1-.84,3A8.43,8.43,0,0,1,28,30,2.63,2.63,0,0,1,25.89,31ZM24,24.25a22.86,22.86,0,0,0,2.28-3.85,37.73,37.73,0,0,0,1.84-4.68c.22-.7.44-1.5.65-2.41s.39-1.82.52-2.73a15.6,15.6,0,0,0,.21-2.3,3.82,3.82,0,0,0-.11-1c-.08-.25-.2-.38-.38-.38s-.51.23-.78.68a20.39,20.39,0,0,0-1.13,2.32c-.47,1.09-.88,2.17-1.23,3.21a26.51,26.51,0,0,0-.82,3,42.23,42.23,0,0,0-.73,4.23C24.14,21.71,24,23,24,24.25Z" transform="translate(-1.42 -6.33)"/>
          <path class="cls-1" d="M32.51,30.87a2.25,2.25,0,0,1-2.23-1.32,7.5,7.5,0,0,1-.61-3.17,16.06,16.06,0,0,1,.22-2.65c.3-1.8.64-3.74,1-5.84a1.66,1.66,0,0,0,.56.11,1.34,1.34,0,0,0,1.2-.89c.05-.13.12-.19.22-.19s.14.09.12.26c-.1.4-.27,1.13-.49,2.19s-.52,2.44-.9,4.13c-.12.63-.23,1.28-.32,2a16.73,16.73,0,0,0-.13,1.92,6,6,0,0,0,.34,2.17,1.19,1.19,0,0,0,1.16.9,2.16,2.16,0,0,0,1.83-1,8.38,8.38,0,0,0,1.16-2.38,24.21,24.21,0,0,0,.71-2.67c0-.18.11-.26.26-.26s.19.08.19.26a15,15,0,0,1-1.7,4.92A3,3,0,0,1,32.51,30.87Zm-.19-16.08a1.09,1.09,0,0,1-1.12-1.13,1.2,1.2,0,0,1,.39-.89,1.29,1.29,0,0,1,.92-.38,1.07,1.07,0,0,1,.77.32,1.09,1.09,0,0,1,.31.81,1.22,1.22,0,0,1-.37.89A1.23,1.23,0,0,1,32.32,14.79Z" transform="translate(-1.42 -6.33)"/>
        </g>
        <path class="cls-1" d="M56,30.53a2.06,2.06,0,0,1-1.69-.79,4.83,4.83,0,0,1-.91-2,11.1,11.1,0,0,1-.28-2.51,13.55,13.55,0,0,1,.5-3.68,8.1,8.1,0,0,1,1.5-3,3,3,0,0,1,2.45-1.2c1.39,0,2.18,1.06,2.35,3.18l.34-3.07a1,1,0,0,0,.34,0,1.32,1.32,0,0,0,1.16-.82q0-.15.15-.15c.1,0,.16.07.18.22l-.78,6.66a31.7,31.7,0,0,0-.23,3.71,8.11,8.11,0,0,0,.21,2.13c.14.47.39.71.77.71a1.54,1.54,0,0,0,1.16-.58,5.93,5.93,0,0,0,.93-1.5,16.23,16.23,0,0,0,.73-1.92,15.49,15.49,0,0,0,.47-1.87c.05-.28.13-.42.26-.42s.21.14.19.42a30.78,30.78,0,0,1-.75,3,7,7,0,0,1-1.24,2.43,2.54,2.54,0,0,1-2.05.95,1.66,1.66,0,0,1-1.41-.69A4.26,4.26,0,0,1,59.69,28a11.92,11.92,0,0,1-.19-2q-1.08,4.11-3,4.49a1.51,1.51,0,0,1-.26,0Zm.33-.49a2.07,2.07,0,0,0,1.44-1.12,10.78,10.78,0,0,0,1.05-2.41,18.61,18.61,0,0,0,.62-2.68,13,13,0,0,0,.11-1.72,12.39,12.39,0,0,0-.17-2,5,5,0,0,0-.54-1.65,1.17,1.17,0,0,0-1-.65,1.49,1.49,0,0,0-1.18.79,7.61,7.61,0,0,0-.93,2,18.64,18.64,0,0,0-.62,2.5,13.53,13.53,0,0,0-.22,2.3A16.18,16.18,0,0,0,55,27.5a7,7,0,0,0,.48,1.87C55.73,29.87,56,30.09,56.36,30Z" transform="translate(-1.42 -6.33)"/>
        <path class="cls-1" d="M55.59,29.59a2.22,2.22,0,0,1-3.44.18,8.74,8.74,0,0,1-1.75-2.7,25.63,25.63,0,0,0-3.27-5.21,6.2,6.2,0,0,0-5.49-2.13A4.49,4.49,0,0,0,39,21.06a3.84,3.84,0,0,0-1,2.75l-.38-.1A3.58,3.58,0,0,1,39,21.93a2.49,2.49,0,0,1,2.44,0c.18.1.35.21.51.32a2.28,2.28,0,0,1,.47.46,3.69,3.69,0,0,1,.59,1.06,3.87,3.87,0,0,1,.1,2.38,4.25,4.25,0,0,1-3.4,2.95,7.31,7.31,0,0,1-4.36-.74l.19-.43a7.35,7.35,0,0,0,4,.44,3.58,3.58,0,0,0,2.71-2.46,2.81,2.81,0,0,0-1.25-3.18,1.86,1.86,0,0,0-1.68-.14,3.89,3.89,0,0,0-1.45,1.27l-.5.69.12-.79a5,5,0,0,1,1.27-2.87,4.6,4.6,0,0,1,2.8-1.32,6.66,6.66,0,0,1,5.64,2.15,29.78,29.78,0,0,1,3.61,5.08,8.19,8.19,0,0,0,1.8,2.34,1.49,1.49,0,0,0,1.11.37,1.27,1.27,0,0,0,.85-.6Z" transform="translate(-1.42 -6.33)"/>
      </g>
    </g>
  </g>
</svg>
